<?xml version="1.0" encoding="UTF-8"?>
<svg xmlns="http://www.w3.org/2000/svg" xmlns:xlink="http://www.w3.org/1999/xlink" version="1.2" >
<font id="Neutra Text Alt Bold Italic">
<font-face  font-family="Neutra Text" units-per-em="1000" ascent="700" descent="-200" font-style="italic" font-weight="700" font-stretch="normal" slope="-12" cap-height="700" x-height="500" underline-position="-133" underline-thickness="20" />
<missing-glyph  horiz-adv-x="500" d="" />
<glyph glyph-name="NULL" d="" />
<glyph glyph-name="&amp;#x0;" horiz-adv-x="206" d="" />
<glyph glyph-name="&amp;#xd;" unicode="&#xd;" horiz-adv-x="206" d="" />
<glyph glyph-name="space" unicode="&#x20;" horiz-adv-x="206" d="" />
<glyph glyph-name="exclam" unicode="&#x21;" horiz-adv-x="269" d="M82 231 L184 231 L293 680 L145 680 L82 231 Z M112 -6 C156 -6 194 28 194 77 C194 125 156 160 112 160 C68 160 31 125 31 77 C31 28 68 -6 112 -6 L112 -6 Z " />
<glyph glyph-name="quotedbl" unicode="&#x22;" horiz-adv-x="400" d="M278 433 L386 433 L449 680 L306 680 L278 433 Z M90 433 L198 433 L260 680 L119 680 L90 433 Z " />
<glyph glyph-name="numbersign" unicode="&#x23;" horiz-adv-x="475" d="M150 482 L131 405 L68 405 L50 304 L106 304 L81 203 L184 203 L209 304 L280 304 L255 203 L358 203 L383 304 L460 304 L478 405 L408 405 L427 482 L492 482 L510 583 L452 583 C453 583 477 680 477 680 L374 680 L349 583 L278 583 C279 583 303 680 303 680 L200 680 L175 583 L100 583 L82 482 L150 482 Z M324 482 L305 405 L234 405 L253 482 L324 482 Z " />
<glyph glyph-name="dollar" unicode="&#x24;" horiz-adv-x="526" d="M190 -4 L170 -116 L235 -116 L254 -9 C398 -6 494 56 494 194 C494 290 431 352 334 403 L328 406 C328 407 355 559 355 559 C374 550 391 535 404 514 L511 588 C477 638 431 668 377 681 L393 773 L328 773 L313 688 C312 688 310 688 309 688 C168 688 93 600 93 497 C91 407 141 341 236 294 L242 291 L211 116 C162 129 132 166 107 202 L-3 124 C31 70 95 12 190 -4 L190 -4 Z M291 569 L268 439 C238 460 226 479 226 505 C226 537 249 566 291 569 L291 569 Z M276 112 L302 260 C340 236 356 214 356 184 C356 140 329 117 276 112 L276 112 Z " />
<glyph glyph-name="percent" unicode="&#x25;" horiz-adv-x="944" d="M257 322 C356 322 447 395 447 508 C447 613 366 688 268 688 C170 688 80 615 80 502 C80 397 158 322 257 322 L257 322 Z M165 0 L298 0 L827 680 L694 680 L165 0 Z M722 -9 C821 -9 912 64 912 177 C912 282 831 357 733 357 C635 357 545 284 545 171 C545 66 623 -9 722 -9 L722 -9 Z M259 424 C221 424 195 453 195 502 C195 557 228 586 266 586 C303 586 331 557 331 508 C331 452 297 424 259 424 L259 424 Z M724 93 C686 93 660 122 660 171 C660 226 693 255 731 255 C768 255 796 226 796 177 C796 121 762 93 724 93 L724 93 Z " />
<glyph glyph-name="ampersand" unicode="&#x26;" horiz-adv-x="681" d="M386 366 C485 411 531 469 531 539 C531 625 462 688 367 688 C251 688 179 620 179 522 C179 484 185 444 211 394 C97 342 32 280 32 182 C32 77 114 -9 275 -9 C334 -9 391 8 442 39 C470 12 502 0 556 0 L611 0 L631 112 L573 112 C558 112 548 115 539 125 C587 186 620 266 632 361 L511 361 C505 311 491 267 471 231 L386 366 Z M337 443 L333 449 C321 468 310 492 310 523 C310 559 332 585 366 585 C394 585 413 561 413 532 C413 499 393 469 337 443 L337 443 Z M374 133 C344 117 310 109 274 109 C213 109 177 145 177 192 C177 242 201 281 260 313 L374 133 Z " />
<glyph glyph-name="quotesingle" unicode="&#x27;" horiz-adv-x="211" d="M90 433 L198 433 L260 680 L119 680 L90 433 Z " />
<glyph glyph-name="parenleft" unicode="&#x28;" horiz-adv-x="337" d="M174 -133 L262 -79 C218 1 191 90 191 210 C191 399 267 543 382 648 L320 719 C203 629 54 485 54 212 C54 67 114 -56 174 -133 L174 -133 Z " />
<glyph glyph-name="parenright" unicode="&#x29;" horiz-adv-x="337" d="M50 -133 C166 -43 314 101 314 374 C314 519 254 642 194 719 L106 665 C150 585 177 496 177 376 C177 187 101 43 -14 -62 L50 -133 Z " />
<glyph glyph-name="asterisk" unicode="&#x2a;" horiz-adv-x="414" d="M190 358 L307 358 L287 470 L359 384 L425 475 L315 517 L430 537 L384 642 L296 566 L338 680 L221 680 L241 568 L167 657 L101 565 L210 523 L96 503 L142 400 L232 472 L190 358 Z " />
<glyph glyph-name="plus" unicode="&#x2b;" horiz-adv-x="436" d="M285 262 L408 262 L428 375 L305 375 L328 505 L213 505 L190 375 L68 375 L48 262 L170 262 L147 132 L262 132 L285 262 Z " />
<glyph glyph-name="comma" unicode="&#x2c;" horiz-adv-x="240" d="M-1 -114 L65 -114 L144 -6 C164 21 179 45 179 77 C179 125 142 160 98 160 C53 160 17 125 17 79 C17 44 34 20 61 5 L-1 -114 Z " />
<glyph glyph-name="&amp;#x2d;" unicode="&#x2d;" horiz-adv-x="292" d="M29 184 L255 184 L276 300 L50 300 L29 184 Z " />
<glyph glyph-name="&amp;#xad;" unicode="&#xad;" horiz-adv-x="292" d="M29 184 L255 184 L276 300 L50 300 L29 184 Z " />
<glyph glyph-name="period" unicode="&#x2e;" horiz-adv-x="240" d="M98 -6 C142 -6 179 28 179 77 C179 125 142 160 98 160 C54 160 17 125 17 77 C17 28 54 -6 98 -6 L98 -6 Z " />
<glyph glyph-name="slash" unicode="&#x2f;" horiz-adv-x="396" d="M-73 -128 L58 -128 L480 722 L349 722 L-73 -128 Z " />
<glyph glyph-name="zero" unicode="0" horiz-adv-x="722" d="M367 -9 C553 -9 709 139 709 363 C709 554 579 688 402 688 C219 688 61 542 61 318 C61 127 190 -9 367 -9 L367 -9 Z M371 114 C267 114 202 189 202 315 C202 471 288 565 398 565 C502 565 567 490 567 364 C567 208 481 114 371 114 L371 114 Z " />
<glyph glyph-name="one" unicode="1" horiz-adv-x="347" d="M103 0 L239 0 L359 680 L114 680 L92 558 L201 558 L103 0 Z " />
<glyph glyph-name="two" unicode="2" horiz-adv-x="541" d="M-22 0 L468 0 L490 118 L319 118 C293 118 249 113 249 113 C249 113 290 138 311 157 L404 244 C497 331 550 396 550 488 C550 605 469 688 332 688 C212 688 108 625 78 489 L214 464 C232 528 270 565 326 565 C387 565 412 531 412 484 C412 430 377 384 294 307 L-22 12 L-22 0 Z " />
<glyph glyph-name="three" unicode="3" horiz-adv-x="544" d="M256 -9 C399 -9 517 92 517 233 C517 352 440 422 369 436 C369 436 397 455 413 474 L573 668 L573 680 L137 680 L116 561 L294 561 C317 561 360 565 360 565 C360 565 327 543 307 519 L171 356 L179 344 C196 350 220 356 253 356 C333 356 377 302 377 236 C377 168 328 114 252 114 C175 114 139 155 117 207 L-5 151 C30 59 120 -9 256 -9 L256 -9 Z " />
<glyph glyph-name="four" unicode="4" horiz-adv-x="629" d="M515 209 L600 694 L588 694 L46 205 L27 99 L359 99 L341 0 L478 0 L496 99 L581 99 L601 209 L515 209 Z M378 209 L263 209 C230 209 186 202 186 202 C186 202 230 225 260 252 L367 348 C396 374 420 415 420 415 C420 415 406 369 400 337 L378 209 Z " />
<glyph glyph-name="five" unicode="5" horiz-adv-x="562" d="M267 -9 C425 -9 531 88 531 234 C531 366 441 462 304 462 C275 462 248 458 231 452 L251 560 L517 560 L538 680 L154 680 L87 298 L98 293 C144 324 192 349 258 349 C342 349 391 302 391 232 C391 166 347 114 267 114 C190 114 153 159 129 211 L9 151 C46 59 137 -9 267 -9 L267 -9 Z " />
<glyph glyph-name="six" unicode="6" horiz-adv-x="584" d="M287 -9 C445 -9 552 95 552 241 C552 367 465 463 338 463 C322 463 306 461 294 458 C294 458 334 481 366 521 L495 680 L337 680 L126 427 C70 360 42 295 42 225 C42 95 142 -9 287 -9 L287 -9 Z M292 110 C217 110 180 171 180 231 C180 298 221 358 299 358 C373 358 410 306 410 239 C410 172 369 110 292 110 L292 110 Z " />
<glyph glyph-name="seven" unicode="7" horiz-adv-x="555" d="M45 0 L199 0 L622 668 L622 680 L108 680 L86 558 L400 558 L45 0 Z " />
<glyph glyph-name="eight" unicode="8" horiz-adv-x="590" d="M206 406 C115 382 39 322 39 208 C39 88 136 -9 293 -9 C447 -9 555 81 555 220 C555 297 513 352 452 385 C502 407 549 448 549 522 C549 614 466 688 354 688 C243 688 151 616 151 516 C151 465 174 430 206 406 L206 406 Z M350 447 C312 447 286 475 286 508 C286 545 312 572 351 572 C388 572 414 544 414 511 C414 474 389 447 350 447 L350 447 Z M294 109 C225 109 180 155 180 220 C180 290 234 335 301 335 C370 335 415 294 415 229 C415 159 361 109 294 109 L294 109 Z " />
<glyph glyph-name="nine" unicode="9" horiz-adv-x="583" d="M136 0 L294 0 L505 252 C560 317 589 384 589 454 C589 590 492 688 344 688 C190 688 79 584 79 438 C79 312 166 216 291 216 C308 216 325 218 337 221 C337 221 297 198 265 158 L136 0 Z M331 321 C257 321 220 371 220 440 C220 507 263 569 338 569 C413 569 450 512 450 448 C450 381 407 321 331 321 L331 321 Z " />
<glyph glyph-name="colon" unicode="&#x3a;" horiz-adv-x="246" d="M141 226 C185 226 222 260 222 309 C222 357 185 392 141 392 C97 392 60 357 60 309 C60 260 97 226 141 226 L141 226 Z M101 -6 C145 -6 182 28 182 77 C182 125 145 160 101 160 C57 160 20 125 20 77 C20 28 57 -6 101 -6 L101 -6 Z " />
<glyph glyph-name="&amp;#x3b;" unicode="&#x3b;" horiz-adv-x="246" d="M141 226 C185 226 222 260 222 309 C222 357 185 392 141 392 C97 392 60 357 60 309 C60 260 97 226 141 226 L141 226 Z M2 -114 L68 -114 L147 -6 C167 21 182 45 182 77 C182 125 145 160 101 160 C56 160 20 125 20 79 C20 44 37 20 64 5 L2 -114 Z " />
<glyph glyph-name="&amp;#x37e;" unicode="&#x37e;" horiz-adv-x="246" d="M141 226 C185 226 222 260 222 309 C222 357 185 392 141 392 C97 392 60 357 60 309 C60 260 97 226 141 226 L141 226 Z M2 -114 L68 -114 L147 -6 C167 21 182 45 182 77 C182 125 145 160 101 160 C56 160 20 125 20 79 C20 44 37 20 64 5 L2 -114 Z " />
<glyph glyph-name="less" unicode="&#x3c;" horiz-adv-x="386" d="M336 122 L355 235 L227 308 L381 379 L403 504 L41 321 L41 311 L336 122 Z " />
<glyph glyph-name="equal" unicode="&#x3d;" horiz-adv-x="432" d="M57 330 L419 330 L439 442 L77 442 L57 330 Z M26 155 L388 155 L408 267 L46 267 L26 155 Z " />
<glyph glyph-name="greater" unicode="&#x3e;" horiz-adv-x="386" d="M22 122 L384 305 L384 315 L89 504 L70 391 L198 318 L44 247 L22 122 Z " />
<glyph glyph-name="question" unicode="&#x3f;" horiz-adv-x="503" d="M201 231 L324 231 L335 293 C433 306 513 377 513 487 C513 597 441 688 302 688 C207 688 130 634 95 566 L197 506 C222 545 253 571 300 571 C351 571 380 536 380 488 C380 434 346 390 264 390 L229 390 L201 231 Z M238 -6 C282 -6 320 28 320 77 C320 125 282 160 238 160 C194 160 157 125 157 77 C157 28 194 -6 238 -6 L238 -6 Z " />
<glyph glyph-name="at" unicode="&#x40;" horiz-adv-x="896" d="M448 -207 C518 -207 582 -199 638 -175 L603 -84 C554 -100 498 -108 450 -108 C257 -108 154 11 154 181 C154 378 287 509 467 509 C631 509 753 417 753 249 C753 129 711 89 668 89 C632 89 620 114 629 162 L668 381 L542 381 L533 313 C514 356 478 391 414 391 C320 391 237 310 237 181 C237 68 307 -9 406 -9 C456 -9 503 18 530 75 C546 34 590 -4 662 -4 C781 -4 864 73 864 246 C864 444 716 608 467 608 C236 608 35 444 35 182 C35 -40 190 -207 448 -207 L448 -207 Z M443 97 C401 97 373 127 373 183 C373 248 403 283 448 283 C486 283 514 243 514 196 C514 140 484 97 443 97 L443 97 Z " />
<glyph glyph-name="A" unicode="A" horiz-adv-x="651" d="M169 79 L435 79 L455 0 L594 0 L410 686 L399 686 L-15 0 L122 0 L169 79 Z M407 188 L234 188 L307 312 C339 366 359 423 359 423 C359 423 362 365 376 311 L407 188 Z " />
<glyph glyph-name="B" unicode="B" horiz-adv-x="598" d="M32 0 L319 0 C464 0 560 88 560 218 C560 290 516 344 449 366 C525 389 559 446 559 510 C559 606 495 680 376 680 L152 680 L32 0 Z M244 427 L268 561 L359 561 C398 561 422 536 422 500 C422 453 391 427 344 427 L244 427 Z M190 119 L224 312 L328 312 C389 312 419 278 419 223 C419 158 379 119 313 119 L190 119 Z " />
<glyph glyph-name="C" unicode="C" horiz-adv-x="707" d="M393 -9 C526 -9 607 40 668 112 L565 191 C529 146 476 113 398 113 C293 113 211 200 211 325 C211 458 297 566 423 566 C503 566 553 528 586 475 L698 548 C635 641 560 688 427 688 C234 688 68 536 68 326 C68 138 206 -9 393 -9 L393 -9 Z " />
<glyph glyph-name="D" unicode="D" horiz-adv-x="667" d="M32 0 L264 0 C489 0 649 136 649 366 C649 556 531 680 330 680 L152 680 L32 0 Z M190 120 L268 560 L313 560 C447 560 507 486 507 372 C507 228 429 120 267 120 L190 120 Z " />
<glyph glyph-name="E" unicode="E" horiz-adv-x="576" d="M32 0 L486 0 L508 120 L189 120 L207 222 L474 222 L495 340 L228 340 L267 560 L572 560 L593 680 L152 680 L32 0 Z " />
<glyph glyph-name="F" unicode="F" horiz-adv-x="542" d="M32 0 L169 0 L206 210 L471 210 L493 332 L228 332 L268 560 L560 560 L581 680 L152 680 L32 0 Z " />
<glyph glyph-name="G" unicode="G" horiz-adv-x="782" d="M405 -9 C642 -9 756 143 757 364 L448 364 L427 246 L606 246 C589 170 514 111 409 111 C285 111 209 205 209 325 C209 468 296 566 424 566 C516 566 568 528 605 476 L711 553 C657 634 571 688 428 688 C230 688 68 539 68 326 C68 130 201 -9 405 -9 L405 -9 Z " />
<glyph glyph-name="H" unicode="H" horiz-adv-x="695" d="M512 332 L228 332 L289 680 L152 680 L32 0 L169 0 L206 211 L491 211 L454 0 L591 0 L711 680 L574 680 L512 332 Z " />
<glyph glyph-name="I" unicode="I" horiz-adv-x="281" d="M36 0 L173 0 L293 680 L156 680 L36 0 Z " />
<glyph glyph-name="J" unicode="J" horiz-adv-x="486" d="M198 -9 C319 -9 393 43 418 187 L505 680 L368 680 L284 204 C271 130 244 114 201 114 C155 114 135 148 118 185 L-1 120 C25 54 90 -9 198 -9 L198 -9 Z " />
<glyph glyph-name="K" unicode="K" horiz-adv-x="636" d="M208 313 C220 348 242 413 250 460 L289 680 L152 680 L32 0 L169 0 L203 193 L286 277 L433 0 L585 0 L388 368 L669 680 L510 680 L303 449 C271 413 234 355 208 313 L208 313 Z " />
<glyph glyph-name="L" unicode="L" horiz-adv-x="544" d="M32 0 L471 0 L492 120 L190 120 L289 680 L152 680 L32 0 Z " />
<glyph glyph-name="M" unicode="M" horiz-adv-x="843" d="M32 0 L169 0 L230 246 C243 298 256 386 256 386 C256 386 286 313 310 269 L406 94 L418 94 L572 267 C610 310 651 378 651 378 C651 378 635 301 630 247 L605 0 L739 0 L805 687 L791 687 L496 362 C469 332 436 280 436 280 C436 280 415 332 399 362 L222 687 L208 687 L32 0 Z " />
<glyph glyph-name="N" unicode="N" horiz-adv-x="683" d="M565 -6 L578 -6 L699 680 L571 680 L518 381 C509 328 506 256 506 256 C506 256 474 317 443 354 L166 686 L153 686 L32 0 L160 0 L213 298 C222 346 226 423 226 423 C226 423 258 363 289 325 L565 -6 Z " />
<glyph glyph-name="O" unicode="O" horiz-adv-x="780" d="M398 -9 C593 -9 760 130 760 351 C760 548 616 688 429 688 C234 688 68 549 68 328 C68 131 211 -9 398 -9 L398 -9 Z M403 113 C289 113 209 196 209 325 C209 471 294 566 425 566 C539 566 619 483 619 354 C619 208 534 113 403 113 L403 113 Z " />
<glyph glyph-name="P" unicode="P" horiz-adv-x="583" d="M196 155 L266 155 C462 155 588 258 588 435 C588 582 489 680 316 680 L152 680 L32 0 L169 0 L196 155 Z M217 274 L268 561 L304 561 C403 561 447 514 447 435 C447 334 392 274 270 274 L217 274 Z " />
<glyph glyph-name="Q" unicode="Q" horiz-adv-x="780" d="M435 -7 C614 9 760 144 760 351 C760 548 616 688 429 688 C234 688 68 549 68 328 C68 165 166 40 307 3 L279 -154 L409 -154 L435 -7 Z M328 124 C255 153 209 227 209 325 C209 471 294 566 425 566 C539 566 619 483 619 354 C619 229 557 139 457 116 L478 236 L348 236 L328 124 Z " />
<glyph glyph-name="R" unicode="R" horiz-adv-x="602" d="M426 204 C534 243 581 338 581 438 C581 591 478 680 303 680 L152 680 L32 0 L169 0 L199 169 L269 169 C280 169 290 169 300 170 L390 0 L534 0 L426 204 Z M219 287 L267 561 L289 561 C385 561 440 527 440 438 C440 334 378 287 271 287 L219 287 Z " />
<glyph glyph-name="S" unicode="S" horiz-adv-x="526" d="M251 -9 C385 -9 488 58 488 193 C488 291 432 340 341 398 L308 419 C257 451 238 472 238 506 C238 540 260 570 308 570 C351 570 376 551 402 519 L500 603 C459 655 399 688 315 688 C173 688 103 602 103 500 C103 411 145 356 231 300 L263 279 C324 239 348 221 348 183 C348 139 308 111 251 111 C182 111 136 158 109 202 L1 129 C34 65 123 -9 251 -9 L251 -9 Z " />
<glyph glyph-name="T" unicode="T" horiz-adv-x="575" d="M184 0 L322 0 L421 560 L610 560 L631 680 L113 680 L92 560 L283 560 L184 0 Z " />
<glyph glyph-name="U" unicode="U" horiz-adv-x="669" d="M323 -9 C476 -9 579 68 607 224 L688 680 L550 680 L473 246 C457 157 415 113 330 113 C238 113 196 164 213 260 L287 680 L149 680 L77 270 C47 101 160 -9 323 -9 L323 -9 Z " />
<glyph glyph-name="V" unicode="V" horiz-adv-x="647" d="M297 -6 L311 -6 L712 680 L570 680 L419 418 C384 357 341 253 341 253 C341 253 328 362 311 425 L242 680 L103 680 L297 -6 Z " />
<glyph glyph-name="W" unicode="W" horiz-adv-x="934" d="M231 -6 L244 -6 L454 322 C480 363 511 432 511 432 C511 432 520 359 532 314 L620 -6 L633 -6 L999 680 L859 680 L715 407 C689 358 662 279 662 279 C662 279 648 365 634 415 L560 686 L546 686 L369 407 C337 357 305 279 305 279 C305 279 299 363 290 416 L245 680 L103 680 L231 -6 Z " />
<glyph glyph-name="X" unicode="X" horiz-adv-x="642" d="M-13 0 L136 0 L272 181 C301 219 334 286 334 286 C334 286 349 214 365 175 L435 0 L583 0 L428 373 L660 680 L511 680 L424 563 C396 525 366 461 366 461 C366 461 352 530 336 570 L292 680 L144 680 L271 374 L-13 0 Z " />
<glyph glyph-name="Y" unicode="Y" horiz-adv-x="664" d="M272 217 L234 0 L371 0 L410 223 L730 680 L581 680 L429 461 C394 411 357 326 357 326 C357 326 343 409 325 461 L247 680 L102 680 L272 217 Z " />
<glyph glyph-name="Z" unicode="Z" horiz-adv-x="595" d="M2 0 L501 0 L522 119 L231 119 L621 668 L621 680 L159 680 L138 561 L391 561 L2 12 L2 0 Z " />
<glyph glyph-name="bracketleft" unicode="&#x5b;" horiz-adv-x="330" d="M0 -128 L242 -128 L262 -17 L152 -17 L263 611 L373 611 L392 722 L150 722 L0 -128 Z " />
<glyph glyph-name="backslash" unicode="&#x5c;" horiz-adv-x="396" d="M227 -128 L351 -128 L222 722 L98 722 L227 -128 Z " />
<glyph glyph-name="bracketright" unicode="&#x5d;" horiz-adv-x="330" d="M-30 -128 L212 -128 L362 722 L120 722 L101 611 L211 611 L100 -17 L-10 -17 L-30 -128 Z " />
<glyph glyph-name="asciicircum" unicode="&#x5e;" horiz-adv-x="430" d="M96 447 L204 447 L273 523 L318 447 L420 447 L305 687 L295 687 L96 447 Z " />
<glyph glyph-name="underscore" unicode="&#x5f;" horiz-adv-x="277" d="M-61 -128 L220 -128 L241 -11 L-40 -11 L-61 -128 Z " />
<glyph glyph-name="grave" unicode="&#x60;" horiz-adv-x="490" d="M226 500 L326 500 L287 688 L135 688 L226 500 Z " />
<glyph glyph-name="a" unicode="a" horiz-adv-x="532" d="M200 -9 C259 -9 291 15 324 64 L325 59 C332 25 345 0 441 0 L491 0 L508 99 L478 99 C463 99 457 106 460 124 L513 426 L381 426 L372 358 C343 413 293 435 235 435 C127 435 33 349 33 195 C33 70 108 -9 200 -9 L200 -9 Z M253 105 C201 105 171 141 171 201 C171 273 207 320 265 320 C318 320 347 281 347 221 C347 153 309 105 253 105 L253 105 Z " />
<glyph glyph-name="b" unicode="b" horiz-adv-x="536" d="M304 -9 C411 -9 506 83 506 231 C506 356 430 435 334 435 C280 435 242 408 213 369 L275 722 L143 722 L16 0 L148 0 L158 79 C188 19 239 -9 304 -9 L304 -9 Z M269 105 C214 105 182 144 182 204 C182 272 222 320 281 320 C335 320 368 284 368 224 C368 152 330 105 269 105 L269 105 Z " />
<glyph glyph-name="c" unicode="c" horiz-adv-x="455" d="M259 -9 C331 -9 381 15 416 50 L340 137 C322 122 299 105 259 105 C200 105 172 146 172 209 C172 273 210 320 269 320 C305 320 334 303 352 274 L449 350 C414 399 356 435 270 435 C136 435 35 343 35 209 C35 76 128 -9 259 -9 L259 -9 Z " />
<glyph glyph-name="d" unicode="d" horiz-adv-x="542" d="M205 -9 C265 -9 306 18 334 68 L335 61 C340 26 355 0 451 0 L501 0 L518 99 L488 99 C473 99 467 106 470 124 L575 722 L443 722 L380 363 C350 413 301 435 240 435 C129 435 33 349 33 195 C33 70 110 -9 205 -9 L205 -9 Z M258 105 C204 105 171 141 171 201 C171 273 209 320 270 320 C325 320 357 281 357 221 C357 153 317 105 258 105 L258 105 Z " />
<glyph glyph-name="e" unicode="e" horiz-adv-x="527" d="M171 174 L487 174 C506 322 430 435 278 435 C148 435 37 347 37 207 C37 80 127 -9 275 -9 C356 -9 409 12 457 49 L380 135 C357 118 327 98 276 98 C214 98 180 127 171 174 L171 174 Z M173 249 C185 303 221 330 274 330 C328 330 360 298 359 249 L173 249 Z " />
<glyph glyph-name="f" unicode="f" horiz-adv-x="372" d="M120 317 L49 -88 C45 -109 37 -113 22 -113 L-18 -113 L-37 -212 L32 -212 C121 -212 161 -201 179 -97 L252 317 L362 317 L381 426 L271 426 L297 575 C303 607 319 617 341 617 C362 617 373 608 383 594 L460 681 C431 715 392 735 335 735 C234 735 184 679 166 578 L139 426 L69 426 L50 317 L120 317 Z " />
<glyph glyph-name="g" unicode="g" horiz-adv-x="535" d="M198 -222 C319 -222 420 -169 446 -18 L524 426 L392 426 L383 358 C354 413 302 435 241 435 C130 435 34 349 34 195 C34 70 111 -9 206 -9 C266 -9 300 19 327 57 L317 1 C303 -75 260 -110 199 -110 C141 -110 106 -86 79 -55 L-9 -140 C23 -178 94 -222 198 -222 L198 -222 Z M259 105 C205 105 172 141 172 201 C172 273 210 320 271 320 C326 320 358 281 358 221 C358 153 318 105 259 105 L259 105 Z " />
<glyph glyph-name="h" unicode="h" horiz-adv-x="525" d="M16 0 L148 0 L189 231 C200 292 227 318 280 318 C327 318 350 289 340 232 L322 128 C305 31 350 0 441 0 L484 0 L501 99 L471 99 C456 99 450 106 453 124 L473 236 C494 356 438 435 345 435 C284 435 244 406 210 353 L275 722 L143 722 L16 0 Z " />
<glyph glyph-name="i" unicode="i" horiz-adv-x="260" d="M190 500 C235 500 272 533 272 582 C272 630 234 663 189 663 C145 663 108 630 108 582 C108 533 146 500 190 500 L190 500 Z M156 0 L206 0 L223 99 L193 99 C178 99 172 106 175 124 L228 426 L96 426 L43 123 C25 22 60 0 156 0 L156 0 Z " />
<glyph glyph-name="j" unicode="j" horiz-adv-x="257" d="M190 500 C235 500 272 533 272 582 C272 630 234 663 189 663 C145 663 108 630 108 582 C108 533 146 500 190 500 L190 500 Z M-17 -222 C75 -222 124 -166 141 -68 L228 426 L96 426 L8 -73 C4 -98 -8 -110 -28 -110 C-43 -110 -58 -104 -69 -92 L-137 -174 C-113 -201 -79 -222 -17 -222 L-17 -222 Z " />
<glyph glyph-name="k" unicode="k" horiz-adv-x="491" d="M170 125 L221 170 L263 85 C292 26 311 0 386 0 L434 0 L451 99 L420 99 C404 99 397 102 386 124 L324 249 L497 426 L347 426 L186 257 C195 286 204 320 210 354 L275 722 L143 722 L16 0 L148 0 L170 125 Z " />
<glyph glyph-name="l" unicode="l" horiz-adv-x="260" d="M156 0 L214 0 L231 99 L193 99 C178 99 172 106 175 124 L280 722 L148 722 L43 123 C25 22 60 0 156 0 L156 0 Z " />
<glyph glyph-name="m" unicode="m" horiz-adv-x="774" d="M16 0 L148 0 L189 231 C200 292 223 318 274 318 C319 318 334 289 324 232 L283 0 L415 0 L456 231 C467 292 490 318 540 318 C584 318 599 289 589 232 L570 123 C552 22 587 0 683 0 L733 0 L750 99 L720 99 C705 99 699 106 702 124 L722 236 C743 356 692 435 598 435 C544 435 493 418 451 355 C433 405 393 435 339 435 C280 435 242 410 208 357 L223 426 L91 426 L16 0 Z " />
<glyph glyph-name="n" unicode="n" horiz-adv-x="525" d="M16 0 L148 0 L189 231 C200 292 227 318 280 318 C327 318 350 289 340 232 L321 123 C303 22 338 0 434 0 L484 0 L501 99 L471 99 C456 99 450 106 453 124 L473 236 C494 356 438 435 345 435 C284 435 241 405 207 349 L223 426 L91 426 L16 0 Z " />
<glyph glyph-name="o" unicode="o" horiz-adv-x="530" d="M260 -9 C392 -9 497 80 497 218 C497 346 398 435 272 435 C140 435 35 345 35 207 C35 82 134 -9 260 -9 L260 -9 Z M264 103 C207 103 171 143 171 205 C171 274 208 321 268 321 C325 321 361 281 361 219 C361 150 324 103 264 103 L264 103 Z " />
<glyph glyph-name="p" unicode="p" horiz-adv-x="536" d="M-21 -212 L111 -212 L161 74 C191 18 239 -9 304 -9 C411 -9 506 83 506 231 C506 356 430 435 334 435 C280 435 241 408 209 364 L223 426 L91 426 L-21 -212 Z M269 105 C214 105 182 144 182 204 C182 272 222 320 281 320 C335 320 368 284 368 224 C368 152 330 105 269 105 L269 105 Z " />
<glyph glyph-name="q" unicode="q" horiz-adv-x="539" d="M413 -212 L463 -212 L480 -113 L450 -113 C435 -113 429 -106 432 -88 L523 426 L391 426 L382 358 C353 413 301 435 240 435 C129 435 33 349 33 195 C33 70 110 -9 205 -9 C265 -9 299 19 326 57 L300 -89 C282 -190 317 -212 413 -212 L413 -212 Z M258 105 C204 105 171 141 171 201 C171 273 209 320 270 320 C325 320 357 281 357 221 C357 153 317 105 258 105 L258 105 Z " />
<glyph glyph-name="r" unicode="r" horiz-adv-x="379" d="M16 0 L148 0 L181 189 C198 287 238 311 296 311 C317 311 335 307 351 297 L401 418 C385 427 367 435 337 435 C291 435 248 417 206 344 L223 426 L91 426 L16 0 Z " />
<glyph glyph-name="s" unicode="s" horiz-adv-x="413" d="M186 -9 C305 -9 365 46 365 125 C365 206 317 234 245 265 C201 284 184 292 184 308 C184 324 200 334 223 334 C255 334 271 319 286 300 L372 372 C340 409 290 435 223 435 C131 435 63 387 63 298 C63 231 102 196 160 169 C223 140 240 138 240 120 C240 106 229 94 189 94 C146 94 119 109 95 143 L4 79 C37 27 99 -9 186 -9 L186 -9 Z " />
<glyph glyph-name="t" unicode="t" horiz-adv-x="362" d="M112 317 L84 160 C61 29 133 -9 217 -9 C276 -9 305 8 328 25 L286 118 C276 112 260 103 240 103 C219 103 207 113 215 156 L243 317 L346 317 L365 426 L262 426 L301 648 L170 648 L131 426 L69 426 L50 317 L112 317 Z " />
<glyph glyph-name="u" unicode="u" horiz-adv-x="507" d="M235 -9 C366 -9 431 55 452 174 L496 426 L364 426 L322 189 C312 130 293 104 243 104 C192 104 169 132 181 199 L221 426 L89 426 L51 210 C27 75 100 -9 235 -9 L235 -9 Z " />
<glyph glyph-name="v" unicode="v" horiz-adv-x="479" d="M220 -9 L233 -9 L509 426 L371 426 L301 302 C278 262 254 199 254 199 C254 199 244 261 229 302 L185 426 L47 426 L220 -9 Z " />
<glyph glyph-name="w" unicode="w" horiz-adv-x="675" d="M188 -11 L199 -11 L318 166 C338 195 356 244 356 244 C356 244 366 189 378 159 L446 -11 L457 -11 L705 426 L569 426 L505 304 C487 270 463 213 463 213 C463 213 452 269 437 304 L382 437 L372 437 L288 304 C266 269 242 213 242 213 C242 213 232 268 222 304 L186 426 L48 426 L188 -11 Z " />
<glyph glyph-name="x" unicode="x" horiz-adv-x="500" d="M-20 0 L129 0 L190 73 C213 100 237 157 237 157 C237 157 253 101 268 70 L301 0 L447 0 L325 234 L492 426 L342 426 L298 372 C280 350 260 300 260 300 C260 300 247 350 237 373 L214 426 L69 426 L174 223 L-20 0 Z " />
<glyph glyph-name="y" unicode="y" horiz-adv-x="479" d="M12 -212 L148 -212 L510 426 L373 426 L285 265 C264 227 245 160 245 160 C245 160 235 227 226 265 L188 426 L47 426 L160 45 L12 -212 Z " />
<glyph glyph-name="z" unicode="z" horiz-adv-x="437" d="M-1 0 L365 0 L384 108 L220 108 L444 415 L444 426 L82 426 L63 318 L223 318 L-1 11 L-1 0 Z " />
<glyph glyph-name="braceleft" unicode="&#x7b;" horiz-adv-x="406" d="M241 -128 L317 -128 L337 -17 L268 -17 C238 -17 235 -3 239 19 L264 161 C276 230 246 264 192 272 C249 279 289 296 302 373 L337 574 C341 599 351 611 377 611 L448 611 L467 722 L356 722 C279 722 223 688 204 583 L172 403 C161 342 146 332 107 332 L48 332 L28 221 L90 221 C126 221 137 208 129 160 L106 27 C86 -88 162 -128 241 -128 L241 -128 Z " />
<glyph glyph-name="bar" unicode="&#x7c;" horiz-adv-x="272" d="M13 -128 L140 -128 L290 722 L163 722 L13 -128 Z " />
<glyph glyph-name="braceright" unicode="&#x7d;" horiz-adv-x="406" d="M-33 -128 L78 -128 C155 -128 212 -93 230 11 L254 149 C265 210 281 220 320 220 L379 220 L399 331 L337 331 C301 331 288 344 297 392 L328 567 C348 682 272 722 193 722 L117 722 L97 611 L166 611 C196 611 199 597 195 575 L163 391 C151 322 181 288 235 280 C178 273 138 256 125 179 L97 20 C93 -5 83 -17 57 -17 L-14 -17 L-33 -128 Z " />
<glyph glyph-name="asciitilde" unicode="&#x7e;" horiz-adv-x="369" d="M115 207 C120 237 129 252 146 252 C160 252 170 241 191 227 C207 216 227 207 254 207 C310 207 358 253 368 347 L281 356 C276 326 268 311 250 311 C237 311 226 322 205 336 C189 347 170 356 142 356 C87 356 40 310 28 216 L115 207 Z " />
<glyph glyph-name="nbspace" unicode="&#xa0;" horiz-adv-x="178" d="" />
<glyph glyph-name="exclamdown" unicode="&#xa1;" horiz-adv-x="269" d="M205 520 C249 520 286 555 286 603 C286 652 249 686 205 686 C161 686 123 652 123 603 C123 555 161 520 205 520 L205 520 Z M24 0 L172 0 L235 449 L133 449 L24 0 Z " />
<glyph glyph-name="cent" unicode="&#xa2;" horiz-adv-x="455" d="M189 0 L169 -116 L234 -116 L253 -9 C255 -9 257 -9 259 -9 C331 -9 378 12 416 50 L340 135 C324 122 305 105 272 102 L310 315 C327 306 342 293 352 276 L450 350 C422 390 384 418 330 429 L350 541 L285 541 L266 435 C134 433 35 342 35 209 C35 103 96 26 189 0 L189 0 Z M246 322 L209 114 C182 132 169 166 169 209 C169 273 199 313 246 322 L246 322 Z " />
<glyph glyph-name="sterling" unicode="&#xa3;" horiz-adv-x="625" d="M196 276 C202 250 206 225 207 203 C185 213 160 219 131 219 C65 219 6 177 6 104 C6 42 60 -9 136 -9 C191 -9 237 11 270 44 C306 15 350 -9 414 -9 C494 -9 542 20 589 78 L506 156 C480 125 455 105 410 105 C375 105 347 117 320 132 C327 155 330 179 330 205 C330 229 328 253 326 276 L489 276 L506 369 L312 369 C308 401 304 433 304 463 C304 538 344 573 400 573 C450 573 478 550 505 498 L613 563 C572 643 507 688 402 688 C259 688 166 596 166 465 C166 432 170 400 176 369 L114 369 L97 276 L196 276 Z M195 115 C183 86 163 72 135 72 C109 72 96 88 96 106 C96 128 109 140 136 140 C158 140 176 130 195 115 L195 115 Z " />
<glyph glyph-name="currency" unicode="&#xa4;" horiz-adv-x="733" d="M130 360 C129 349 129 338 129 326 C129 320 129 313 129 307 L63 307 L47 216 L143 216 C179 80 286 -9 435 -9 C558 -9 632 34 694 109 L595 188 C562 145 509 110 440 110 C360 110 310 149 286 216 L502 216 L518 307 L269 307 C269 314 269 321 269 328 C269 339 269 349 270 360 L525 360 L543 451 L290 451 C320 527 381 569 460 569 C539 569 580 538 612 482 L721 545 C671 635 592 688 464 688 C315 688 190 599 146 451 L88 451 L70 360 L130 360 Z " />
<glyph glyph-name="yen" unicode="&#xa5;" horiz-adv-x="657" d="M426 261 L602 261 L618 354 L489 354 L712 680 L567 680 L420 455 C387 404 348 311 348 311 C348 311 335 402 320 455 L257 680 L113 680 L222 354 L89 354 L73 261 L253 261 L264 231 L258 200 L62 200 L46 107 L242 107 L223 0 L360 0 L379 107 L575 107 L591 200 L395 200 L399 221 L426 261 Z " />
<glyph glyph-name="brokenbar" unicode="&#xa6;" horiz-adv-x="244" d="M131 173 C176 173 214 208 214 258 C214 307 176 342 131 342 C86 342 48 307 48 258 C48 208 86 173 131 173 L131 173 Z " />
<glyph glyph-name="section" unicode="&#xa7;" horiz-adv-x="562" d="M163 405 C101 389 40 347 40 262 C40 199 66 155 144 108 L242 49 C287 21 303 7 303 -17 C303 -39 286 -61 232 -61 C176 -61 143 -30 118 7 L9 -65 C53 -134 127 -180 233 -180 C366 -180 443 -118 443 -16 C443 18 435 47 417 75 C481 97 533 135 533 212 C533 277 502 331 422 380 L316 445 C285 464 276 485 276 512 C276 542 299 570 335 570 C369 570 389 555 412 515 L521 582 C489 642 433 688 334 688 C216 688 136 606 136 505 C136 466 145 433 163 405 L163 405 Z M353 139 C342 148 329 156 315 165 L218 224 C182 246 173 260 173 290 C173 317 192 336 220 345 C228 340 235 335 243 330 L346 267 C382 245 401 225 401 194 C401 168 386 149 353 139 L353 139 Z " />
<glyph glyph-name="dieresis" unicode="&#xa8;" horiz-adv-x="490" d="M417 508 C455 508 489 541 489 582 C489 623 455 656 417 656 C380 656 344 623 344 582 C344 541 380 508 417 508 L417 508 Z M207 508 C245 508 280 541 280 582 C280 623 245 656 207 656 C170 656 135 623 135 582 C135 541 170 508 207 508 L207 508 Z " />
<glyph glyph-name="copyright" unicode="&#xa9;" horiz-adv-x="786" d="M417 -8 C605 -8 766 139 766 340 C766 541 605 688 417 688 C229 688 68 541 68 340 C68 139 229 -8 417 -8 L417 -8 Z M417 51 C259 51 130 174 130 340 C130 506 259 629 417 629 C575 629 704 506 704 340 C704 174 575 51 417 51 L417 51 Z M414 128 C494 128 549 161 588 214 L500 284 C483 262 461 241 420 241 C366 241 333 283 333 339 C333 400 366 442 421 442 C460 442 482 426 500 402 L594 473 C556 526 499 555 421 555 C302 555 205 465 205 337 C205 217 299 128 414 128 L414 128 Z " />
<glyph glyph-name="ordfeminine" unicode="&#xaa;" horiz-adv-x="491" d="M233 313 C283 313 310 334 336 375 L337 370 C343 341 354 320 435 320 L484 320 L499 410 L474 410 C461 410 455 416 458 432 L502 680 L384 680 L376 623 C352 669 312 688 263 688 C171 688 88 617 88 486 C88 380 155 313 233 313 L233 313 Z M278 412 C236 412 212 444 212 491 C212 549 242 587 289 587 C332 587 355 556 355 508 C355 454 324 412 278 412 L278 412 Z " />
<glyph glyph-name="guillemotleft" unicode="&#xab;" horiz-adv-x="500" d="M313 32 L442 32 L369 198 L497 373 L364 373 L241 204 L241 196 L313 32 Z M103 32 L232 32 L159 198 L287 373 L154 373 L31 204 L31 196 L103 32 Z " />
<glyph glyph-name="logicalnot" unicode="&#xac;" horiz-adv-x="244" d="M131 173 C176 173 214 208 214 258 C214 307 176 342 131 342 C86 342 48 307 48 258 C48 208 86 173 131 173 L131 173 Z " />
<glyph glyph-name="registered" unicode="&#xae;" horiz-adv-x="505" d="M298 253 C418 253 516 343 516 471 C516 599 418 689 298 689 C178 689 82 599 82 471 C82 343 178 253 298 253 L298 253 Z M298 300 C203 300 133 362 133 471 C133 580 203 642 298 642 C394 642 465 580 465 471 C465 362 394 300 298 300 L298 300 Z M356 429 C383 441 400 465 400 501 C400 541 372 581 313 581 L233 581 L195 364 L259 364 L269 419 C269 419 297 419 296 419 L317 364 L382 364 L356 429 Z M277 469 L287 526 L312 526 C325 526 336 519 336 498 C336 474 321 469 310 469 L277 469 Z " />
<glyph glyph-name="&amp;#xaf;" unicode="&#xaf;" horiz-adv-x="490" d="M184 539 L424 539 L441 635 L201 635 L184 539 Z " />
<glyph glyph-name="&amp;#x2c9;" unicode="&#x2c9;" horiz-adv-x="490" d="M184 539 L424 539 L441 635 L201 635 L184 539 Z " />
<glyph glyph-name="degree" unicode="&#xb0;" horiz-adv-x="363" d="M237 393 C322 393 393 459 393 546 C393 625 326 688 243 688 C160 688 88 625 88 539 C88 459 154 393 237 393 L237 393 Z M238 477 C205 477 182 503 182 538 C182 577 207 604 242 604 C275 604 299 579 299 543 C299 504 273 477 238 477 L238 477 Z " />
<glyph glyph-name="twosuperior" unicode="&#xb2;" horiz-adv-x="244" d="M131 173 C176 173 214 208 214 258 C214 307 176 342 131 342 C86 342 48 307 48 258 C48 208 86 173 131 173 L131 173 Z " />
<glyph glyph-name="threesuperior" unicode="&#xb3;" horiz-adv-x="244" d="M131 173 C176 173 214 208 214 258 C214 307 176 342 131 342 C86 342 48 307 48 258 C48 208 86 173 131 173 L131 173 Z " />
<glyph glyph-name="acute" unicode="&#xb4;" horiz-adv-x="490" d="M230 500 L332 500 L468 688 L310 688 L230 500 Z " />
<glyph glyph-name="&amp;#xb5;" unicode="&#xb5;" horiz-adv-x="244" d="M131 173 C176 173 214 208 214 258 C214 307 176 342 131 342 C86 342 48 307 48 258 C48 208 86 173 131 173 L131 173 Z " />
<glyph glyph-name="&amp;#x3bc;" unicode="&#x3bc;" horiz-adv-x="244" d="M131 173 C176 173 214 208 214 258 C214 307 176 342 131 342 C86 342 48 307 48 258 C48 208 86 173 131 173 L131 173 Z " />
<glyph glyph-name="paragraph" unicode="&#xb6;" horiz-adv-x="694" d="M306 243 L263 0 L393 0 L493 566 L558 566 L458 0 L588 0 L708 680 L329 680 C165 680 76 571 76 445 C76 333 155 243 298 243 L306 243 Z M326 357 L307 357 C260 357 220 385 220 452 C220 529 269 566 322 566 L363 566 L326 357 Z " />
<glyph glyph-name="&amp;#xb7;" unicode="&#xb7;" horiz-adv-x="244" d="M131 173 C176 173 214 208 214 258 C214 307 176 342 131 342 C86 342 48 307 48 258 C48 208 86 173 131 173 L131 173 Z " />
<glyph glyph-name="&amp;#x2219;" unicode="&#x2219;" horiz-adv-x="244" d="M131 173 C176 173 214 208 214 258 C214 307 176 342 131 342 C86 342 48 307 48 258 C48 208 86 173 131 173 L131 173 Z " />
<glyph glyph-name="cedilla" unicode="&#xb8;" horiz-adv-x="490" d="M200 -240 C257 -240 309 -203 309 -135 C309 -79 271 -47 234 -41 L241 0 L170 0 L153 -97 L188 -97 C217 -97 230 -112 230 -134 C230 -158 215 -170 192 -170 C167 -170 156 -156 148 -142 L83 -178 C101 -214 137 -240 200 -240 L200 -240 Z " />
<glyph glyph-name="onesuperior" unicode="&#xb9;" horiz-adv-x="244" d="M131 173 C176 173 214 208 214 258 C214 307 176 342 131 342 C86 342 48 307 48 258 C48 208 86 173 131 173 L131 173 Z " />
<glyph glyph-name="ordmasculine" unicode="&#xba;" horiz-adv-x="468" d="M277 309 C389 309 483 388 483 502 C483 607 403 688 295 688 C183 688 89 608 89 494 C89 389 169 309 277 309 L277 309 Z M281 410 C238 410 214 442 214 490 C214 546 242 586 291 586 C334 586 358 552 358 506 C358 450 327 410 281 410 L281 410 Z " />
<glyph glyph-name="guillemotright" unicode="&#xbb;" horiz-adv-x="500" d="M213 32 L346 32 L469 201 L469 209 L397 373 L268 373 L341 207 L213 32 Z M3 32 L136 32 L259 201 L259 209 L187 373 L58 373 L131 207 L3 32 Z " />
<glyph glyph-name="onequarter" unicode="&#xbc;" horiz-adv-x="244" d="M131 173 C176 173 214 208 214 258 C214 307 176 342 131 342 C86 342 48 307 48 258 C48 208 86 173 131 173 L131 173 Z " />
<glyph glyph-name="onehalf" unicode="&#xbd;" horiz-adv-x="244" d="M131 173 C176 173 214 208 214 258 C214 307 176 342 131 342 C86 342 48 307 48 258 C48 208 86 173 131 173 L131 173 Z " />
<glyph glyph-name="threequarters" unicode="&#xbe;" horiz-adv-x="244" d="M131 173 C176 173 214 208 214 258 C214 307 176 342 131 342 C86 342 48 307 48 258 C48 208 86 173 131 173 L131 173 Z " />
<glyph glyph-name="questiondown" unicode="&#xbf;" horiz-adv-x="503" d="M313 522 C357 522 394 557 394 605 C394 654 357 688 313 688 C269 688 231 654 231 605 C231 557 269 522 313 522 L313 522 Z M249 -6 C344 -6 421 48 456 116 L354 176 C329 137 298 111 251 111 C200 111 171 146 171 194 C171 248 205 292 287 292 L322 292 L350 451 L227 451 L216 389 C118 376 38 305 38 195 C38 85 110 -6 249 -6 L249 -6 Z " />
<glyph glyph-name="Agrave" unicode="&#xc0;" horiz-adv-x="651" d="M351 748 L451 748 L412 936 L260 936 L351 748 Z M169 79 L435 79 L455 0 L594 0 L410 686 L399 686 L-15 0 L122 0 L169 79 Z M407 188 L234 188 L307 312 C339 366 359 423 359 423 C359 423 362 365 376 311 L407 188 Z " />
<glyph glyph-name="Aacute" unicode="&#xc1;" horiz-adv-x="651" d="M358 748 L460 748 L596 936 L438 936 L358 748 Z M169 79 L435 79 L455 0 L594 0 L410 686 L399 686 L-15 0 L122 0 L169 79 Z M407 188 L234 188 L307 312 C339 366 359 423 359 423 C359 423 362 365 376 311 L407 188 Z " />
<glyph glyph-name="Acircumflex" unicode="&#xc2;" horiz-adv-x="651" d="M234 748 L343 748 L410 820 L453 748 L555 748 L438 964 L427 964 L234 748 Z M169 79 L435 79 L455 0 L594 0 L410 686 L399 686 L-15 0 L122 0 L169 79 Z M407 188 L234 188 L307 312 C339 366 359 423 359 423 C359 423 362 365 376 311 L407 188 Z " />
<glyph glyph-name="Atilde" unicode="&#xc3;" horiz-adv-x="651" d="M322 748 C327 778 336 793 353 793 C367 793 377 782 398 768 C414 757 434 748 461 748 C517 748 565 794 575 888 L488 897 C483 867 475 852 457 852 C444 852 433 863 412 877 C396 888 377 897 349 897 C294 897 247 851 235 757 L322 748 Z M169 79 L435 79 L455 0 L594 0 L410 686 L399 686 L-15 0 L122 0 L169 79 Z M407 188 L234 188 L307 312 C339 366 359 423 359 423 C359 423 362 365 376 311 L407 188 Z " />
<glyph glyph-name="Adieresis" unicode="&#xc4;" horiz-adv-x="651" d="M522 756 C560 756 594 789 594 830 C594 871 560 904 522 904 C485 904 449 871 449 830 C449 789 485 756 522 756 L522 756 Z M312 756 C350 756 385 789 385 830 C385 871 350 904 312 904 C275 904 240 871 240 830 C240 789 275 756 312 756 L312 756 Z M169 79 L435 79 L455 0 L594 0 L410 686 L399 686 L-15 0 L122 0 L169 79 Z M407 188 L234 188 L307 312 C339 366 359 423 359 423 C359 423 362 365 376 311 L407 188 Z " />
<glyph glyph-name="Aring" unicode="&#xc5;" horiz-adv-x="651" d="M415 722 C486 722 540 777 540 841 C540 906 486 960 415 960 C344 960 290 906 290 841 C290 777 344 722 415 722 L415 722 Z M169 79 L435 79 L455 0 L594 0 L410 686 L399 686 L-15 0 L122 0 L169 79 Z M415 795 C392 795 373 812 373 841 C373 870 392 887 415 887 C438 887 457 870 457 841 C457 812 438 795 415 795 L415 795 Z M407 188 L234 188 L307 312 C339 366 359 423 359 423 C359 423 362 365 376 311 L407 188 Z " />
<glyph glyph-name="AE" unicode="&#xc6;" horiz-adv-x="967" d="M196 77 L437 77 L423 0 L878 0 L900 120 L581 120 L599 222 L866 222 L887 340 L620 340 L659 560 L964 560 L985 680 L557 680 L-20 0 L132 0 L196 77 Z M457 190 L290 190 L454 388 C480 420 521 490 521 490 C521 490 497 420 490 379 L457 190 Z " />
<glyph glyph-name="Ccedilla" unicode="&#xc7;" horiz-adv-x="707" d="M330 -3 L314 -97 L349 -97 C378 -97 391 -112 391 -134 C391 -158 376 -170 353 -170 C328 -170 317 -156 309 -142 L244 -178 C262 -214 298 -240 361 -240 C418 -240 470 -203 470 -135 C470 -79 432 -47 395 -41 L400 -9 C529 -7 608 41 668 112 L565 191 C529 146 476 113 398 113 C293 113 211 200 211 325 C211 458 297 566 423 566 C503 566 553 528 586 475 L698 548 C635 641 560 688 427 688 C234 688 68 536 68 326 C68 160 176 25 330 -3 L330 -3 Z " />
<glyph glyph-name="Egrave" unicode="&#xc8;" horiz-adv-x="576" d="M328 748 L428 748 L389 936 L237 936 L328 748 Z M32 0 L486 0 L508 120 L189 120 L207 222 L474 222 L495 340 L228 340 L267 560 L572 560 L593 680 L152 680 L32 0 Z " />
<glyph glyph-name="Eacute" unicode="&#xc9;" horiz-adv-x="576" d="M326 748 L428 748 L564 936 L406 936 L326 748 Z M32 0 L486 0 L508 120 L189 120 L207 222 L474 222 L495 340 L228 340 L267 560 L572 560 L593 680 L152 680 L32 0 Z " />
<glyph glyph-name="Ecircumflex" unicode="&#xca;" horiz-adv-x="576" d="M221 748 L330 748 L397 820 L440 748 L542 748 L425 964 L414 964 L221 748 Z M32 0 L486 0 L508 120 L189 120 L207 222 L474 222 L495 340 L228 340 L267 560 L572 560 L593 680 L152 680 L32 0 Z " />
<glyph glyph-name="Edieresis" unicode="&#xcb;" horiz-adv-x="576" d="M490 756 C528 756 562 789 562 830 C562 871 528 904 490 904 C453 904 417 871 417 830 C417 789 453 756 490 756 L490 756 Z M280 756 C318 756 353 789 353 830 C353 871 318 904 280 904 C243 904 208 871 208 830 C208 789 243 756 280 756 L280 756 Z M32 0 L486 0 L508 120 L189 120 L207 222 L474 222 L495 340 L228 340 L267 560 L572 560 L593 680 L152 680 L32 0 Z " />
<glyph glyph-name="Igrave" unicode="&#xcc;" horiz-adv-x="281" d="M192 748 L292 748 L253 936 L101 936 L192 748 Z M36 0 L173 0 L293 680 L156 680 L36 0 Z " />
<glyph glyph-name="Iacute" unicode="&#xcd;" horiz-adv-x="281" d="M170 748 L272 748 L408 936 L250 936 L170 748 Z M36 0 L173 0 L293 680 L156 680 L36 0 Z " />
<glyph glyph-name="Icircumflex" unicode="&#xce;" horiz-adv-x="281" d="M71 748 L180 748 L247 820 L290 748 L392 748 L275 964 L264 964 L71 748 Z M36 0 L173 0 L293 680 L156 680 L36 0 Z " />
<glyph glyph-name="Idieresis" unicode="&#xcf;" horiz-adv-x="281" d="M355 756 C393 756 427 789 427 830 C427 871 393 904 355 904 C318 904 282 871 282 830 C282 789 318 756 355 756 L355 756 Z M145 756 C183 756 218 789 218 830 C218 871 183 904 145 904 C108 904 73 871 73 830 C73 789 108 756 145 756 L145 756 Z M36 0 L173 0 L293 680 L156 680 L36 0 Z " />
<glyph glyph-name="Eth" unicode="&#xd0;" horiz-adv-x="667" d="M74 240 L32 0 L264 0 C489 0 649 136 649 366 C649 556 531 680 330 680 L152 680 L95 359 L39 359 L18 240 L74 240 Z M232 359 L268 560 L313 560 C447 560 507 486 507 372 C507 228 429 120 267 120 L190 120 L211 240 L361 240 L382 359 L232 359 Z " />
<glyph glyph-name="Ntilde" unicode="&#xd1;" horiz-adv-x="683" d="M346 748 C351 778 360 793 377 793 C391 793 401 782 422 768 C438 757 458 748 485 748 C541 748 589 794 599 888 L512 897 C507 867 499 852 481 852 C468 852 457 863 436 877 C420 888 401 897 373 897 C318 897 271 851 259 757 L346 748 Z M565 -6 L578 -6 L699 680 L571 680 L518 381 C509 328 506 256 506 256 C506 256 474 317 443 354 L166 686 L153 686 L32 0 L160 0 L213 298 C222 346 226 423 226 423 C226 423 258 363 289 325 L565 -6 Z " />
<glyph glyph-name="Ograve" unicode="&#xd2;" horiz-adv-x="780" d="M395 748 L495 748 L456 936 L304 936 L395 748 Z M398 -9 C593 -9 760 130 760 351 C760 548 616 688 429 688 C234 688 68 549 68 328 C68 131 211 -9 398 -9 L398 -9 Z M403 113 C289 113 209 196 209 325 C209 471 294 566 425 566 C539 566 619 483 619 354 C619 208 534 113 403 113 L403 113 Z " />
<glyph glyph-name="Oacute" unicode="&#xd3;" horiz-adv-x="780" d="M393 748 L495 748 L631 936 L473 936 L393 748 Z M398 -9 C593 -9 760 130 760 351 C760 548 616 688 429 688 C234 688 68 549 68 328 C68 131 211 -9 398 -9 L398 -9 Z M403 113 C289 113 209 196 209 325 C209 471 294 566 425 566 C539 566 619 483 619 354 C619 208 534 113 403 113 L403 113 Z " />
<glyph glyph-name="Ocircumflex" unicode="&#xd4;" horiz-adv-x="780" d="M291 748 L400 748 L467 820 L510 748 L612 748 L495 964 L484 964 L291 748 Z M398 -9 C593 -9 760 130 760 351 C760 548 616 688 429 688 C234 688 68 549 68 328 C68 131 211 -9 398 -9 L398 -9 Z M403 113 C289 113 209 196 209 325 C209 471 294 566 425 566 C539 566 619 483 619 354 C619 208 534 113 403 113 L403 113 Z " />
<glyph glyph-name="Otilde" unicode="&#xd5;" horiz-adv-x="780" d="M377 748 C382 778 391 793 408 793 C422 793 432 782 453 768 C469 757 489 748 516 748 C572 748 620 794 630 888 L543 897 C538 867 530 852 512 852 C499 852 488 863 467 877 C451 888 432 897 404 897 C349 897 302 851 290 757 L377 748 Z M398 -9 C593 -9 760 130 760 351 C760 548 616 688 429 688 C234 688 68 549 68 328 C68 131 211 -9 398 -9 L398 -9 Z M403 113 C289 113 209 196 209 325 C209 471 294 566 425 566 C539 566 619 483 619 354 C619 208 534 113 403 113 L403 113 Z " />
<glyph glyph-name="Odieresis" unicode="&#xd6;" horiz-adv-x="780" d="M567 756 C605 756 639 789 639 830 C639 871 605 904 567 904 C530 904 494 871 494 830 C494 789 530 756 567 756 L567 756 Z M357 756 C395 756 430 789 430 830 C430 871 395 904 357 904 C320 904 285 871 285 830 C285 789 320 756 357 756 L357 756 Z M398 -9 C593 -9 760 130 760 351 C760 548 616 688 429 688 C234 688 68 549 68 328 C68 131 211 -9 398 -9 L398 -9 Z M403 113 C289 113 209 196 209 325 C209 471 294 566 425 566 C539 566 619 483 619 354 C619 208 534 113 403 113 L403 113 Z " />
<glyph glyph-name="multiply" unicode="&#xd7;" horiz-adv-x="244" d="M131 173 C176 173 214 208 214 258 C214 307 176 342 131 342 C86 342 48 307 48 258 C48 208 86 173 131 173 L131 173 Z " />
<glyph glyph-name="Oslash" unicode="&#xd8;" horiz-adv-x="780" d="M709 538 L790 612 L718 689 L638 616 C581 662 508 688 424 688 C234 688 68 549 68 328 C68 257 86 194 119 141 L38 67 L109 -10 L189 63 C245 17 319 -9 403 -9 C593 -9 760 130 760 351 C760 421 741 485 709 538 L709 538 Z M223 237 C214 263 209 292 209 325 C209 471 297 566 422 566 C470 566 511 553 542 529 L223 237 Z M605 443 C614 416 619 387 619 354 C619 208 532 113 406 113 C358 113 317 126 285 151 L605 443 Z " />
<glyph glyph-name="Ugrave" unicode="&#xd9;" horiz-adv-x="669" d="M367 748 L467 748 L428 936 L276 936 L367 748 Z M323 -9 C476 -9 579 68 607 224 L688 680 L550 680 L473 246 C457 157 415 113 330 113 C238 113 196 164 213 260 L287 680 L149 680 L77 270 C47 101 160 -9 323 -9 L323 -9 Z " />
<glyph glyph-name="Uacute" unicode="&#xda;" horiz-adv-x="669" d="M367 748 L469 748 L605 936 L447 936 L367 748 Z M323 -9 C476 -9 579 68 607 224 L688 680 L550 680 L473 246 C457 157 415 113 330 113 C238 113 196 164 213 260 L287 680 L149 680 L77 270 C47 101 160 -9 323 -9 L323 -9 Z " />
<glyph glyph-name="Ucircumflex" unicode="&#xdb;" horiz-adv-x="669" d="M263 748 L372 748 L439 820 L482 748 L584 748 L467 964 L456 964 L263 748 Z M323 -9 C476 -9 579 68 607 224 L688 680 L550 680 L473 246 C457 157 415 113 330 113 C238 113 196 164 213 260 L287 680 L149 680 L77 270 C47 101 160 -9 323 -9 L323 -9 Z " />
<glyph glyph-name="Udieresis" unicode="&#xdc;" horiz-adv-x="669" d="M537 756 C575 756 609 789 609 830 C609 871 575 904 537 904 C500 904 464 871 464 830 C464 789 500 756 537 756 L537 756 Z M327 756 C365 756 400 789 400 830 C400 871 365 904 327 904 C290 904 255 871 255 830 C255 789 290 756 327 756 L327 756 Z M323 -9 C476 -9 579 68 607 224 L688 680 L550 680 L473 246 C457 157 415 113 330 113 C238 113 196 164 213 260 L287 680 L149 680 L77 270 C47 101 160 -9 323 -9 L323 -9 Z " />
<glyph glyph-name="Yacute" unicode="&#xdd;" horiz-adv-x="664" d="M368 748 L470 748 L606 936 L448 936 L368 748 Z M272 217 L234 0 L371 0 L410 223 L730 680 L581 680 L429 461 C394 411 357 326 357 326 C357 326 343 409 325 461 L247 680 L102 680 L272 217 Z " />
<glyph glyph-name="Thorn" unicode="&#xde;" horiz-adv-x="583" d="M276 607 L289 680 L152 680 L32 0 L169 0 L183 82 L256 82 C451 82 575 179 575 362 C575 508 472 607 300 607 L276 607 Z M204 201 L255 488 L291 488 C390 488 434 441 434 362 C434 253 381 201 260 201 L204 201 Z " />
<glyph glyph-name="germandbls" unicode="&#xdf;" horiz-adv-x="606" d="M-85 -212 L-13 -212 C76 -212 116 -201 134 -97 L246 539 C257 599 274 627 321 627 C356 627 378 605 378 573 C378 557 375 534 363 513 L306 409 C285 371 274 336 274 304 C274 252 303 217 372 178 C408 158 431 145 431 127 C431 109 418 94 383 94 C346 94 320 111 299 137 L216 67 C241 32 295 -9 387 -9 C509 -9 560 56 560 135 C560 211 513 247 451 284 C417 304 405 316 405 336 C405 349 410 361 420 379 L476 481 C496 517 503 545 503 580 C503 688 409 735 322 735 C218 735 141 684 116 545 L4 -88 C0 -109 -8 -113 -23 -113 L-66 -113 L-85 -212 Z " />
<glyph glyph-name="agrave" unicode="&#xe0;" horiz-adv-x="532" d="M248 500 L348 500 L309 688 L157 688 L248 500 Z M200 -9 C259 -9 291 15 324 64 L325 59 C332 25 345 0 441 0 L491 0 L508 99 L478 99 C463 99 457 106 460 124 L513 426 L381 426 L372 358 C343 413 293 435 235 435 C127 435 33 349 33 195 C33 70 108 -9 200 -9 L200 -9 Z M253 105 C201 105 171 141 171 201 C171 273 207 320 265 320 C318 320 347 281 347 221 C347 153 309 105 253 105 L253 105 Z " />
<glyph glyph-name="aacute" unicode="&#xe1;" horiz-adv-x="532" d="M241 500 L343 500 L479 688 L321 688 L241 500 Z M200 -9 C259 -9 291 15 324 64 L325 59 C332 25 345 0 441 0 L491 0 L508 99 L478 99 C463 99 457 106 460 124 L513 426 L381 426 L372 358 C343 413 293 435 235 435 C127 435 33 349 33 195 C33 70 108 -9 200 -9 L200 -9 Z M253 105 C201 105 171 141 171 201 C171 273 207 320 265 320 C318 320 347 281 347 221 C347 153 309 105 253 105 L253 105 Z " />
<glyph glyph-name="acircumflex" unicode="&#xe2;" horiz-adv-x="532" d="M149 500 L258 500 L325 572 L368 500 L470 500 L353 716 L342 716 L149 500 Z M200 -9 C259 -9 291 15 324 64 L325 59 C332 25 345 0 441 0 L491 0 L508 99 L478 99 C463 99 457 106 460 124 L513 426 L381 426 L372 358 C343 413 293 435 235 435 C127 435 33 349 33 195 C33 70 108 -9 200 -9 L200 -9 Z M253 105 C201 105 171 141 171 201 C171 273 207 320 265 320 C318 320 347 281 347 221 C347 153 309 105 253 105 L253 105 Z " />
<glyph glyph-name="atilde" unicode="&#xe3;" horiz-adv-x="532" d="M243 500 C248 530 257 545 274 545 C288 545 298 534 319 520 C335 509 355 500 382 500 C438 500 486 546 496 640 L409 649 C404 619 396 604 378 604 C365 604 354 615 333 629 C317 640 298 649 270 649 C215 649 168 603 156 509 L243 500 Z M200 -9 C259 -9 291 15 324 64 L325 59 C332 25 345 0 441 0 L491 0 L508 99 L478 99 C463 99 457 106 460 124 L513 426 L381 426 L372 358 C343 413 293 435 235 435 C127 435 33 349 33 195 C33 70 108 -9 200 -9 L200 -9 Z M253 105 C201 105 171 141 171 201 C171 273 207 320 265 320 C318 320 347 281 347 221 C347 153 309 105 253 105 L253 105 Z " />
<glyph glyph-name="adieresis" unicode="&#xe4;" horiz-adv-x="532" d="M436 508 C474 508 508 541 508 582 C508 623 474 656 436 656 C399 656 363 623 363 582 C363 541 399 508 436 508 L436 508 Z M226 508 C264 508 299 541 299 582 C299 623 264 656 226 656 C189 656 154 623 154 582 C154 541 189 508 226 508 L226 508 Z M200 -9 C259 -9 291 15 324 64 L325 59 C332 25 345 0 441 0 L491 0 L508 99 L478 99 C463 99 457 106 460 124 L513 426 L381 426 L372 358 C343 413 293 435 235 435 C127 435 33 349 33 195 C33 70 108 -9 200 -9 L200 -9 Z M253 105 C201 105 171 141 171 201 C171 273 207 320 265 320 C318 320 347 281 347 221 C347 153 309 105 253 105 L253 105 Z " />
<glyph glyph-name="aring" unicode="&#xe5;" horiz-adv-x="532" d="M322 474 C393 474 447 529 447 593 C447 658 393 712 322 712 C251 712 197 658 197 593 C197 529 251 474 322 474 L322 474 Z M200 -9 C259 -9 291 15 324 64 L325 59 C332 25 345 0 441 0 L491 0 L508 99 L478 99 C463 99 457 106 460 124 L513 426 L381 426 L372 358 C343 413 293 435 235 435 C127 435 33 349 33 195 C33 70 108 -9 200 -9 L200 -9 Z M322 547 C299 547 280 564 280 593 C280 622 299 639 322 639 C345 639 364 622 364 593 C364 564 345 547 322 547 L322 547 Z M253 105 C201 105 171 141 171 201 C171 273 207 320 265 320 C318 320 347 281 347 221 C347 153 309 105 253 105 L253 105 Z " />
<glyph glyph-name="ae" unicode="&#xe6;" horiz-adv-x="789" d="M383 373 C354 414 303 435 242 435 C159 435 103 409 68 378 L138 296 C159 314 195 330 236 330 C291 330 309 296 305 249 L199 249 C91 249 15 217 15 118 C15 34 89 -9 190 -9 C278 -9 330 20 362 73 C397 23 456 -9 537 -9 C618 -9 671 12 719 49 L642 135 C619 118 589 98 538 98 C476 98 442 127 433 174 L749 174 C768 322 692 435 540 435 C475 435 421 413 383 373 L383 373 Z M435 249 C447 303 483 330 536 330 C590 330 622 298 621 249 L435 249 Z M292 174 L288 149 C282 112 253 93 205 93 C162 93 147 111 147 134 C147 159 163 174 197 174 L292 174 Z " />
<glyph glyph-name="ccedilla" unicode="&#xe7;" horiz-adv-x="455" d="M180 2 L163 -97 L198 -97 C227 -97 240 -112 240 -134 C240 -158 225 -170 202 -170 C177 -170 166 -156 158 -142 L93 -178 C111 -214 147 -240 210 -240 C267 -240 319 -203 319 -135 C319 -79 281 -47 244 -41 L249 -9 C253 -9 256 -9 259 -9 C331 -9 381 15 416 50 L340 137 C322 122 299 105 259 105 C200 105 172 146 172 209 C172 273 210 320 269 320 C305 320 334 303 352 274 L449 350 C414 399 356 435 270 435 C136 435 35 343 35 209 C35 104 93 30 180 2 L180 2 Z " />
<glyph glyph-name="egrave" unicode="&#xe8;" horiz-adv-x="515" d="M234 500 L334 500 L295 688 L143 688 L234 500 Z M171 174 L487 174 C506 322 430 435 278 435 C148 435 37 347 37 207 C37 80 127 -9 275 -9 C356 -9 409 12 457 49 L380 135 C357 118 327 98 276 98 C214 98 180 127 171 174 L171 174 Z M173 249 C185 303 221 330 274 330 C328 330 360 298 359 249 L173 249 Z " />
<glyph glyph-name="eacute" unicode="&#xe9;" horiz-adv-x="515" d="M243 500 L345 500 L481 688 L323 688 L243 500 Z M171 174 L487 174 C506 322 430 435 278 435 C148 435 37 347 37 207 C37 80 127 -9 275 -9 C356 -9 409 12 457 49 L380 135 C357 118 327 98 276 98 C214 98 180 127 171 174 L171 174 Z M173 249 C185 303 221 330 274 330 C328 330 360 298 359 249 L173 249 Z " />
<glyph glyph-name="ecircumflex" unicode="&#xea;" horiz-adv-x="515" d="M131 500 L240 500 L307 572 L350 500 L452 500 L335 716 L324 716 L131 500 Z M171 174 L487 174 C506 322 430 435 278 435 C148 435 37 347 37 207 C37 80 127 -9 275 -9 C356 -9 409 12 457 49 L380 135 C357 118 327 98 276 98 C214 98 180 127 171 174 L171 174 Z M173 249 C185 303 221 330 274 330 C328 330 360 298 359 249 L173 249 Z " />
<glyph glyph-name="edieresis" unicode="&#xeb;" horiz-adv-x="515" d="M421 508 C459 508 493 541 493 582 C493 623 459 656 421 656 C384 656 348 623 348 582 C348 541 384 508 421 508 L421 508 Z M211 508 C249 508 284 541 284 582 C284 623 249 656 211 656 C174 656 139 623 139 582 C139 541 174 508 211 508 L211 508 Z M171 174 L487 174 C506 322 430 435 278 435 C148 435 37 347 37 207 C37 80 127 -9 275 -9 C356 -9 409 12 457 49 L380 135 C357 118 327 98 276 98 C214 98 180 127 171 174 L171 174 Z M173 249 C185 303 221 330 274 330 C328 330 360 298 359 249 L173 249 Z " />
<glyph glyph-name="igrave" unicode="&#xec;" horiz-adv-x="260" d="M136 500 L236 500 L197 688 L45 688 L136 500 Z M156 0 L206 0 L223 99 L193 99 C178 99 172 106 175 124 L228 426 L96 426 L43 123 C25 22 60 0 156 0 L156 0 Z " />
<glyph glyph-name="iacute" unicode="&#xed;" horiz-adv-x="260" d="M114 500 L216 500 L352 688 L194 688 L114 500 Z M156 0 L206 0 L223 99 L193 99 C178 99 172 106 175 124 L228 426 L96 426 L43 123 C25 22 60 0 156 0 L156 0 Z " />
<glyph glyph-name="icircumflex" unicode="&#xee;" horiz-adv-x="260" d="M16 500 L125 500 L192 572 L235 500 L337 500 L220 716 L209 716 L16 500 Z M156 0 L206 0 L223 99 L193 99 C178 99 172 106 175 124 L228 426 L96 426 L43 123 C25 22 60 0 156 0 L156 0 Z " />
<glyph glyph-name="idieresis" unicode="&#xef;" horiz-adv-x="260" d="M299 508 C337 508 371 541 371 582 C371 623 337 656 299 656 C262 656 226 623 226 582 C226 541 262 508 299 508 L299 508 Z M89 508 C127 508 162 541 162 582 C162 623 127 656 89 656 C52 656 17 623 17 582 C17 541 52 508 89 508 L89 508 Z M156 0 L206 0 L223 99 L193 99 C178 99 172 106 175 124 L228 426 L96 426 L43 123 C25 22 60 0 156 0 L156 0 Z " />
<glyph glyph-name="eth" unicode="&#xf0;" horiz-adv-x="526" d="M300 526 C322 488 340 447 351 400 C327 422 295 435 244 435 C147 435 37 354 37 214 C37 81 135 -9 260 -9 C409 -9 501 89 501 261 C501 404 459 515 399 604 L465 656 L415 721 L349 669 C327 694 304 717 281 738 L198 664 C217 641 236 618 254 594 L191 544 L240 479 L300 526 Z M264 102 C207 102 173 145 173 210 C173 278 210 324 273 324 C328 324 363 283 363 222 C363 153 327 102 264 102 L264 102 Z " />
<glyph glyph-name="ntilde" unicode="&#xf1;" horiz-adv-x="525" d="M224 500 C229 530 238 545 255 545 C269 545 279 534 300 520 C316 509 336 500 363 500 C419 500 467 546 477 640 L390 649 C385 619 377 604 359 604 C346 604 335 615 314 629 C298 640 279 649 251 649 C196 649 149 603 137 509 L224 500 Z M16 0 L148 0 L189 231 C200 292 227 318 280 318 C327 318 350 289 340 232 L321 123 C303 22 338 0 434 0 L484 0 L501 99 L471 99 C456 99 450 106 453 124 L473 236 C494 356 438 435 345 435 C284 435 241 405 207 349 L223 426 L91 426 L16 0 Z " />
<glyph glyph-name="ograve" unicode="&#xf2;" horiz-adv-x="530" d="M251 500 L351 500 L312 688 L160 688 L251 500 Z M260 -9 C392 -9 497 80 497 218 C497 346 398 435 272 435 C140 435 35 345 35 207 C35 82 134 -9 260 -9 L260 -9 Z M264 103 C207 103 171 143 171 205 C171 274 208 321 268 321 C325 321 361 281 361 219 C361 150 324 103 264 103 L264 103 Z " />
<glyph glyph-name="oacute" unicode="&#xf3;" horiz-adv-x="530" d="M236 500 L338 500 L474 688 L316 688 L236 500 Z M260 -9 C392 -9 497 80 497 218 C497 346 398 435 272 435 C140 435 35 345 35 207 C35 82 134 -9 260 -9 L260 -9 Z M264 103 C207 103 171 143 171 205 C171 274 208 321 268 321 C325 321 361 281 361 219 C361 150 324 103 264 103 L264 103 Z " />
<glyph glyph-name="ocircumflex" unicode="&#xf4;" horiz-adv-x="530" d="M142 500 L251 500 L318 572 L361 500 L463 500 L346 716 L335 716 L142 500 Z M260 -9 C392 -9 497 80 497 218 C497 346 398 435 272 435 C140 435 35 345 35 207 C35 82 134 -9 260 -9 L260 -9 Z M264 103 C207 103 171 143 171 205 C171 274 208 321 268 321 C325 321 361 281 361 219 C361 150 324 103 264 103 L264 103 Z " />
<glyph glyph-name="otilde" unicode="&#xf5;" horiz-adv-x="530" d="M218 500 C223 530 232 545 249 545 C263 545 273 534 294 520 C310 509 330 500 357 500 C413 500 461 546 471 640 L384 649 C379 619 371 604 353 604 C340 604 329 615 308 629 C292 640 273 649 245 649 C190 649 143 603 131 509 L218 500 Z M260 -9 C392 -9 497 80 497 218 C497 346 398 435 272 435 C140 435 35 345 35 207 C35 82 134 -9 260 -9 L260 -9 Z M264 103 C207 103 171 143 171 205 C171 274 208 321 268 321 C325 321 361 281 361 219 C361 150 324 103 264 103 L264 103 Z " />
<glyph glyph-name="odieresis" unicode="&#xf6;" horiz-adv-x="530" d="M424 508 C462 508 496 541 496 582 C496 623 462 656 424 656 C387 656 351 623 351 582 C351 541 387 508 424 508 L424 508 Z M214 508 C252 508 287 541 287 582 C287 623 252 656 214 656 C177 656 142 623 142 582 C142 541 177 508 214 508 L214 508 Z M260 -9 C392 -9 497 80 497 218 C497 346 398 435 272 435 C140 435 35 345 35 207 C35 82 134 -9 260 -9 L260 -9 Z M264 103 C207 103 171 143 171 205 C171 274 208 321 268 321 C325 321 361 281 361 219 C361 150 324 103 264 103 L264 103 Z " />
<glyph glyph-name="divide" unicode="&#xf7;" horiz-adv-x="244" d="M131 173 C176 173 214 208 214 258 C214 307 176 342 131 342 C86 342 48 307 48 258 C48 208 86 173 131 173 L131 173 Z " />
<glyph glyph-name="oslash" unicode="&#xf8;" horiz-adv-x="530" d="M469 327 L530 377 L484 440 L418 386 C379 417 328 435 272 435 C140 435 35 345 35 207 C35 167 45 130 63 99 L0 49 L48 -14 L114 40 C153 9 204 -9 260 -9 C392 -9 497 80 497 218 C497 259 487 296 469 327 L469 327 Z M166 183 C165 190 164 197 164 205 C164 278 204 329 268 329 C291 329 310 323 326 312 L166 183 Z M366 244 C367 236 368 228 368 219 C368 146 328 95 264 95 C241 95 220 101 204 113 L366 244 Z " />
<glyph glyph-name="ugrave" unicode="&#xf9;" horiz-adv-x="507" d="M231 500 L331 500 L292 688 L140 688 L231 500 Z M235 -9 C366 -9 431 55 452 174 L496 426 L364 426 L322 189 C312 130 293 104 243 104 C192 104 169 132 181 199 L221 426 L89 426 L51 210 C27 75 100 -9 235 -9 L235 -9 Z " />
<glyph glyph-name="uacute" unicode="&#xfa;" horiz-adv-x="507" d="M236 500 L338 500 L474 688 L316 688 L236 500 Z M235 -9 C366 -9 431 55 452 174 L496 426 L364 426 L322 189 C312 130 293 104 243 104 C192 104 169 132 181 199 L221 426 L89 426 L51 210 C27 75 100 -9 235 -9 L235 -9 Z " />
<glyph glyph-name="ucircumflex" unicode="&#xfb;" horiz-adv-x="507" d="M122 500 L231 500 L298 572 L341 500 L443 500 L326 716 L315 716 L122 500 Z M235 -9 C366 -9 431 55 452 174 L496 426 L364 426 L322 189 C312 130 293 104 243 104 C192 104 169 132 181 199 L221 426 L89 426 L51 210 C27 75 100 -9 235 -9 L235 -9 Z " />
<glyph glyph-name="udieresis" unicode="&#xfc;" horiz-adv-x="507" d="M400 508 C438 508 472 541 472 582 C472 623 438 656 400 656 C363 656 327 623 327 582 C327 541 363 508 400 508 L400 508 Z M190 508 C228 508 263 541 263 582 C263 623 228 656 190 656 C153 656 118 623 118 582 C118 541 153 508 190 508 L190 508 Z M235 -9 C366 -9 431 55 452 174 L496 426 L364 426 L322 189 C312 130 293 104 243 104 C192 104 169 132 181 199 L221 426 L89 426 L51 210 C27 75 100 -9 235 -9 L235 -9 Z " />
<glyph glyph-name="yacute" unicode="&#xfd;" horiz-adv-x="479" d="M237 500 L339 500 L475 688 L317 688 L237 500 Z M12 -212 L148 -212 L510 426 L373 426 L285 265 C264 227 245 160 245 160 C245 160 235 227 226 265 L188 426 L47 426 L160 45 L12 -212 Z " />
<glyph glyph-name="thorn" unicode="&#xfe;" horiz-adv-x="536" d="M-21 -212 L111 -212 L161 74 C191 18 239 -9 304 -9 C411 -9 506 83 506 231 C506 356 430 435 334 435 C274 435 239 408 212 364 L275 722 L143 722 L-21 -212 Z M269 105 C214 105 182 144 182 204 C182 272 222 320 281 320 C335 320 368 284 368 224 C368 152 330 105 269 105 L269 105 Z " />
<glyph glyph-name="ydieresis" unicode="&#xff;" horiz-adv-x="479" d="M399 508 C437 508 471 541 471 582 C471 623 437 656 399 656 C362 656 326 623 326 582 C326 541 362 508 399 508 L399 508 Z M189 508 C227 508 262 541 262 582 C262 623 227 656 189 656 C152 656 117 623 117 582 C117 541 152 508 189 508 L189 508 Z M12 -212 L148 -212 L510 426 L373 426 L285 265 C264 227 245 160 245 160 C245 160 235 227 226 265 L188 426 L47 426 L160 45 L12 -212 Z " />
<glyph glyph-name="dotlessi" unicode="&#x131;" horiz-adv-x="260" d="M156 0 L206 0 L223 99 L193 99 C178 99 172 106 175 124 L228 426 L96 426 L43 123 C25 22 60 0 156 0 L156 0 Z " />
<glyph glyph-name="Lslash" unicode="&#x141;" horiz-adv-x="554" d="M219 226 L408 290 L429 410 L240 346 L299 680 L162 680 L94 297 L19 272 L-2 152 L73 177 L42 0 L481 0 L502 120 L200 120 L219 226 Z " />
<glyph glyph-name="lslash" unicode="&#x142;" horiz-adv-x="291" d="M216 263 L295 304 L317 433 L239 392 L297 722 L165 722 L94 316 L21 278 L-2 149 L71 187 L60 123 C42 22 77 0 173 0 L231 0 L248 99 L210 99 C195 99 189 106 192 124 L216 263 Z " />
<glyph glyph-name="OE" unicode="&#x152;" horiz-adv-x="983" d="M388 0 L894 0 L916 120 L597 120 L615 222 L882 222 L903 340 L636 340 L675 560 L980 560 L1001 680 L454 680 C233 680 69 535 69 314 C69 126 186 0 388 0 L388 0 Z M405 120 C271 120 211 194 211 308 C211 452 289 560 451 560 L538 560 L460 120 L405 120 Z " />
<glyph glyph-name="oe" unicode="&#x153;" horiz-adv-x="848" d="M427 69 C462 20 519 -9 596 -9 C677 -9 730 12 778 49 L701 135 C678 118 648 98 597 98 C535 98 501 127 492 174 L808 174 C827 322 751 435 599 435 C527 435 468 406 431 355 C398 404 344 435 275 435 C141 435 35 345 35 207 C35 82 134 -9 260 -9 C334 -9 391 19 427 69 L427 69 Z M494 249 C506 303 542 330 595 330 C649 330 681 298 680 249 L494 249 Z M264 103 C207 103 171 143 171 205 C171 274 208 321 268 321 C325 321 361 281 361 220 C361 150 324 103 264 103 L264 103 Z " />
<glyph glyph-name="Scaron" unicode="&#x160;" horiz-adv-x="526" d="M313 728 L324 728 L517 945 L408 945 L341 872 L298 945 L196 945 L313 728 Z M251 -9 C385 -9 488 58 488 193 C488 291 432 340 341 398 L308 419 C257 451 238 472 238 506 C238 540 260 570 308 570 C351 570 376 551 402 519 L500 603 C459 655 399 688 315 688 C173 688 103 602 103 500 C103 411 145 356 231 300 L263 279 C324 239 348 221 348 183 C348 139 308 111 251 111 C182 111 136 158 109 202 L1 129 C34 65 123 -9 251 -9 L251 -9 Z " />
<glyph glyph-name="scaron" unicode="&#x161;" horiz-adv-x="413" d="M226 480 L237 480 L430 697 L321 697 L254 624 L211 697 L109 697 L226 480 Z M186 -9 C305 -9 365 46 365 125 C365 206 317 234 245 265 C201 284 184 292 184 308 C184 324 200 334 223 334 C255 334 271 319 286 300 L372 372 C340 409 290 435 223 435 C131 435 63 387 63 298 C63 231 102 196 160 169 C223 140 240 138 240 120 C240 106 229 94 189 94 C146 94 119 109 95 143 L4 79 C37 27 99 -9 186 -9 L186 -9 Z " />
<glyph glyph-name="Ydieresis" unicode="&#x178;" horiz-adv-x="664" d="M527 756 C565 756 599 789 599 830 C599 871 565 904 527 904 C490 904 454 871 454 830 C454 789 490 756 527 756 L527 756 Z M317 756 C355 756 390 789 390 830 C390 871 355 904 317 904 C280 904 245 871 245 830 C245 789 280 756 317 756 L317 756 Z M272 217 L234 0 L371 0 L410 223 L730 680 L581 680 L429 461 C394 411 357 326 357 326 C357 326 343 409 325 461 L247 680 L102 680 L272 217 Z " />
<glyph glyph-name="Zcaron" unicode="&#x17d;" horiz-adv-x="595" d="M370 728 L381 728 L574 945 L465 945 L398 872 L355 945 L253 945 L370 728 Z M2 0 L501 0 L522 119 L231 119 L621 668 L621 680 L159 680 L138 561 L391 561 L2 12 L2 0 Z " />
<glyph glyph-name="zcaron" unicode="&#x17e;" horiz-adv-x="437" d="M257 480 L268 480 L461 697 L352 697 L285 624 L242 697 L140 697 L257 480 Z M-1 0 L365 0 L384 108 L220 108 L444 415 L444 426 L82 426 L63 318 L223 318 L-1 11 L-1 0 Z " />
<glyph glyph-name="florin" unicode="&#x192;" horiz-adv-x="400" d="M117 219 L41 -212 L170 -212 L246 219 L351 219 L370 324 L264 324 L300 531 C305 560 319 574 339 574 C359 574 370 565 380 550 L465 626 C437 663 396 688 332 688 C246 688 191 641 172 535 L135 324 L66 324 L47 219 L117 219 Z " />
<glyph glyph-name="circumflex" unicode="&#x2c6;" horiz-adv-x="490" d="M136 500 L245 500 L312 572 L355 500 L457 500 L340 716 L329 716 L136 500 Z " />
<glyph glyph-name="caron" unicode="&#x2c7;" horiz-adv-x="490" d="M288 480 L299 480 L492 697 L383 697 L316 624 L273 697 L171 697 L288 480 Z " />
<glyph glyph-name="breve" unicode="&#x2d8;" horiz-adv-x="490" d="M287 500 C379 500 435 560 447 640 L348 655 C341 621 324 598 288 598 C252 598 237 621 234 655 L133 640 C137 560 193 500 287 500 L287 500 Z " />
<glyph glyph-name="dotaccent" unicode="&#x2d9;" horiz-adv-x="490" d="M311 508 C349 508 384 541 384 582 C384 623 349 656 311 656 C274 656 239 623 239 582 C239 541 274 508 311 508 L311 508 Z " />
<glyph glyph-name="ring" unicode="&#x2da;" horiz-adv-x="490" d="M314 474 C385 474 439 529 439 593 C439 658 385 712 314 712 C243 712 189 658 189 593 C189 529 243 474 314 474 L314 474 Z M314 547 C291 547 272 564 272 593 C272 622 291 639 314 639 C337 639 356 622 356 593 C356 564 337 547 314 547 L314 547 Z " />
<glyph glyph-name="ogonek" unicode="&#x2db;" horiz-adv-x="490" d="M200 -240 C259 -240 291 -214 311 -179 L246 -141 C235 -156 225 -169 206 -169 C189 -169 178 -159 178 -140 C178 -115 186 -101 210 -70 L265 0 L188 0 L145 -39 C115 -66 92 -101 92 -146 C92 -210 145 -240 200 -240 L200 -240 Z " />
<glyph glyph-name="tilde" unicode="&#x2dc;" horiz-adv-x="490" d="M224 500 C229 530 238 545 255 545 C269 545 279 534 300 520 C316 509 336 500 363 500 C419 500 467 546 477 640 L390 649 C385 619 377 604 359 604 C346 604 335 615 314 629 C298 640 279 649 251 649 C196 649 149 603 137 509 L224 500 Z " />
<glyph glyph-name="hungarumlaut" unicode="&#x2dd;" horiz-adv-x="490" d="M310 500 L412 500 L534 688 L396 688 L310 500 Z M129 500 L231 500 L353 688 L215 688 L129 500 Z " />
<glyph glyph-name="&amp;#x394;" unicode="&#x394;" horiz-adv-x="244" d="M131 173 C176 173 214 208 214 258 C214 307 176 342 131 342 C86 342 48 307 48 258 C48 208 86 173 131 173 L131 173 Z " />
<glyph glyph-name="&amp;#x2206;" unicode="&#x2206;" horiz-adv-x="244" d="M131 173 C176 173 214 208 214 258 C214 307 176 342 131 342 C86 342 48 307 48 258 C48 208 86 173 131 173 L131 173 Z " />
<glyph glyph-name="&amp;#x3a9;" unicode="&#x3a9;" horiz-adv-x="244" d="M131 173 C176 173 214 208 214 258 C214 307 176 342 131 342 C86 342 48 307 48 258 C48 208 86 173 131 173 L131 173 Z " />
<glyph glyph-name="&amp;#x2126;" unicode="&#x2126;" horiz-adv-x="244" d="M131 173 C176 173 214 208 214 258 C214 307 176 342 131 342 C86 342 48 307 48 258 C48 208 86 173 131 173 L131 173 Z " />
<glyph glyph-name="pi" unicode="&#x3c0;" horiz-adv-x="244" d="M131 173 C176 173 214 208 214 258 C214 307 176 342 131 342 C86 342 48 307 48 258 C48 208 86 173 131 173 L131 173 Z " />
<glyph glyph-name="endash" unicode="&#x2013;" horiz-adv-x="398" d="M23 171 L362 171 L383 287 L44 287 L23 171 Z " />
<glyph glyph-name="emdash" unicode="&#x2014;" horiz-adv-x="644" d="M23 171 L608 171 L629 287 L44 287 L23 171 Z " />
<glyph glyph-name="quoteleft" unicode="&#x2018;" horiz-adv-x="239" d="M170 412 C212 412 247 445 247 489 C247 523 231 545 205 560 L264 680 L200 680 L126 574 C107 547 93 522 93 491 C93 445 128 412 170 412 L170 412 Z " />
<glyph glyph-name="quoteright" unicode="&#x2019;" horiz-adv-x="239" d="M97 420 L161 420 L235 526 C254 553 268 578 268 609 C268 655 233 688 191 688 C149 688 114 655 114 611 C114 577 130 555 156 540 L97 420 Z " />
<glyph glyph-name="quotesinglbase" unicode="&#x201a;" horiz-adv-x="239" d="M5 -103 L69 -103 L143 3 C162 30 176 55 176 86 C176 132 141 165 99 165 C57 165 22 132 22 88 C22 54 38 32 64 17 L5 -103 Z " />
<glyph glyph-name="quotedblleft" unicode="&#x201c;" horiz-adv-x="452" d="M382 412 C424 412 459 445 459 489 C459 523 443 545 417 560 L476 680 L412 680 L338 574 C319 547 305 522 305 491 C305 445 340 412 382 412 L382 412 Z M170 412 C212 412 247 445 247 489 C247 523 231 545 205 560 L264 680 L200 680 L126 574 C107 547 93 522 93 491 C93 445 128 412 170 412 L170 412 Z " />
<glyph glyph-name="quotedblright" unicode="&#x201d;" horiz-adv-x="451" d="M309 420 L373 420 L447 526 C466 553 480 578 480 609 C480 655 445 688 403 688 C361 688 326 655 326 611 C326 577 342 555 368 540 L309 420 Z M97 420 L161 420 L235 526 C254 553 268 578 268 609 C268 655 233 688 191 688 C149 688 114 655 114 611 C114 577 130 555 156 540 L97 420 Z " />
<glyph glyph-name="quotedblbase" unicode="&#x201e;" horiz-adv-x="451" d="M217 -103 L281 -103 L355 3 C374 30 388 55 388 86 C388 132 353 165 311 165 C269 165 234 132 234 88 C234 54 250 32 276 17 L217 -103 Z M5 -103 L69 -103 L143 3 C162 30 176 55 176 86 C176 132 141 165 99 165 C57 165 22 132 22 88 C22 54 38 32 64 17 L5 -103 Z " />
<glyph glyph-name="dagger" unicode="&#x2020;" horiz-adv-x="355" d="M166 475 L125 242 L244 242 L285 475 L373 475 L392 583 L304 583 L321 680 L202 680 L185 583 L97 583 L78 475 L166 475 Z " />
<glyph glyph-name="daggerdbl" unicode="&#x2021;" horiz-adv-x="355" d="M168 486 L159 435 L71 435 L54 338 L142 338 L125 241 L244 241 L261 338 L349 338 L366 435 L278 435 L287 486 L375 486 L392 583 L305 583 L322 680 L203 680 L185 583 L97 583 L80 486 L168 486 Z " />
<glyph glyph-name="bullet" unicode="&#x2022;" horiz-adv-x="268" d="M142 145 C198 145 248 192 248 253 C248 315 198 361 142 361 C87 361 38 315 38 253 C38 192 87 145 142 145 L142 145 Z " />
<glyph glyph-name="ellipsis" unicode="&#x2026;" horiz-adv-x="714" d="M572 -6 C616 -6 653 28 653 77 C653 125 616 160 572 160 C528 160 491 125 491 77 C491 28 528 -6 572 -6 L572 -6 Z M335 -6 C379 -6 416 28 416 77 C416 125 379 160 335 160 C291 160 254 125 254 77 C254 28 291 -6 335 -6 L335 -6 Z M98 -6 C142 -6 179 28 179 77 C179 125 142 160 98 160 C54 160 17 125 17 77 C17 28 54 -6 98 -6 L98 -6 Z " />
<glyph glyph-name="perthousand" unicode="&#x2030;" horiz-adv-x="1361" d="M257 322 C356 322 447 395 447 508 C447 613 366 688 268 688 C170 688 80 615 80 502 C80 397 158 322 257 322 L257 322 Z M165 0 L298 0 L827 680 L694 680 L165 0 Z M1139 -9 C1238 -9 1329 64 1329 177 C1329 282 1248 357 1150 357 C1052 357 962 284 962 171 C962 66 1040 -9 1139 -9 L1139 -9 Z M722 -9 C821 -9 912 64 912 177 C912 282 831 357 733 357 C635 357 545 284 545 171 C545 66 623 -9 722 -9 L722 -9 Z M259 424 C221 424 195 453 195 502 C195 557 228 586 266 586 C303 586 331 557 331 508 C331 452 297 424 259 424 L259 424 Z M1141 93 C1103 93 1077 122 1077 171 C1077 226 1110 255 1148 255 C1185 255 1213 226 1213 177 C1213 121 1179 93 1141 93 L1141 93 Z M724 93 C686 93 660 122 660 171 C660 226 693 255 731 255 C768 255 796 226 796 177 C796 121 762 93 724 93 L724 93 Z " />
<glyph glyph-name="guilsinglleft" unicode="&#x2039;" horiz-adv-x="290" d="M103 32 L232 32 L159 198 L287 373 L154 373 L31 204 L31 196 L103 32 Z " />
<glyph glyph-name="guilsinglright" unicode="&#x203a;" horiz-adv-x="290" d="M3 32 L136 32 L259 201 L259 209 L187 373 L58 373 L131 207 L3 32 Z " />
<glyph glyph-name="&amp;#x2044;" unicode="&#x2044;" horiz-adv-x="522" d="M-46 0 L87 0 L616 680 L483 680 L-46 0 Z " />
<glyph glyph-name="&amp;#x2215;" unicode="&#x2215;" horiz-adv-x="522" d="M-46 0 L87 0 L616 680 L483 680 L-46 0 Z " />
<glyph glyph-name="Euro" unicode="&#x20ac;" horiz-adv-x="733" d="M130 360 C129 349 129 338 129 326 C129 320 129 313 129 307 L63 307 L47 216 L143 216 C179 80 286 -9 435 -9 C558 -9 632 34 694 109 L595 188 C562 145 509 110 440 110 C360 110 310 149 286 216 L502 216 L518 307 L269 307 C269 314 269 321 269 328 C269 339 269 349 270 360 L525 360 L543 451 L290 451 C320 527 381 569 460 569 C539 569 580 538 612 482 L721 545 C671 635 592 688 464 688 C315 688 190 599 146 451 L88 451 L70 360 L130 360 Z " />
<glyph glyph-name="trademark" unicode="&#x2122;" horiz-adv-x="697" d="M365 378 L453 378 L474 500 L524 429 L532 429 L606 500 L585 378 L673 378 L727 684 L718 684 L547 537 L428 684 L419 684 L365 378 Z M185 606 L145 378 L235 378 L275 606 L354 606 L367 680 L118 680 L105 606 L185 606 Z " />
<glyph glyph-name="partialdiff" unicode="&#x2202;" horiz-adv-x="244" d="M131 173 C176 173 214 208 214 258 C214 307 176 342 131 342 C86 342 48 307 48 258 C48 208 86 173 131 173 L131 173 Z " />
<glyph glyph-name="product" unicode="&#x220f;" horiz-adv-x="244" d="M131 173 C176 173 214 208 214 258 C214 307 176 342 131 342 C86 342 48 307 48 258 C48 208 86 173 131 173 L131 173 Z " />
<glyph glyph-name="summation" unicode="&#x2211;" horiz-adv-x="780" d="M470 9 C640 35 760 156 760 351 C760 548 616 688 429 688 C234 688 68 549 68 328 C68 248 91 180 131 127 C87 110 54 82 32 46 L125 -32 C150 4 181 36 230 36 C269 36 300 8 335 -24 C396 -80 459 -153 561 -153 C642 -153 693 -120 731 -67 L642 10 C626 -11 599 -33 562 -33 C523 -33 496 -15 470 9 L470 9 Z M403 113 C289 113 209 196 209 325 C209 471 294 566 425 566 C539 566 619 483 619 354 C619 208 534 113 403 113 L403 113 Z " />
<glyph glyph-name="minus" unicode="&#x2212;" horiz-adv-x="244" d="M131 173 C176 173 214 208 214 258 C214 307 176 342 131 342 C86 342 48 307 48 258 C48 208 86 173 131 173 L131 173 Z " />
<glyph glyph-name="radical" unicode="&#x221a;" horiz-adv-x="244" d="M131 173 C176 173 214 208 214 258 C214 307 176 342 131 342 C86 342 48 307 48 258 C48 208 86 173 131 173 L131 173 Z " />
<glyph glyph-name="integral" unicode="&#x222b;" horiz-adv-x="244" d="M131 173 C176 173 214 208 214 258 C214 307 176 342 131 342 C86 342 48 307 48 258 C48 208 86 173 131 173 L131 173 Z " />
<glyph glyph-name="approxequal" unicode="&#x2248;" horiz-adv-x="244" d="M131 173 C176 173 214 208 214 258 C214 307 176 342 131 342 C86 342 48 307 48 258 C48 208 86 173 131 173 L131 173 Z " />
<glyph glyph-name="lessequal" unicode="&#x2264;" horiz-adv-x="244" d="M131 173 C176 173 214 208 214 258 C214 307 176 342 131 342 C86 342 48 307 48 258 C48 208 86 173 131 173 L131 173 Z " />
<glyph glyph-name="greaterequal" unicode="&#x2265;" horiz-adv-x="244" d="M131 173 C176 173 214 208 214 258 C214 307 176 342 131 342 C86 342 48 307 48 258 C48 208 86 173 131 173 L131 173 Z " />
<glyph glyph-name="lozenge" unicode="&#x25ca;" horiz-adv-x="244" d="M131 173 C176 173 214 208 214 258 C214 307 176 342 131 342 C86 342 48 307 48 258 C48 208 86 173 131 173 L131 173 Z " />
<glyph glyph-name="fi" unicode="&#xfb01;" horiz-adv-x="577" d="M506 504 C549 504 584 535 584 582 C584 628 548 659 505 659 C463 659 428 628 428 582 C428 535 464 504 506 504 L506 504 Z M252 317 L393 317 L359 123 C341 22 376 0 472 0 L522 0 L539 99 L509 99 C494 99 488 106 491 124 L544 426 L271 426 L297 575 C303 607 316 617 338 617 C353 617 361 612 372 602 L449 689 C416 720 383 735 332 735 C231 735 184 679 166 578 L139 426 L69 426 L50 317 L120 317 L49 -88 C45 -109 37 -113 22 -113 L-18 -113 L-37 -212 L32 -212 C121 -212 161 -201 179 -97 L252 317 Z " />
<glyph glyph-name="fl" unicode="&#xfb02;" horiz-adv-x="576" d="M472 0 L530 0 L547 99 L509 99 C494 99 488 106 491 124 L596 722 L464 722 L359 123 C341 22 376 0 472 0 L472 0 Z M120 317 L49 -88 C45 -109 37 -113 22 -113 L-18 -113 L-37 -212 L32 -212 C121 -212 161 -201 179 -97 L252 317 L339 317 L358 426 L271 426 L297 575 C303 607 316 617 336 617 C351 617 359 612 370 605 L415 707 C392 727 364 735 324 735 C232 735 184 679 166 578 L139 426 L69 426 L50 317 L120 317 Z " />
</font>
</svg>
