<?xml version="1.0" encoding="UTF-8"?>
<svg xmlns="http://www.w3.org/2000/svg" xmlns:xlink="http://www.w3.org/1999/xlink" version="1.2" >
<font id="Neutra Text Light Alt Demi Italic">
<font-face  font-family="Neutra Text" units-per-em="1000" ascent="700" descent="-200" font-style="italic" font-weight="500" font-stretch="normal" slope="-12" cap-height="700" x-height="500" underline-position="-133" underline-thickness="20" />
<missing-glyph  horiz-adv-x="500" d="" />
<glyph glyph-name="NULL" d="" />
<glyph glyph-name="&amp;#x0;" horiz-adv-x="219" d="" />
<glyph glyph-name="&amp;#xd;" unicode="&#xd;" horiz-adv-x="219" d="" />
<glyph glyph-name="space" unicode="&#x20;" horiz-adv-x="219" d="" />
<glyph glyph-name="exclam" unicode="&#x21;" horiz-adv-x="251" d="M84 210 L161 210 L266 680 L154 680 L84 210 Z M100 -6 C135 -6 166 22 166 61 C166 100 135 128 100 128 C64 128 34 100 34 61 C34 22 64 -6 100 -6 L100 -6 Z " />
<glyph glyph-name="quotedbl" unicode="&#x22;" horiz-adv-x="338" d="M250 452 L331 452 L385 680 L278 680 L250 452 Z M92 452 L173 452 L227 680 L121 680 L92 452 Z " />
<glyph glyph-name="numbersign" unicode="&#x23;" horiz-adv-x="454" d="M160 500 L137 406 L69 406 L56 329 L118 329 L92 224 L171 224 L197 329 L282 329 L256 224 L336 224 L362 329 L442 329 L456 406 C456 406 423 406 381 406 L404 500 L473 500 L487 577 L423 577 L449 680 L370 680 L344 577 L259 577 L285 680 L205 680 L179 577 C180 577 100 577 100 577 L86 500 L160 500 Z M324 500 C325 500 301 406 301 406 C255 406 216 406 216 406 C216 406 240 500 239 500 L324 500 Z " />
<glyph glyph-name="dollar" unicode="&#x24;" horiz-adv-x="525" d="M192 -5 L172 -116 L228 -116 L247 -9 C386 -6 478 62 478 189 C478 279 422 337 330 388 L318 394 L353 590 C380 581 401 562 418 534 L498 589 C467 637 424 669 369 681 L385 773 L330 773 L315 688 C312 688 310 688 307 688 C187 688 108 612 108 508 C106 425 154 364 242 317 L248 313 L208 85 C147 97 113 138 85 182 L2 124 C37 68 98 10 192 -5 L192 -5 Z M299 599 L268 424 C225 451 208 477 208 514 C208 563 246 598 299 599 L299 599 Z M263 82 L299 284 C351 254 374 226 374 184 C374 124 334 88 263 82 L263 82 Z " />
<glyph glyph-name="percent" unicode="&#x25;" horiz-adv-x="871" d="M245 338 C340 338 426 410 426 519 C426 617 351 688 258 688 C164 688 79 615 79 508 C79 409 152 338 245 338 L245 338 Z M144 0 L246 0 L774 680 L673 680 L144 0 Z M659 -9 C754 -9 840 64 840 172 C840 270 765 341 672 341 C579 341 493 269 493 161 C493 62 566 -9 659 -9 L659 -9 Z M247 416 C199 416 167 452 167 508 C167 572 208 610 256 610 C304 610 337 574 337 519 C337 453 295 416 247 416 L247 416 Z M661 70 C613 70 581 105 581 161 C581 226 622 263 670 263 C718 263 751 227 751 172 C751 106 709 70 661 70 L661 70 Z " />
<glyph glyph-name="ampersand" unicode="&#x26;" horiz-adv-x="664" d="M360 377 C455 421 508 476 508 548 C508 629 447 688 359 688 C256 688 189 623 189 533 C189 491 198 450 229 398 C112 346 35 284 35 175 C35 69 117 -9 260 -9 C329 -9 393 13 446 55 C475 16 503 0 561 0 L603 0 L618 85 L574 85 C551 85 539 92 523 119 L517 129 C561 190 592 270 605 365 L513 365 C505 305 488 253 465 211 L360 377 Z M322 437 L314 450 C300 474 288 501 288 534 C288 578 316 608 358 608 C394 608 418 582 418 544 C418 499 386 466 322 437 L322 437 Z M398 130 C359 98 312 81 259 81 C189 81 143 122 143 182 C143 253 188 299 267 337 L398 130 Z " />
<glyph glyph-name="quotesingle" unicode="&#x27;" horiz-adv-x="180" d="M92 452 L173 452 L227 680 L121 680 L92 452 Z " />
<glyph glyph-name="parenleft" unicode="&#x28;" horiz-adv-x="306" d="M160 -134 L227 -92 C182 -15 150 77 150 207 C150 407 241 558 356 664 L308 719 C189 621 47 469 47 207 C47 60 102 -60 160 -134 L160 -134 Z " />
<glyph glyph-name="parenright" unicode="&#x29;" horiz-adv-x="305" d="M30 -134 C148 -37 289 115 289 379 C289 526 234 644 176 719 L110 676 C155 599 186 508 186 379 C186 177 95 27 -20 -80 L30 -134 Z " />
<glyph glyph-name="asterisk" unicode="&#x2a;" horiz-adv-x="406" d="M201 366 L290 366 L278 485 L360 402 L410 472 L299 522 L417 550 L382 630 L285 560 L320 680 L230 680 L242 562 L159 647 L109 577 L220 527 L103 498 L138 419 L235 487 L201 366 Z " />
<glyph glyph-name="plus" unicode="&#x2b;" horiz-adv-x="417" d="M266 278 L392 278 L407 364 L281 364 L305 501 L217 501 L192 364 L66 364 L51 278 L177 278 L153 140 L241 140 L266 278 Z " />
<glyph glyph-name="comma" unicode="&#x2c;" horiz-adv-x="218" d="M-4 -113 L48 -113 L125 -2 C140 20 151 39 151 62 C151 101 122 130 85 130 C49 130 19 101 19 63 C19 33 34 13 55 3 L-4 -113 Z " />
<glyph glyph-name="&amp;#x2d;" unicode="&#x2d;" horiz-adv-x="284" d="M37 193 L243 193 L259 280 L52 280 L37 193 Z " />
<glyph glyph-name="&amp;#xad;" unicode="&#xad;" horiz-adv-x="284" d="M37 193 L243 193 L259 280 L52 280 L37 193 Z " />
<glyph glyph-name="period" unicode="&#x2e;" horiz-adv-x="217" d="M84 -6 C120 -6 150 22 150 61 C150 100 120 129 84 129 C49 129 18 100 18 61 C18 22 49 -6 84 -6 L84 -6 Z " />
<glyph glyph-name="slash" unicode="&#x2f;" horiz-adv-x="407" d="M-55 -128 L46 -128 L480 722 L379 722 L-55 -128 Z " />
<glyph glyph-name="zero" unicode="0" horiz-adv-x="709" d="M357 -9 C542 -9 695 143 695 370 C695 558 572 688 399 688 C216 688 62 537 62 311 C62 122 184 -9 357 -9 L357 -9 Z M360 84 C242 84 168 170 168 310 C168 480 266 595 396 595 C514 595 589 510 589 370 C589 199 491 84 360 84 L360 84 Z " />
<glyph glyph-name="one" unicode="1" horiz-adv-x="322" d="M99 0 L201 0 L321 680 L112 680 L96 588 L203 588 L99 0 Z " />
<glyph glyph-name="two" unicode="2" horiz-adv-x="529" d="M-18 0 L446 0 L462 89 L258 89 C231 89 187 84 187 84 C187 84 226 108 250 130 L383 252 C470 332 529 403 529 499 C529 610 452 688 326 688 C213 688 116 627 86 499 L187 479 C211 556 256 595 322 595 C392 595 426 554 426 497 C426 429 381 378 300 303 L-18 9 L-18 0 Z " />
<glyph glyph-name="three" unicode="3" horiz-adv-x="537" d="M249 -9 C391 -9 505 87 505 230 C505 351 427 425 337 439 C337 439 363 456 381 476 L551 671 L551 680 L139 680 L123 590 L321 590 C345 590 384 595 384 595 C384 595 353 573 333 552 L178 375 L183 365 C200 370 223 376 253 376 C348 376 400 311 400 232 C400 146 340 84 247 84 C166 84 121 127 95 182 L4 140 C37 59 123 -9 249 -9 L249 -9 Z " />
<glyph glyph-name="four" unicode="4" horiz-adv-x="599" d="M487 197 L574 695 L566 695 L34 183 L22 113 L369 113 L349 0 L452 0 L472 113 L552 113 L567 197 L487 197 Z M384 197 L225 197 C194 197 150 191 150 191 C150 191 193 217 220 243 L387 411 C415 440 439 477 439 477 C439 477 426 434 420 401 L384 197 Z " />
<glyph glyph-name="five" unicode="5" horiz-adv-x="546" d="M259 -9 C411 -9 513 90 513 235 C513 364 426 462 290 462 C256 462 226 456 205 446 L231 590 L506 590 L522 680 L158 680 L95 326 L104 322 C149 353 194 376 260 376 C356 376 408 315 408 233 C408 148 354 84 259 84 C179 84 133 129 106 184 L16 138 C53 55 141 -9 259 -9 L259 -9 Z " />
<glyph glyph-name="six" unicode="6" horiz-adv-x="566" d="M279 -9 C427 -9 531 96 531 238 C531 362 444 455 322 455 C294 455 272 449 251 437 C251 437 291 463 318 497 L471 680 L352 680 L122 408 C71 348 44 286 44 219 C44 91 141 -9 279 -9 L279 -9 Z M282 81 C196 81 148 146 148 222 C148 304 202 375 293 375 C377 375 425 317 425 237 C425 152 371 81 282 81 L282 81 Z " />
<glyph glyph-name="seven" unicode="7" horiz-adv-x="543" d="M57 0 L172 0 L603 671 L603 680 L111 680 L95 588 L437 588 L57 0 Z " />
<glyph glyph-name="eight" unicode="8" horiz-adv-x="571" d="M213 399 C115 376 38 312 38 201 C38 82 135 -9 281 -9 C431 -9 535 79 535 213 C535 293 490 351 423 382 C479 404 531 449 531 527 C531 616 455 688 347 688 C237 688 148 617 148 517 C148 462 176 423 213 399 L213 399 Z M336 429 C282 429 249 466 249 512 C249 563 287 601 344 601 C396 601 430 565 430 520 C430 468 392 429 336 429 L336 429 Z M282 81 C200 81 144 132 144 209 C144 289 208 345 293 345 C376 345 430 295 430 219 C430 139 369 81 282 81 L282 81 Z " />
<glyph glyph-name="nine" unicode="9" horiz-adv-x="568" d="M150 0 L269 0 L491 265 C542 326 572 392 572 461 C572 591 478 688 337 688 C190 688 82 582 82 441 C82 317 170 221 292 221 C319 221 346 229 365 240 C365 240 324 212 297 178 L150 0 Z M322 302 C235 302 187 363 187 443 C187 524 242 598 333 598 C420 598 468 534 468 457 C468 375 410 302 322 302 L322 302 Z " />
<glyph glyph-name="colon" unicode="&#x3a;" horiz-adv-x="225" d="M127 222 C163 222 194 250 194 289 C194 329 163 357 127 357 C92 357 61 329 61 289 C61 250 92 222 127 222 L127 222 Z M88 -6 C124 -6 154 22 154 61 C154 100 124 129 88 129 C52 129 21 100 21 61 C21 22 52 -6 88 -6 L88 -6 Z " />
<glyph glyph-name="&amp;#x3b;" unicode="&#x3b;" horiz-adv-x="225" d="M127 222 C163 222 194 250 194 289 C194 329 163 357 127 357 C92 357 61 329 61 289 C61 250 92 222 127 222 L127 222 Z M-1 -113 L51 -113 L128 -2 C143 20 154 39 154 62 C154 101 124 130 88 130 C51 130 21 101 21 63 C21 33 37 13 58 3 L-1 -113 Z " />
<glyph glyph-name="&amp;#x37e;" unicode="&#x37e;" horiz-adv-x="225" d="M127 222 C163 222 194 250 194 289 C194 329 163 357 127 357 C92 357 61 329 61 289 C61 250 92 222 127 222 L127 222 Z M-1 -113 L51 -113 L128 -2 C143 20 154 39 154 62 C154 101 124 130 88 130 C51 130 21 101 21 63 C21 33 37 13 58 3 L-1 -113 Z " />
<glyph glyph-name="less" unicode="&#x3c;" horiz-adv-x="383" d="M330 136 L345 223 L192 313 L377 400 L394 497 L50 324 L50 313 L330 136 Z " />
<glyph glyph-name="equal" unicode="&#x3d;" horiz-adv-x="415" d="M62 342 L401 342 L416 427 L77 427 L62 342 Z M34 182 L373 182 L388 267 L49 267 L34 182 Z " />
<glyph glyph-name="greater" unicode="&#x3e;" horiz-adv-x="383" d="M29 136 L373 309 L373 319 L93 497 L78 410 L231 320 L46 232 L29 136 Z " />
<glyph glyph-name="question" unicode="&#x3f;" horiz-adv-x="485" d="M189 208 L282 208 L299 301 C410 307 493 385 493 497 C493 605 419 688 293 688 C202 688 128 639 93 567 L170 522 C199 572 236 600 291 600 C353 600 392 559 392 497 C392 430 349 376 259 376 L219 376 L189 208 Z M212 -6 C247 -6 278 22 278 61 C278 100 247 128 212 128 C176 128 146 100 146 61 C146 22 176 -6 212 -6 L212 -6 Z " />
<glyph glyph-name="at" unicode="&#x40;" horiz-adv-x="884" d="M434 -207 C507 -207 570 -195 624 -169 L596 -100 C548 -119 492 -131 435 -131 C242 -131 130 -2 130 175 C130 377 271 521 461 521 C639 521 760 411 760 239 C760 116 713 67 663 67 C620 67 602 96 612 151 L652 374 L556 374 L545 294 C526 345 484 384 417 384 C320 384 237 301 237 176 C237 68 305 -9 405 -9 C459 -9 508 22 536 77 C550 32 591 -4 659 -4 C763 -4 845 69 845 237 C845 439 697 597 461 597 C232 597 39 428 39 175 C39 -44 192 -207 434 -207 L434 -207 Z M430 72 C376 72 339 111 339 177 C339 255 381 302 440 302 C491 302 529 254 529 195 C529 128 486 72 430 72 L430 72 Z " />
<glyph glyph-name="A" unicode="A" horiz-adv-x="647" d="M153 97 L454 97 L477 0 L582 0 L410 687 L398 687 L-7 0 L96 0 L153 97 Z M434 183 L203 183 L326 394 C352 439 371 488 371 488 C371 488 375 436 386 390 L434 183 Z " />
<glyph glyph-name="B" unicode="B" horiz-adv-x="597" d="M43 0 L318 0 C466 0 555 90 555 218 C555 294 510 349 443 369 C518 391 555 447 555 520 C555 609 495 680 381 680 L163 680 L43 0 Z M219 414 L250 590 L368 590 C423 590 452 557 452 513 C452 452 417 414 350 414 L219 414 Z M162 90 L204 327 L341 327 C416 327 449 284 449 221 C449 141 402 90 311 90 L162 90 Z " />
<glyph glyph-name="C" unicode="C" horiz-adv-x="710" d="M393 -9 C518 -9 600 31 667 113 L591 175 C548 124 490 83 396 83 C270 83 177 183 177 323 C177 476 283 596 428 596 C519 596 576 555 614 496 L697 552 C639 641 555 688 431 688 C234 688 69 534 69 323 C69 134 206 -9 393 -9 L393 -9 Z " />
<glyph glyph-name="D" unicode="D" horiz-adv-x="663" d="M43 0 L254 0 C488 0 644 144 644 372 C644 556 531 680 329 680 L163 680 L43 0 Z M162 90 L250 590 L317 590 C470 590 537 503 537 376 C537 212 445 90 254 90 L162 90 Z " />
<glyph glyph-name="E" unicode="E" horiz-adv-x="571" d="M43 0 L479 0 L495 90 L161 90 L186 233 L470 233 L486 322 L202 322 L249 590 L570 590 L586 680 L163 680 L43 0 Z " />
<glyph glyph-name="F" unicode="F" horiz-adv-x="543" d="M43 0 L146 0 L186 225 L470 225 L485 314 L202 314 L250 590 L562 590 L578 680 L163 680 L43 0 Z " />
<glyph glyph-name="G" unicode="G" horiz-adv-x="779" d="M402 -9 C623 -9 744 133 752 341 L446 341 L431 252 L638 252 C619 159 534 82 405 82 C267 82 177 184 177 323 C177 481 284 596 430 596 C527 596 588 558 628 497 L709 554 C655 638 566 688 433 688 C235 688 71 537 71 322 C71 129 204 -9 402 -9 L402 -9 Z " />
<glyph glyph-name="H" unicode="H" horiz-adv-x="685" d="M522 314 L201 314 L266 680 L163 680 L43 0 L146 0 L185 223 L506 223 L467 0 L570 0 L690 680 L587 680 L522 314 Z " />
<glyph glyph-name="I" unicode="I" horiz-adv-x="271" d="M48 0 L151 0 L271 680 L168 680 L48 0 Z " />
<glyph glyph-name="J" unicode="J" horiz-adv-x="470" d="M189 -9 C300 -9 367 44 389 170 L479 680 L376 680 L288 183 C275 109 245 84 191 84 C140 84 110 113 90 156 L3 108 C29 46 89 -9 189 -9 L189 -9 Z " />
<glyph glyph-name="K" unicode="K" horiz-adv-x="613" d="M188 301 C198 331 213 379 220 417 L266 680 L163 680 L43 0 L146 0 L182 207 L271 295 L440 0 L555 0 L347 362 L643 680 L522 680 L264 405 C238 377 209 334 188 301 L188 301 Z " />
<glyph glyph-name="L" unicode="L" horiz-adv-x="529" d="M43 0 L455 0 L471 91 L162 91 L266 680 L163 680 L43 0 Z " />
<glyph glyph-name="M" unicode="M" horiz-adv-x="826" d="M23 0 L126 0 L220 339 C232 386 244 460 244 460 C244 460 267 397 287 356 L399 105 L409 105 L604 355 C638 396 671 454 671 454 C671 454 658 386 654 338 L630 0 L731 0 L785 688 L773 688 L475 322 C449 291 423 246 423 246 C423 246 407 292 393 322 L223 688 L211 688 L23 0 Z " />
<glyph glyph-name="N" unicode="N" horiz-adv-x="690" d="M561 -7 L574 -7 L695 680 L599 680 L532 299 C524 255 522 198 522 198 C522 198 497 248 473 279 L177 687 L164 687 L43 0 L139 0 L206 381 C213 419 216 481 216 481 C216 481 242 432 266 401 L561 -7 Z " />
<glyph glyph-name="O" unicode="O" horiz-adv-x="782" d="M397 -9 C594 -9 760 138 760 357 C760 552 617 688 433 688 C235 688 70 542 70 323 C70 128 212 -9 397 -9 L397 -9 Z M400 83 C267 83 176 180 176 321 C176 483 281 596 430 596 C562 596 654 501 654 359 C654 197 550 83 400 83 L400 83 Z " />
<glyph glyph-name="P" unicode="P" horiz-adv-x="577" d="M176 162 L262 162 C457 162 573 271 573 442 C574 580 483 680 315 680 L164 680 L44 0 L147 0 L176 162 Z M192 251 L251 591 L306 591 C419 591 468 530 467 442 C467 329 407 251 264 251 L192 251 Z " />
<glyph glyph-name="Q" unicode="Q" horiz-adv-x="782" d="M422 -7 C608 4 760 147 760 357 C760 552 617 688 433 688 C235 688 70 542 70 323 C70 156 175 32 321 0 L294 -158 L395 -158 L422 -7 Z M337 89 C239 115 176 203 176 321 C176 483 281 596 430 596 C562 596 654 501 654 359 C654 211 567 101 437 83 L461 217 L360 217 L337 89 Z " />
<glyph glyph-name="R" unicode="R" horiz-adv-x="589" d="M402 202 C515 240 566 338 567 446 C567 588 473 680 304 680 L162 680 L42 0 L145 0 L176 175 L263 175 C278 175 293 176 307 177 L401 0 L510 0 L402 202 Z M191 264 L248 590 L294 590 C405 590 461 541 461 446 C460 331 398 264 264 264 L191 264 Z " />
<glyph glyph-name="S" unicode="S" horiz-adv-x="526" d="M247 -9 C380 -9 474 63 474 188 C474 280 423 329 334 385 L294 411 C238 446 216 471 216 515 C216 565 250 599 303 599 C354 599 382 578 409 540 L485 600 C446 655 391 688 308 688 C188 688 114 613 114 510 C114 427 156 374 238 321 L278 295 C341 254 369 230 369 183 C369 123 323 82 247 82 C168 82 120 133 89 182 L8 128 C41 63 124 -9 247 -9 L247 -9 Z " />
<glyph glyph-name="T" unicode="T" horiz-adv-x="558" d="M192 0 L295 0 L399 590 L597 590 L613 680 L114 680 L98 590 L297 590 L192 0 Z " />
<glyph glyph-name="U" unicode="U" horiz-adv-x="658" d="M318 -9 C460 -9 557 60 585 215 L667 680 L563 680 L484 231 C466 128 413 83 323 83 C223 83 168 141 188 255 L263 680 L159 680 L85 261 C56 92 166 -9 318 -9 L318 -9 Z " />
<glyph glyph-name="V" unicode="V" horiz-adv-x="643" d="M290 -7 L303 -7 L700 680 L593 680 L388 318 C359 268 327 189 327 189 C327 189 317 272 304 323 L216 680 L111 680 L290 -7 Z " />
<glyph glyph-name="W" unicode="W" horiz-adv-x="933" d="M224 -7 L237 -7 L474 392 C495 428 519 483 519 483 C519 483 526 424 535 386 L625 -7 L637 -7 L991 680 L885 680 L702 321 C681 279 660 218 660 218 C660 218 650 285 641 326 L559 687 L546 687 L331 322 C306 280 282 219 282 219 C282 219 279 284 272 328 L217 680 L110 680 L224 -7 Z " />
<glyph glyph-name="X" unicode="X" horiz-adv-x="627" d="M-6 0 L109 0 L286 227 C309 256 333 306 333 306 C333 306 344 255 356 225 L452 0 L561 0 L401 372 L640 680 L525 680 L397 515 C375 485 353 437 353 437 C353 437 341 488 328 519 L260 680 L151 680 L284 373 L-6 0 Z " />
<glyph glyph-name="Y" unicode="Y" horiz-adv-x="652" d="M279 219 L241 0 L344 0 L382 216 L709 680 L597 680 L399 402 C371 362 344 299 344 299 C344 299 335 362 320 402 L219 680 L110 680 L279 219 Z " />
<glyph glyph-name="Z" unicode="Z" horiz-adv-x="586" d="M6 0 L495 0 L511 89 L179 89 L609 669 L609 680 L165 680 L149 591 L435 591 L6 11 L6 0 Z " />
<glyph glyph-name="bracketleft" unicode="&#x5b;" horiz-adv-x="314" d="M7 -128 L223 -128 L238 -44 L122 -44 L242 638 L359 638 L373 722 L157 722 L7 -128 Z " />
<glyph glyph-name="backslash" unicode="&#x5c;" horiz-adv-x="402" d="M247 -128 L341 -128 L201 722 L107 722 L247 -128 Z " />
<glyph glyph-name="bracketright" unicode="&#x5d;" horiz-adv-x="314" d="M-27 -128 L189 -128 L339 722 L123 722 L109 638 L225 638 L105 -44 L-12 -44 L-27 -128 Z " />
<glyph glyph-name="asciicircum" unicode="&#x5e;" horiz-adv-x="421" d="M104 455 L187 455 L274 558 L327 455 L405 455 L300 687 L290 687 L104 455 Z " />
<glyph glyph-name="underscore" unicode="&#x5f;" horiz-adv-x="265" d="M-61 -128 L208 -128 L224 -40 L-45 -40 L-61 -128 Z " />
<glyph glyph-name="grave" unicode="&#x60;" horiz-adv-x="493" d="M243 499 L319 499 L269 689 L154 689 L243 499 Z " />
<glyph glyph-name="a" unicode="a" horiz-adv-x="530" d="M208 -9 C270 -9 312 21 346 75 L346 66 C346 27 359 0 437 0 L485 0 L498 76 L464 76 C447 76 442 85 445 105 L500 420 L401 420 L388 329 C364 394 308 429 242 429 C132 429 39 338 39 193 C39 70 112 -9 208 -9 L208 -9 Z M243 77 C180 77 142 124 142 195 C142 282 189 342 263 342 C328 342 366 292 366 220 C366 137 314 77 243 77 L243 77 Z " />
<glyph glyph-name="b" unicode="b" horiz-adv-x="538" d="M297 -9 C407 -9 501 86 501 227 C501 349 427 429 327 429 C269 429 222 399 190 351 L255 722 L156 722 L30 0 L129 0 L142 98 C167 30 225 -9 297 -9 L297 -9 Z M272 77 C205 77 164 128 164 199 C164 283 218 342 292 342 C357 342 398 296 398 224 C398 138 349 77 272 77 L272 77 Z " />
<glyph glyph-name="c" unicode="c" horiz-adv-x="454" d="M254 -9 C326 -9 375 17 408 49 L350 114 C333 99 305 77 254 77 C184 77 143 130 143 203 C143 283 193 342 269 342 C312 342 345 323 366 292 L438 349 C405 395 350 429 270 429 C139 429 41 334 41 203 C41 78 130 -9 254 -9 L254 -9 Z " />
<glyph glyph-name="d" unicode="d" horiz-adv-x="542" d="M213 -9 C275 -9 325 23 356 77 L355 67 C355 27 369 0 447 0 L495 0 L508 76 L474 76 C457 76 452 85 455 105 L564 722 L465 722 L396 335 C371 393 316 429 247 429 C134 429 39 338 39 193 C39 72 112 -9 213 -9 L213 -9 Z M247 77 C182 77 142 124 142 195 C142 282 191 342 268 342 C335 342 377 292 376 220 C376 137 322 77 247 77 L247 77 Z " />
<glyph glyph-name="e" unicode="e" horiz-adv-x="517" d="M143 177 L473 177 C491 322 416 429 274 429 C148 429 42 336 42 202 C42 78 131 -9 266 -9 C344 -9 398 15 443 54 L384 117 C358 94 323 73 267 73 C192 73 149 118 143 177 L143 177 Z M146 245 C160 309 205 349 271 349 C341 349 377 304 378 245 L146 245 Z " />
<glyph glyph-name="f" unicode="f" horiz-adv-x="339" d="M124 337 L49 -90 C42 -129 27 -135 7 -135 L-28 -135 L-43 -212 L12 -212 C89 -212 129 -197 146 -97 L222 337 L332 337 L346 420 L237 420 L267 589 C275 634 294 646 320 646 C343 646 356 636 367 622 L431 681 C404 716 369 735 316 735 C233 735 186 688 169 593 L139 420 L71 420 L56 337 L124 337 Z " />
<glyph glyph-name="g" unicode="g" horiz-adv-x="534" d="M199 -222 C317 -222 408 -165 433 -23 L511 420 L412 420 L399 329 C374 394 316 429 248 429 C135 429 40 338 40 193 C40 72 113 -9 213 -9 C275 -9 319 22 350 68 L335 -10 C318 -97 271 -137 199 -137 C136 -137 97 -110 67 -67 L-1 -127 C30 -177 99 -222 199 -222 L199 -222 Z M248 77 C183 77 143 124 143 195 C143 282 192 342 269 342 C336 342 377 292 377 220 C377 137 323 77 248 77 L248 77 Z " />
<glyph glyph-name="h" unicode="h" horiz-adv-x="517" d="M29 0 L128 0 L169 232 C182 305 220 340 285 340 C344 340 370 301 358 232 L337 110 C323 32 356 0 431 0 L474 0 L487 76 L453 76 C436 76 431 85 434 105 L458 237 C478 354 420 429 329 429 C264 429 221 396 189 345 L255 722 L156 722 L29 0 Z " />
<glyph glyph-name="i" unicode="i" horiz-adv-x="245" d="M183 518 C218 518 248 544 248 583 C248 621 217 647 182 647 C148 647 118 621 118 583 C118 544 149 518 183 518 L183 518 Z M140 0 L189 0 L202 76 L167 76 C150 76 145 85 148 105 L204 420 L104 420 L50 107 C35 26 62 0 140 0 L140 0 Z " />
<glyph glyph-name="j" unicode="j" horiz-adv-x="240" d="M184 518 C219 518 249 544 249 583 C249 621 218 647 183 647 C149 647 119 621 119 583 C119 544 150 518 184 518 L184 518 Z M-21 -222 C55 -222 100 -176 115 -88 L205 420 L105 420 L15 -91 C10 -124 -3 -138 -29 -138 C-47 -138 -61 -131 -72 -118 L-128 -178 C-108 -202 -76 -222 -21 -222 L-21 -222 Z " />
<glyph glyph-name="k" unicode="k" horiz-adv-x="476" d="M150 127 L217 186 L283 67 C308 19 328 0 385 0 L423 0 L436 76 L407 76 C392 76 383 80 373 99 L293 243 L472 420 L357 420 L162 226 C169 248 176 276 181 305 L255 722 L156 722 L29 0 L128 0 L150 127 Z " />
<glyph glyph-name="l" unicode="l" horiz-adv-x="246" d="M143 0 L198 0 L211 76 L170 76 C152 76 148 85 151 105 L260 722 L161 722 L53 107 C38 26 65 0 143 0 L143 0 Z " />
<glyph glyph-name="m" unicode="m" horiz-adv-x="757" d="M26 0 L125 0 L166 232 C179 305 212 340 272 340 C327 340 345 301 333 232 L292 0 L391 0 L432 232 C445 305 477 340 537 340 C592 340 610 301 598 232 L576 107 C561 26 588 0 666 0 L714 0 L727 76 L693 76 C676 76 671 85 674 105 L698 237 C718 353 667 429 576 429 C519 429 466 406 428 344 C412 396 372 429 316 429 C254 429 215 399 183 348 L199 420 L100 420 L26 0 Z " />
<glyph glyph-name="n" unicode="n" horiz-adv-x="513" d="M26 0 L125 0 L166 232 C179 305 217 340 281 340 C340 340 366 301 354 232 L333 107 C318 26 345 0 423 0 L471 0 L484 76 L450 76 C433 76 428 85 431 105 L454 237 C475 354 417 429 325 429 C261 429 214 395 182 340 L199 420 L100 420 L26 0 Z " />
<glyph glyph-name="o" unicode="o" horiz-adv-x="525" d="M256 -9 C385 -9 486 84 486 217 C486 339 392 429 271 429 C143 429 41 335 41 202 C41 82 135 -9 256 -9 L256 -9 Z M259 76 C189 76 143 127 143 200 C143 283 193 343 268 343 C339 343 384 292 384 218 C384 136 335 76 259 76 L259 76 Z " />
<glyph glyph-name="p" unicode="p" horiz-adv-x="535" d="M-11 -212 L88 -212 L141 92 C166 30 221 -9 293 -9 C403 -9 498 86 498 227 C498 349 424 429 323 429 C265 429 217 398 183 346 L199 420 L100 420 L-11 -212 Z M268 77 C201 77 160 128 160 199 C160 283 214 342 289 342 C354 342 395 296 395 224 C395 138 345 77 268 77 L268 77 Z " />
<glyph glyph-name="q" unicode="q" horiz-adv-x="536" d="M409 -212 L457 -212 L470 -136 L436 -136 C419 -136 414 -127 417 -107 L510 420 L411 420 L398 329 C374 394 316 429 247 429 C134 429 39 338 39 193 C39 72 112 -9 213 -9 C275 -9 319 22 349 68 L319 -105 C304 -186 331 -212 409 -212 L409 -212 Z M247 77 C182 77 142 124 142 195 C142 282 191 342 268 342 C335 342 377 292 376 220 C376 137 322 77 247 77 L247 77 Z " />
<glyph glyph-name="r" unicode="r" horiz-adv-x="354" d="M26 0 L125 0 L160 203 C177 298 220 335 283 335 C302 335 317 332 331 323 L369 413 C353 422 337 428 310 428 C260 428 217 402 180 334 L199 420 L100 420 L26 0 Z " />
<glyph glyph-name="s" unicode="s" horiz-adv-x="407" d="M186 -9 C296 -9 351 44 351 118 C351 194 298 223 232 254 C184 276 163 288 163 313 C163 338 185 352 216 352 C255 352 275 334 292 312 L357 366 C328 403 281 429 217 429 C135 429 71 386 71 306 C71 242 113 209 171 180 C234 150 256 142 256 115 C256 88 237 70 188 70 C136 70 105 93 81 129 L10 81 C41 30 100 -9 186 -9 L186 -9 Z " />
<glyph glyph-name="t" unicode="t" horiz-adv-x="345" d="M117 337 L83 144 C63 29 123 -8 198 -8 C250 -8 281 8 303 27 L264 95 C252 86 236 77 213 77 C186 77 172 92 181 140 L216 337 L323 337 L338 420 L230 420 L269 639 L170 639 L131 420 L69 420 L55 337 L117 337 Z " />
<glyph glyph-name="u" unicode="u" horiz-adv-x="497" d="M228 -9 C344 -9 411 49 432 168 L476 420 L377 420 L335 180 C322 106 293 77 233 77 C175 77 140 107 155 189 L196 420 L97 420 L58 197 C35 67 107 -9 228 -9 L228 -9 Z " />
<glyph glyph-name="v" unicode="v" horiz-adv-x="464" d="M204 -9 L217 -9 L484 420 L380 420 L271 233 C251 199 231 147 231 147 C231 147 225 199 213 233 L156 420 L53 420 L204 -9 Z " />
<glyph glyph-name="w" unicode="w" horiz-adv-x="672" d="M174 -10 L185 -10 L324 210 C341 236 356 279 356 279 C356 279 364 232 373 206 L441 -10 L452 -10 L693 420 L590 420 L493 238 C477 209 458 161 458 161 C458 161 450 208 439 238 L379 428 L369 428 L254 237 C236 207 216 161 216 161 C216 161 209 207 201 238 L158 420 L55 420 L174 -10 Z " />
<glyph glyph-name="x" unicode="x" horiz-adv-x="479" d="M-13 0 L100 0 L192 105 C211 127 232 171 232 171 C232 171 244 128 256 103 L310 0 L420 0 L298 229 L466 420 L353 420 L281 337 C266 318 249 280 249 280 C249 280 238 318 229 339 L188 420 L79 420 L183 222 L-13 0 Z " />
<glyph glyph-name="y" unicode="y" horiz-adv-x="465" d="M15 -212 L120 -212 L485 420 L380 420 L260 209 C242 177 227 126 227 126 C227 126 223 179 214 211 L158 420 L53 420 L164 44 L15 -212 Z " />
<glyph glyph-name="z" unicode="z" horiz-adv-x="428" d="M5 0 L356 0 L371 81 L171 81 L432 409 L432 420 L93 420 L78 338 L266 338 L5 11 L5 0 Z " />
<glyph glyph-name="braceleft" unicode="&#x7b;" horiz-adv-x="383" d="M228 -128 L291 -128 L307 -44 L247 -44 C210 -44 197 -28 205 18 L231 165 C242 230 217 260 171 269 C221 276 255 294 267 364 L305 579 C313 625 330 638 364 638 L427 638 L441 722 L351 722 C282 722 225 695 205 585 L169 387 C158 327 139 314 101 314 L43 314 L28 230 L89 230 C125 230 138 217 130 165 L105 25 C85 -92 154 -128 228 -128 L228 -128 Z " />
<glyph glyph-name="bar" unicode="&#x7c;" horiz-adv-x="253" d="M19 -128 L115 -128 L265 722 L169 722 L19 -128 Z " />
<glyph glyph-name="braceright" unicode="&#x7d;" horiz-adv-x="383" d="M-29 -128 L62 -128 C131 -128 189 -100 208 9 L234 156 C245 216 264 229 303 229 L360 229 L375 313 L315 313 C279 313 264 326 273 378 L307 569 C328 686 259 722 184 722 L121 722 L106 638 L166 638 C203 638 215 622 207 576 L172 378 C161 313 186 282 232 274 C183 267 149 249 137 179 L108 15 C100 -31 83 -44 49 -44 L-14 -44 L-29 -128 Z " />
<glyph glyph-name="asciitilde" unicode="&#x7e;" horiz-adv-x="378" d="M113 216 C121 254 131 269 149 269 C164 269 174 257 195 241 C212 227 232 215 258 215 C309 215 350 257 361 340 L292 348 C284 309 275 295 256 295 C242 295 231 306 210 322 C193 336 174 348 147 348 C96 348 56 307 44 223 L113 216 Z " />
<glyph glyph-name="nbspace" unicode="&#xa0;" horiz-adv-x="179" d="" />
<glyph glyph-name="exclamdown" unicode="&#xa1;" horiz-adv-x="252" d="M199 552 C234 552 265 580 265 619 C265 658 234 686 199 686 C164 686 133 658 133 619 C133 580 164 552 199 552 L199 552 Z M33 0 L144 0 L214 470 L138 470 L33 0 Z " />
<glyph glyph-name="cent" unicode="&#xa2;" horiz-adv-x="455" d="M190 -1 L170 -116 L224 -116 L243 -9 C247 -9 250 -9 254 -9 C326 -9 373 15 408 49 L350 113 C333 97 307 76 258 75 L305 340 C331 332 351 316 366 294 L439 348 C410 388 373 415 319 425 L339 535 L285 535 L266 429 C137 427 41 333 41 203 C41 102 101 24 190 -1 L190 -1 Z M251 344 L205 85 C164 104 141 148 141 203 C141 282 184 336 251 344 L251 344 Z " />
<glyph glyph-name="sterling" unicode="&#xa3;" horiz-adv-x="605" d="M196 275 C202 243 207 212 207 182 L207 178 C183 190 157 199 125 199 C63 199 10 161 10 93 C10 35 61 -9 127 -9 C181 -9 226 13 257 51 C294 19 338 -9 403 -9 C477 -9 521 18 564 72 L500 131 C474 98 448 78 401 78 C357 78 323 97 291 120 C297 140 300 163 300 187 C300 217 297 246 294 275 L460 275 L474 351 L284 351 C278 390 273 429 273 467 C273 556 319 601 392 601 C453 601 486 573 513 517 L595 565 C559 642 495 688 393 688 C255 688 168 597 168 468 C168 427 174 388 181 351 L110 351 L96 275 L196 275 Z M195 106 C182 72 158 56 126 56 C97 56 81 73 81 95 C81 122 98 136 128 136 C153 136 174 124 195 106 L195 106 Z " />
<glyph glyph-name="currency" unicode="&#xa4;" horiz-adv-x="727" d="M135 366 C134 350 133 334 133 317 C133 309 133 301 134 293 L55 293 L42 217 L145 217 C179 79 287 -9 429 -9 C554 -9 628 42 685 115 L609 173 C573 123 516 81 432 81 C340 81 278 131 252 217 L497 217 L510 293 L240 293 C239 301 239 310 239 318 C239 335 240 351 241 366 L522 366 L535 442 L258 442 C291 539 365 598 462 598 C548 598 595 562 627 502 L710 549 C665 634 588 688 465 688 C315 688 193 593 150 442 L80 442 L67 366 L135 366 Z " />
<glyph glyph-name="yen" unicode="&#xa5;" horiz-adv-x="627" d="M401 268 L576 268 L590 344 L452 344 L680 680 L571 680 L381 393 C354 352 328 284 328 284 C328 284 320 353 307 396 L223 680 L115 680 L225 344 L88 344 L74 268 L250 268 L266 221 L260 191 L60 191 L46 115 L246 115 L226 0 L329 0 L349 115 L548 115 L562 191 L362 191 L367 217 L401 268 Z " />
<glyph glyph-name="brokenbar" unicode="&#xa6;" horiz-adv-x="222" d="M119 181 C155 181 187 210 187 251 C187 291 155 319 119 319 C82 319 51 291 51 251 C51 210 82 181 119 181 L119 181 Z " />
<glyph glyph-name="section" unicode="&#xa7;" horiz-adv-x="550" d="M165 418 C104 399 47 356 47 276 C47 214 74 170 152 125 L248 69 C297 40 320 21 320 -17 C320 -57 291 -90 226 -90 C164 -90 129 -59 99 -11 L17 -64 C55 -132 128 -180 227 -180 C351 -180 425 -116 425 -17 C425 15 418 43 402 68 C467 90 517 129 517 203 C517 266 486 316 407 363 L305 423 C266 445 249 472 249 512 C249 558 281 599 335 599 C378 599 404 580 428 538 L511 588 C481 646 425 688 335 688 C222 688 143 608 143 507 C143 472 151 443 165 418 L165 418 Z M355 120 C340 132 323 144 303 156 L207 212 C161 239 148 259 148 295 C148 332 172 355 205 369 C218 357 233 347 250 337 L351 278 C397 251 417 227 417 191 C417 156 393 133 355 120 L355 120 Z " />
<glyph glyph-name="dieresis" unicode="&#xa8;" horiz-adv-x="494" d="M407 513 C437 513 465 539 465 572 C465 605 437 631 407 631 C377 631 348 605 348 572 C348 539 377 513 407 513 L407 513 Z M217 513 C248 513 276 539 276 572 C276 605 248 631 217 631 C187 631 159 605 159 572 C159 539 187 513 217 513 L217 513 Z " />
<glyph glyph-name="copyright" unicode="&#xa9;" horiz-adv-x="786" d="M417 -8 C605 -8 766 139 766 340 C766 541 605 688 417 688 C229 688 68 541 68 340 C68 139 229 -8 417 -8 L417 -8 Z M417 41 C253 41 120 168 120 340 C120 512 253 639 417 639 C581 639 714 512 714 340 C714 168 581 41 417 41 L417 41 Z M413 127 C486 127 541 155 581 206 L514 260 C492 235 464 213 418 213 C350 213 304 265 304 338 C304 417 352 468 423 468 C469 468 498 448 520 419 L592 473 C554 525 499 555 423 555 C302 555 206 465 206 337 C206 216 299 127 413 127 L413 127 Z " />
<glyph glyph-name="ordfeminine" unicode="&#xaa;" horiz-adv-x="480" d="M239 318 C291 318 325 342 353 386 L353 381 C355 348 368 325 433 325 L477 325 L488 394 L460 394 C446 394 440 402 443 419 L489 680 L400 680 L389 605 C369 659 324 688 268 688 C175 688 92 614 92 489 C92 384 158 318 239 318 L239 318 Z M269 393 C216 393 186 433 186 491 C186 563 225 611 286 611 C340 611 370 571 370 512 C370 443 328 393 269 393 L269 393 Z " />
<glyph glyph-name="guillemotleft" unicode="&#xab;" horiz-adv-x="443" d="M282 35 L381 35 L311 193 L437 367 L334 367 L214 200 L213 192 L282 35 Z M102 35 L201 35 L131 193 L258 367 L155 367 L34 200 L33 192 L102 35 Z " />
<glyph glyph-name="logicalnot" unicode="&#xac;" horiz-adv-x="222" d="M119 181 C155 181 187 210 187 251 C187 291 155 319 119 319 C82 319 51 291 51 251 C51 210 82 181 119 181 L119 181 Z " />
<glyph glyph-name="registered" unicode="&#xae;" horiz-adv-x="510" d="M301 259 C421 259 520 349 520 475 C520 601 421 692 301 692 C182 692 85 601 85 475 C85 349 182 259 301 259 L301 259 Z M301 299 C202 299 130 366 130 475 C130 585 202 651 301 651 C402 651 475 585 475 475 C475 366 402 299 301 299 L301 299 Z M353 430 C383 442 402 468 403 503 C405 548 376 590 313 590 L241 590 L201 363 L255 363 L265 420 L303 420 L329 363 L384 363 L353 430 Z M272 462 L286 545 L311 545 C338 545 351 528 349 502 C347 474 333 462 304 462 L272 462 Z " />
<glyph glyph-name="&amp;#xaf;" unicode="&#xaf;" horiz-adv-x="493" d="M192 529 L416 529 L429 603 L205 603 L192 529 Z " />
<glyph glyph-name="&amp;#x2c9;" unicode="&#x2c9;" horiz-adv-x="493" d="M192 529 L416 529 L429 603 L205 603 L192 529 Z " />
<glyph glyph-name="degree" unicode="&#xb0;" horiz-adv-x="359" d="M237 408 C317 408 382 471 382 553 C382 628 320 688 243 688 C165 688 98 628 98 546 C98 470 160 408 237 408 L237 408 Z M238 474 C199 474 171 505 171 545 C171 590 200 622 242 622 C282 622 309 592 309 551 C309 506 280 474 238 474 L238 474 Z " />
<glyph glyph-name="twosuperior" unicode="&#xb2;" horiz-adv-x="222" d="M119 181 C155 181 187 210 187 251 C187 291 155 319 119 319 C82 319 51 291 51 251 C51 210 82 181 119 181 L119 181 Z " />
<glyph glyph-name="threesuperior" unicode="&#xb3;" horiz-adv-x="222" d="M119 181 C155 181 187 210 187 251 C187 291 155 319 119 319 C82 319 51 291 51 251 C51 210 82 181 119 181 L119 181 Z " />
<glyph glyph-name="acute" unicode="&#xb4;" horiz-adv-x="493" d="M249 499 L327 499 L458 689 L338 689 L249 499 Z " />
<glyph glyph-name="&amp;#xb5;" unicode="&#xb5;" horiz-adv-x="222" d="M119 181 C155 181 187 210 187 251 C187 291 155 319 119 319 C82 319 51 291 51 251 C51 210 82 181 119 181 L119 181 Z " />
<glyph glyph-name="&amp;#x3bc;" unicode="&#x3bc;" horiz-adv-x="222" d="M119 181 C155 181 187 210 187 251 C187 291 155 319 119 319 C82 319 51 291 51 251 C51 210 82 181 119 181 L119 181 Z " />
<glyph glyph-name="paragraph" unicode="&#xb6;" horiz-adv-x="655" d="M318 274 L269 0 L367 0 L472 594 L544 594 L439 0 L538 0 L658 680 L321 680 C174 680 88 581 88 462 C88 358 161 274 292 274 L318 274 Z M333 361 L298 361 C238 361 197 396 197 466 C197 548 247 594 316 594 L374 594 L333 361 Z " />
<glyph glyph-name="&amp;#xb7;" unicode="&#xb7;" horiz-adv-x="222" d="M119 181 C155 181 187 210 187 251 C187 291 155 319 119 319 C82 319 51 291 51 251 C51 210 82 181 119 181 L119 181 Z " />
<glyph glyph-name="&amp;#x2219;" unicode="&#x2219;" horiz-adv-x="222" d="M119 181 C155 181 187 210 187 251 C187 291 155 319 119 319 C82 319 51 291 51 251 C51 210 82 181 119 181 L119 181 Z " />
<glyph glyph-name="cedilla" unicode="&#xb8;" horiz-adv-x="493" d="M205 -236 C259 -236 307 -201 307 -138 C307 -85 271 -53 234 -47 L242 0 L184 0 L168 -93 L195 -93 C229 -93 243 -112 243 -137 C243 -163 226 -179 199 -179 C170 -179 157 -163 148 -146 L96 -175 C112 -209 147 -236 205 -236 L205 -236 Z " />
<glyph glyph-name="onesuperior" unicode="&#xb9;" horiz-adv-x="222" d="M119 181 C155 181 187 210 187 251 C187 291 155 319 119 319 C82 319 51 291 51 251 C51 210 82 181 119 181 L119 181 Z " />
<glyph glyph-name="ordmasculine" unicode="&#xba;" horiz-adv-x="456" d="M273 316 C378 316 468 393 468 507 C468 608 391 688 288 688 C182 688 93 608 93 496 C93 393 170 316 273 316 L273 316 Z M275 392 C220 392 188 434 188 494 C188 563 226 611 285 611 C340 611 373 567 373 510 C373 440 333 392 275 392 L275 392 Z " />
<glyph glyph-name="guillemotright" unicode="&#xbb;" horiz-adv-x="443" d="M185 35 L288 35 L409 202 L409 210 L341 367 L242 367 L312 208 L185 35 Z M6 35 L109 35 L229 202 L230 210 L161 367 L62 367 L132 208 L6 35 Z " />
<glyph glyph-name="onequarter" unicode="&#xbc;" horiz-adv-x="222" d="M119 181 C155 181 187 210 187 251 C187 291 155 319 119 319 C82 319 51 291 51 251 C51 210 82 181 119 181 L119 181 Z " />
<glyph glyph-name="onehalf" unicode="&#xbd;" horiz-adv-x="222" d="M119 181 C155 181 187 210 187 251 C187 291 155 319 119 319 C82 319 51 291 51 251 C51 210 82 181 119 181 L119 181 Z " />
<glyph glyph-name="threequarters" unicode="&#xbe;" horiz-adv-x="222" d="M119 181 C155 181 187 210 187 251 C187 291 155 319 119 319 C82 319 51 291 51 251 C51 210 82 181 119 181 L119 181 Z " />
<glyph glyph-name="questiondown" unicode="&#xbf;" horiz-adv-x="484" d="M321 553 C356 553 386 582 386 620 C386 660 356 688 321 688 C285 688 254 660 254 620 C254 582 285 553 321 553 L321 553 Z M239 -7 C330 -7 404 42 439 114 L362 159 C333 109 296 82 241 82 C179 82 140 122 140 184 C140 251 183 305 273 305 L313 305 L343 473 L250 473 L233 380 C122 374 40 297 40 184 C40 76 113 -7 239 -7 L239 -7 Z " />
<glyph glyph-name="Agrave" unicode="&#xc0;" horiz-adv-x="647" d="M362 751 L438 751 L388 941 L273 941 L362 751 Z M153 97 L454 97 L477 0 L582 0 L410 687 L398 687 L-7 0 L96 0 L153 97 Z M434 183 L203 183 L326 394 C352 439 371 488 371 488 C371 488 375 436 386 390 L434 183 Z " />
<glyph glyph-name="Aacute" unicode="&#xc1;" horiz-adv-x="647" d="M366 751 L444 751 L575 941 L455 941 L366 751 Z M153 97 L454 97 L477 0 L582 0 L410 687 L398 687 L-7 0 L96 0 L153 97 Z M434 183 L203 183 L326 394 C352 439 371 488 371 488 C371 488 375 436 386 390 L434 183 Z " />
<glyph glyph-name="Acircumflex" unicode="&#xc2;" horiz-adv-x="647" d="M250 750 L334 750 L414 838 L463 750 L541 750 L436 954 L426 954 L250 750 Z M153 97 L454 97 L477 0 L582 0 L410 687 L398 687 L-7 0 L96 0 L153 97 Z M434 183 L203 183 L326 394 C352 439 371 488 371 488 C371 488 375 436 386 390 L434 183 Z " />
<glyph glyph-name="Atilde" unicode="&#xc3;" horiz-adv-x="647" d="M313 748 C321 786 331 801 349 801 C364 801 374 790 395 773 C412 759 432 747 458 747 C510 747 550 789 561 872 L493 880 C484 841 475 827 456 827 C443 827 432 838 410 854 C393 868 374 880 347 880 C297 880 257 839 245 755 L313 748 Z M153 97 L454 97 L477 0 L582 0 L410 687 L398 687 L-7 0 L96 0 L153 97 Z M434 183 L203 183 L326 394 C352 439 371 488 371 488 C371 488 375 436 386 390 L434 183 Z " />
<glyph glyph-name="Adieresis" unicode="&#xc4;" horiz-adv-x="647" d="M508 765 C538 765 566 791 566 824 C566 857 538 883 508 883 C478 883 449 857 449 824 C449 791 478 765 508 765 L508 765 Z M318 765 C349 765 377 791 377 824 C377 857 349 883 318 883 C288 883 260 857 260 824 C260 791 288 765 318 765 L318 765 Z M153 97 L454 97 L477 0 L582 0 L410 687 L398 687 L-7 0 L96 0 L153 97 Z M434 183 L203 183 L326 394 C352 439 371 488 371 488 C371 488 375 436 386 390 L434 183 Z " />
<glyph glyph-name="Aring" unicode="&#xc5;" horiz-adv-x="647" d="M411 731 C476 731 525 781 525 840 C525 901 476 950 411 950 C347 950 297 901 297 840 C297 781 347 731 411 731 L411 731 Z M153 97 L454 97 L477 0 L582 0 L410 687 L398 687 L-7 0 L96 0 L153 97 Z M411 789 C384 789 363 809 363 840 C363 872 384 892 411 892 C439 892 459 872 459 840 C459 809 439 789 411 789 L411 789 Z M434 183 L203 183 L326 394 C352 439 371 488 371 488 C371 488 375 436 386 390 L434 183 Z " />
<glyph glyph-name="AE" unicode="&#xc6;" horiz-adv-x="948" d="M178 96 L437 96 L420 0 L856 0 L872 90 L538 90 L563 233 L847 233 L863 322 L579 322 L626 590 L947 590 L963 680 L554 680 L-15 0 L100 0 L178 96 Z M452 182 L249 182 L462 441 C487 471 523 532 523 532 C523 532 503 471 496 432 L452 182 Z " />
<glyph glyph-name="Ccedilla" unicode="&#xc7;" horiz-adv-x="710" d="M332 -4 L317 -93 L344 -93 C378 -93 392 -112 392 -137 C392 -163 375 -179 348 -179 C319 -179 306 -163 297 -146 L245 -175 C261 -209 296 -236 354 -236 C408 -236 456 -201 456 -138 C456 -85 420 -53 383 -47 L389 -9 C391 -9 392 -9 393 -9 C518 -9 600 31 667 113 L591 175 C548 124 490 83 396 83 C270 83 177 183 177 323 C177 476 283 596 428 596 C519 596 576 555 614 496 L697 552 C639 641 555 688 431 688 C234 688 69 534 69 323 C69 155 177 24 332 -4 L332 -4 Z " />
<glyph glyph-name="Egrave" unicode="&#xc8;" horiz-adv-x="571" d="M344 751 L420 751 L370 941 L255 941 L344 751 Z M43 0 L479 0 L495 90 L161 90 L186 233 L470 233 L486 322 L202 322 L249 590 L570 590 L586 680 L163 680 L43 0 Z " />
<glyph glyph-name="Eacute" unicode="&#xc9;" horiz-adv-x="571" d="M339 751 L417 751 L548 941 L428 941 L339 751 Z M43 0 L479 0 L495 90 L161 90 L186 233 L470 233 L486 322 L202 322 L249 590 L570 590 L586 680 L163 680 L43 0 Z " />
<glyph glyph-name="Ecircumflex" unicode="&#xca;" horiz-adv-x="571" d="M236 750 L320 750 L400 838 L449 750 L527 750 L422 954 L412 954 L236 750 Z M43 0 L479 0 L495 90 L161 90 L186 233 L470 233 L486 322 L202 322 L249 590 L570 590 L586 680 L163 680 L43 0 Z " />
<glyph glyph-name="Edieresis" unicode="&#xcb;" horiz-adv-x="571" d="M482 765 C512 765 540 791 540 824 C540 857 512 883 482 883 C452 883 423 857 423 824 C423 791 452 765 482 765 L482 765 Z M292 765 C323 765 351 791 351 824 C351 857 323 883 292 883 C262 883 234 857 234 824 C234 791 262 765 292 765 L292 765 Z M43 0 L479 0 L495 90 L161 90 L186 233 L470 233 L486 322 L202 322 L249 590 L570 590 L586 680 L163 680 L43 0 Z " />
<glyph glyph-name="Igrave" unicode="&#xcc;" horiz-adv-x="271" d="M190 751 L266 751 L216 941 L101 941 L190 751 Z M48 0 L151 0 L271 680 L168 680 L48 0 Z " />
<glyph glyph-name="Iacute" unicode="&#xcd;" horiz-adv-x="271" d="M180 751 L258 751 L389 941 L269 941 L180 751 Z M48 0 L151 0 L271 680 L168 680 L48 0 Z " />
<glyph glyph-name="Icircumflex" unicode="&#xce;" horiz-adv-x="271" d="M81 750 L165 750 L245 838 L294 750 L372 750 L267 954 L257 954 L81 750 Z M48 0 L151 0 L271 680 L168 680 L48 0 Z " />
<glyph glyph-name="Idieresis" unicode="&#xcf;" horiz-adv-x="271" d="M340 765 C370 765 398 791 398 824 C398 857 370 883 340 883 C310 883 281 857 281 824 C281 791 310 765 340 765 L340 765 Z M150 765 C181 765 209 791 209 824 C209 857 181 883 150 883 C120 883 92 857 92 824 C92 791 120 765 150 765 L150 765 Z M48 0 L151 0 L271 680 L168 680 L48 0 Z " />
<glyph glyph-name="Eth" unicode="&#xd0;" horiz-adv-x="663" d="M86 242 L43 0 L254 0 C488 0 644 144 644 372 C644 555 529 680 329 680 L163 680 L101 331 L34 331 L19 242 L86 242 Z M204 331 L250 590 L317 590 C470 590 537 503 537 376 C537 212 445 90 254 90 L162 90 L189 242 L354 242 L370 331 L204 331 Z " />
<glyph glyph-name="Ntilde" unicode="&#xd1;" horiz-adv-x="690" d="M343 748 C351 786 361 801 379 801 C394 801 404 790 425 773 C442 759 462 747 488 747 C540 747 580 789 591 872 L523 880 C514 841 505 827 486 827 C473 827 462 838 440 854 C423 868 404 880 377 880 C327 880 287 839 275 755 L343 748 Z M561 -7 L574 -7 L695 680 L599 680 L532 299 C524 255 522 198 522 198 C522 198 497 248 473 279 L177 687 L164 687 L43 0 L139 0 L206 381 C213 419 216 481 216 481 C216 481 242 432 266 401 L561 -7 Z " />
<glyph glyph-name="Ograve" unicode="&#xd2;" horiz-adv-x="782" d="M409 751 L485 751 L435 941 L320 941 L409 751 Z M397 -9 C594 -9 760 138 760 357 C760 552 617 688 433 688 C235 688 70 542 70 323 C70 128 212 -9 397 -9 L397 -9 Z M400 83 C267 83 176 180 176 321 C176 483 281 596 430 596 C562 596 654 501 654 359 C654 197 550 83 400 83 L400 83 Z " />
<glyph glyph-name="Oacute" unicode="&#xd3;" horiz-adv-x="782" d="M411 751 L489 751 L620 941 L500 941 L411 751 Z M397 -9 C594 -9 760 138 760 357 C760 552 617 688 433 688 C235 688 70 542 70 323 C70 128 212 -9 397 -9 L397 -9 Z M400 83 C267 83 176 180 176 321 C176 483 281 596 430 596 C562 596 654 501 654 359 C654 197 550 83 400 83 L400 83 Z " />
<glyph glyph-name="Ocircumflex" unicode="&#xd4;" horiz-adv-x="782" d="M309 750 L393 750 L473 838 L522 750 L600 750 L495 954 L485 954 L309 750 Z M397 -9 C594 -9 760 138 760 357 C760 552 617 688 433 688 C235 688 70 542 70 323 C70 128 212 -9 397 -9 L397 -9 Z M400 83 C267 83 176 180 176 321 C176 483 281 596 430 596 C562 596 654 501 654 359 C654 197 550 83 400 83 L400 83 Z " />
<glyph glyph-name="Otilde" unicode="&#xd5;" horiz-adv-x="782" d="M371 748 C379 786 389 801 407 801 C422 801 432 790 453 773 C470 759 490 747 516 747 C568 747 608 789 619 872 L551 880 C542 841 533 827 514 827 C501 827 490 838 468 854 C451 868 432 880 405 880 C355 880 315 839 303 755 L371 748 Z M397 -9 C594 -9 760 138 760 357 C760 552 617 688 433 688 C235 688 70 542 70 323 C70 128 212 -9 397 -9 L397 -9 Z M400 83 C267 83 176 180 176 321 C176 483 281 596 430 596 C562 596 654 501 654 359 C654 197 550 83 400 83 L400 83 Z " />
<glyph glyph-name="Odieresis" unicode="&#xd6;" horiz-adv-x="782" d="M561 765 C591 765 619 791 619 824 C619 857 591 883 561 883 C531 883 502 857 502 824 C502 791 531 765 561 765 L561 765 Z M371 765 C402 765 430 791 430 824 C430 857 402 883 371 883 C341 883 313 857 313 824 C313 791 341 765 371 765 L371 765 Z M397 -9 C594 -9 760 138 760 357 C760 552 617 688 433 688 C235 688 70 542 70 323 C70 128 212 -9 397 -9 L397 -9 Z M400 83 C267 83 176 180 176 321 C176 483 281 596 430 596 C562 596 654 501 654 359 C654 197 550 83 400 83 L400 83 Z " />
<glyph glyph-name="multiply" unicode="&#xd7;" horiz-adv-x="222" d="M119 181 C155 181 187 210 187 251 C187 291 155 319 119 319 C82 319 51 291 51 251 C51 210 82 181 119 181 L119 181 Z " />
<glyph glyph-name="Oslash" unicode="&#xd8;" horiz-adv-x="782" d="M700 555 L780 631 L725 689 L645 613 C588 661 514 688 429 688 C235 688 70 542 70 323 C70 247 92 178 130 124 L50 48 L104 -10 L184 66 C241 19 315 -9 400 -9 C594 -9 760 138 760 357 C760 433 738 501 700 555 L700 555 Z M205 195 C186 231 176 273 176 321 C176 483 283 596 428 596 C487 596 537 578 575 546 L205 195 Z M625 484 C644 449 654 407 654 359 C654 197 548 83 402 83 C343 83 293 101 255 133 L625 484 Z " />
<glyph glyph-name="Ugrave" unicode="&#xd9;" horiz-adv-x="658" d="M372 751 L448 751 L398 941 L283 941 L372 751 Z M318 -9 C460 -9 557 60 585 215 L667 680 L563 680 L484 231 C466 128 413 83 323 83 C223 83 168 141 188 255 L263 680 L159 680 L85 261 C56 92 166 -9 318 -9 L318 -9 Z " />
<glyph glyph-name="Uacute" unicode="&#xda;" horiz-adv-x="658" d="M372 751 L450 751 L581 941 L461 941 L372 751 Z M318 -9 C460 -9 557 60 585 215 L667 680 L563 680 L484 231 C466 128 413 83 323 83 C223 83 168 141 188 255 L263 680 L159 680 L85 261 C56 92 166 -9 318 -9 L318 -9 Z " />
<glyph glyph-name="Ucircumflex" unicode="&#xdb;" horiz-adv-x="658" d="M272 750 L356 750 L436 838 L485 750 L563 750 L458 954 L448 954 L272 750 Z M318 -9 C460 -9 557 60 585 215 L667 680 L563 680 L484 231 C466 128 413 83 323 83 C223 83 168 141 188 255 L263 680 L159 680 L85 261 C56 92 166 -9 318 -9 L318 -9 Z " />
<glyph glyph-name="Udieresis" unicode="&#xdc;" horiz-adv-x="658" d="M520 765 C550 765 578 791 578 824 C578 857 550 883 520 883 C490 883 461 857 461 824 C461 791 490 765 520 765 L520 765 Z M330 765 C361 765 389 791 389 824 C389 857 361 883 330 883 C300 883 272 857 272 824 C272 791 300 765 330 765 L330 765 Z M318 -9 C460 -9 557 60 585 215 L667 680 L563 680 L484 231 C466 128 413 83 323 83 C223 83 168 141 188 255 L263 680 L159 680 L85 261 C56 92 166 -9 318 -9 L318 -9 Z " />
<glyph glyph-name="Yacute" unicode="&#xdd;" horiz-adv-x="652" d="M371 751 L449 751 L580 941 L460 941 L371 751 Z M279 219 L241 0 L344 0 L382 216 L709 680 L597 680 L399 402 C371 362 344 299 344 299 C344 299 335 362 320 402 L219 680 L110 680 L279 219 Z " />
<glyph glyph-name="Thorn" unicode="&#xde;" horiz-adv-x="574" d="M254 604 L267 680 L164 680 L44 0 L147 0 L162 86 L247 86 C442 86 556 191 556 366 C557 503 463 604 296 604 L254 604 Z M178 175 L238 515 L289 515 C403 515 451 454 450 366 C450 248 392 175 249 175 L178 175 Z " />
<glyph glyph-name="germandbls" unicode="&#xdf;" horiz-adv-x="567" d="M-82 -212 L-26 -212 C52 -212 91 -197 109 -97 L222 545 C235 620 261 653 314 653 C356 653 380 628 380 592 C380 568 374 544 356 515 L295 416 C268 372 257 335 257 302 C257 250 287 219 348 185 C391 163 419 149 419 120 C419 91 398 70 356 70 C314 70 283 89 261 123 L194 72 C219 32 273 -9 358 -9 C467 -9 516 51 516 125 C516 199 467 231 407 265 C369 286 355 300 355 323 C355 341 362 359 379 386 L440 485 C466 527 474 558 474 597 C474 690 395 735 315 735 C220 735 148 684 124 551 L11 -90 C4 -129 -11 -135 -31 -135 L-68 -135 L-82 -212 Z " />
<glyph glyph-name="agrave" unicode="&#xe0;" horiz-adv-x="530" d="M254 499 L330 499 L280 689 L165 689 L254 499 Z M208 -9 C270 -9 312 21 346 75 L346 66 C346 27 359 0 437 0 L485 0 L498 76 L464 76 C447 76 442 85 445 105 L500 420 L401 420 L388 329 C364 394 308 429 242 429 C132 429 39 338 39 193 C39 70 112 -9 208 -9 L208 -9 Z M243 77 C180 77 142 124 142 195 C142 282 189 342 263 342 C328 342 366 292 366 220 C366 137 314 77 243 77 L243 77 Z " />
<glyph glyph-name="aacute" unicode="&#xe1;" horiz-adv-x="530" d="M249 499 L327 499 L458 689 L338 689 L249 499 Z M208 -9 C270 -9 312 21 346 75 L346 66 C346 27 359 0 437 0 L485 0 L498 76 L464 76 C447 76 442 85 445 105 L500 420 L401 420 L388 329 C364 394 308 429 242 429 C132 429 39 338 39 193 C39 70 112 -9 208 -9 L208 -9 Z M243 77 C180 77 142 124 142 195 C142 282 189 342 263 342 C328 342 366 292 366 220 C366 137 314 77 243 77 L243 77 Z " />
<glyph glyph-name="acircumflex" unicode="&#xe2;" horiz-adv-x="530" d="M159 498 L243 498 L323 586 L372 498 L450 498 L345 702 L335 702 L159 498 Z M208 -9 C270 -9 312 21 346 75 L346 66 C346 27 359 0 437 0 L485 0 L498 76 L464 76 C447 76 442 85 445 105 L500 420 L401 420 L388 329 C364 394 308 429 242 429 C132 429 39 338 39 193 C39 70 112 -9 208 -9 L208 -9 Z M243 77 C180 77 142 124 142 195 C142 282 189 342 263 342 C328 342 366 292 366 220 C366 137 314 77 243 77 L243 77 Z " />
<glyph glyph-name="atilde" unicode="&#xe3;" horiz-adv-x="530" d="M228 496 C236 534 246 549 264 549 C279 549 289 538 310 521 C327 507 347 495 373 495 C425 495 465 537 476 620 L408 628 C399 589 390 575 371 575 C358 575 347 586 325 602 C308 616 289 628 262 628 C212 628 172 587 160 503 L228 496 Z M208 -9 C270 -9 312 21 346 75 L346 66 C346 27 359 0 437 0 L485 0 L498 76 L464 76 C447 76 442 85 445 105 L500 420 L401 420 L388 329 C364 394 308 429 242 429 C132 429 39 338 39 193 C39 70 112 -9 208 -9 L208 -9 Z M243 77 C180 77 142 124 142 195 C142 282 189 342 263 342 C328 342 366 292 366 220 C366 137 314 77 243 77 L243 77 Z " />
<glyph glyph-name="adieresis" unicode="&#xe4;" horiz-adv-x="530" d="M419 513 C449 513 477 539 477 572 C477 605 449 631 419 631 C389 631 360 605 360 572 C360 539 389 513 419 513 L419 513 Z M229 513 C260 513 288 539 288 572 C288 605 260 631 229 631 C199 631 171 605 171 572 C171 539 199 513 229 513 L229 513 Z M208 -9 C270 -9 312 21 346 75 L346 66 C346 27 359 0 437 0 L485 0 L498 76 L464 76 C447 76 442 85 445 105 L500 420 L401 420 L388 329 C364 394 308 429 242 429 C132 429 39 338 39 193 C39 70 112 -9 208 -9 L208 -9 Z M243 77 C180 77 142 124 142 195 C142 282 189 342 263 342 C328 342 366 292 366 220 C366 137 314 77 243 77 L243 77 Z " />
<glyph glyph-name="aring" unicode="&#xe5;" horiz-adv-x="530" d="M318 479 C383 479 432 529 432 588 C432 649 383 698 318 698 C254 698 204 649 204 588 C204 529 254 479 318 479 L318 479 Z M208 -9 C270 -9 312 21 346 75 L346 66 C346 27 359 0 437 0 L485 0 L498 76 L464 76 C447 76 442 85 445 105 L500 420 L401 420 L388 329 C364 394 308 429 242 429 C132 429 39 338 39 193 C39 70 112 -9 208 -9 L208 -9 Z M318 537 C291 537 270 557 270 588 C270 620 291 640 318 640 C346 640 366 620 366 588 C366 557 346 537 318 537 L318 537 Z M243 77 C180 77 142 124 142 195 C142 282 189 342 263 342 C328 342 366 292 366 220 C366 137 314 77 243 77 L243 77 Z " />
<glyph glyph-name="ae" unicode="&#xe6;" horiz-adv-x="787" d="M382 357 C356 404 306 429 244 429 C167 429 111 400 77 363 L132 302 C156 328 193 349 240 349 C299 349 327 310 316 244 L197 244 C98 244 21 212 21 114 C21 36 88 -9 183 -9 C276 -9 329 27 358 87 C391 29 451 -9 535 -9 C613 -9 667 15 712 54 L653 117 C627 94 592 73 536 73 C461 73 418 118 412 177 L742 177 C760 322 685 429 544 429 C476 429 419 402 382 357 L382 357 Z M415 245 C429 309 474 349 540 349 C610 349 646 304 647 245 L415 245 Z M307 185 L300 144 C292 98 256 70 193 70 C142 70 120 91 120 125 C121 167 150 185 196 185 L307 185 Z " />
<glyph glyph-name="ccedilla" unicode="&#xe7;" horiz-adv-x="454" d="M187 0 L171 -93 L198 -93 C232 -93 246 -112 246 -137 C246 -163 229 -179 202 -179 C173 -179 160 -163 151 -146 L99 -175 C115 -209 150 -236 208 -236 C262 -236 310 -201 310 -138 C310 -85 274 -53 237 -47 L243 -9 C247 -9 250 -9 254 -9 C326 -9 375 17 408 49 L350 114 C333 99 305 77 254 77 C184 77 143 130 143 203 C143 283 193 342 269 342 C312 342 345 323 366 292 L438 349 C405 395 350 429 270 429 C139 429 41 334 41 203 C41 102 99 26 187 0 L187 0 Z " />
<glyph glyph-name="egrave" unicode="&#xe8;" horiz-adv-x="506" d="M241 499 L317 499 L267 689 L152 689 L241 499 Z M143 177 L473 177 C491 322 416 429 274 429 C148 429 42 336 42 202 C42 78 131 -9 266 -9 C344 -9 398 15 443 54 L384 117 C358 94 323 73 267 73 C192 73 149 118 143 177 L143 177 Z M146 245 C160 309 205 349 271 349 C341 349 377 304 378 245 L146 245 Z " />
<glyph glyph-name="eacute" unicode="&#xe9;" horiz-adv-x="506" d="M253 499 L331 499 L462 689 L342 689 L253 499 Z M143 177 L473 177 C491 322 416 429 274 429 C148 429 42 336 42 202 C42 78 131 -9 266 -9 C344 -9 398 15 443 54 L384 117 C358 94 323 73 267 73 C192 73 149 118 143 177 L143 177 Z M146 245 C160 309 205 349 271 349 C341 349 377 304 378 245 L146 245 Z " />
<glyph glyph-name="ecircumflex" unicode="&#xea;" horiz-adv-x="506" d="M143 498 L227 498 L307 586 L356 498 L434 498 L329 702 L319 702 L143 498 Z M143 177 L473 177 C491 322 416 429 274 429 C148 429 42 336 42 202 C42 78 131 -9 266 -9 C344 -9 398 15 443 54 L384 117 C358 94 323 73 267 73 C192 73 149 118 143 177 L143 177 Z M146 245 C160 309 205 349 271 349 C341 349 377 304 378 245 L146 245 Z " />
<glyph glyph-name="edieresis" unicode="&#xeb;" horiz-adv-x="506" d="M403 513 C433 513 461 539 461 572 C461 605 433 631 403 631 C373 631 344 605 344 572 C344 539 373 513 403 513 L403 513 Z M213 513 C244 513 272 539 272 572 C272 605 244 631 213 631 C183 631 155 605 155 572 C155 539 183 513 213 513 L213 513 Z M143 177 L473 177 C491 322 416 429 274 429 C148 429 42 336 42 202 C42 78 131 -9 266 -9 C344 -9 398 15 443 54 L384 117 C358 94 323 73 267 73 C192 73 149 118 143 177 L143 177 Z M146 245 C160 309 205 349 271 349 C341 349 377 304 378 245 L146 245 Z " />
<glyph glyph-name="igrave" unicode="&#xec;" horiz-adv-x="245" d="M133 499 L209 499 L159 689 L44 689 L133 499 Z M140 0 L189 0 L202 76 L167 76 C150 76 145 85 148 105 L204 420 L104 420 L50 107 C35 26 62 0 140 0 L140 0 Z " />
<glyph glyph-name="iacute" unicode="&#xed;" horiz-adv-x="245" d="M122 499 L200 499 L331 689 L211 689 L122 499 Z M140 0 L189 0 L202 76 L167 76 C150 76 145 85 148 105 L204 420 L104 420 L50 107 C35 26 62 0 140 0 L140 0 Z " />
<glyph glyph-name="icircumflex" unicode="&#xee;" horiz-adv-x="245" d="M22 498 L106 498 L186 586 L235 498 L313 498 L208 702 L198 702 L22 498 Z M140 0 L189 0 L202 76 L167 76 C150 76 145 85 148 105 L204 420 L104 420 L50 107 C35 26 62 0 140 0 L140 0 Z " />
<glyph glyph-name="idieresis" unicode="&#xef;" horiz-adv-x="245" d="M278 513 C308 513 336 539 336 572 C336 605 308 631 278 631 C248 631 219 605 219 572 C219 539 248 513 278 513 L278 513 Z M88 513 C119 513 147 539 147 572 C147 605 119 631 88 631 C58 631 30 605 30 572 C30 539 58 513 88 513 L88 513 Z M140 0 L189 0 L202 76 L167 76 C150 76 145 85 148 105 L204 420 L104 420 L50 107 C35 26 62 0 140 0 L140 0 Z " />
<glyph glyph-name="eth" unicode="&#xf0;" horiz-adv-x="523" d="M305 554 C336 502 363 443 377 376 C351 409 311 429 254 429 C149 429 43 343 43 207 C43 80 134 -9 256 -9 C399 -9 489 89 489 255 C489 401 442 520 379 613 L450 668 L411 719 L341 664 C319 691 295 716 272 738 L209 682 C229 659 250 634 269 607 L199 552 L237 501 L305 554 Z M259 75 C188 75 144 128 144 204 C144 287 196 345 273 345 C341 345 385 295 385 223 C385 136 336 75 259 75 L259 75 Z " />
<glyph glyph-name="ntilde" unicode="&#xf1;" horiz-adv-x="513" d="M210 496 C218 534 228 549 246 549 C261 549 271 538 292 521 C309 507 329 495 355 495 C407 495 447 537 458 620 L390 628 C381 589 372 575 353 575 C340 575 329 586 307 602 C290 616 271 628 244 628 C194 628 154 587 142 503 L210 496 Z M26 0 L125 0 L166 232 C179 305 217 340 281 340 C340 340 366 301 354 232 L333 107 C318 26 345 0 423 0 L471 0 L484 76 L450 76 C433 76 428 85 431 105 L454 237 C475 354 417 429 325 429 C261 429 214 395 182 340 L199 420 L100 420 L26 0 Z " />
<glyph glyph-name="ograve" unicode="&#xf2;" horiz-adv-x="525" d="M257 499 L333 499 L283 689 L168 689 L257 499 Z M256 -9 C385 -9 486 84 486 217 C486 339 392 429 271 429 C143 429 41 335 41 202 C41 82 135 -9 256 -9 L256 -9 Z M259 76 C189 76 143 127 143 200 C143 283 193 343 268 343 C339 343 384 292 384 218 C384 136 335 76 259 76 L259 76 Z " />
<glyph glyph-name="oacute" unicode="&#xf3;" horiz-adv-x="525" d="M250 499 L328 499 L459 689 L339 689 L250 499 Z M256 -9 C385 -9 486 84 486 217 C486 339 392 429 271 429 C143 429 41 335 41 202 C41 82 135 -9 256 -9 L256 -9 Z M259 76 C189 76 143 127 143 200 C143 283 193 343 268 343 C339 343 384 292 384 218 C384 136 335 76 259 76 L259 76 Z " />
<glyph glyph-name="ocircumflex" unicode="&#xf4;" horiz-adv-x="525" d="M154 498 L238 498 L318 586 L367 498 L445 498 L340 702 L330 702 L154 498 Z M256 -9 C385 -9 486 84 486 217 C486 339 392 429 271 429 C143 429 41 335 41 202 C41 82 135 -9 256 -9 L256 -9 Z M259 76 C189 76 143 127 143 200 C143 283 193 343 268 343 C339 343 384 292 384 218 C384 136 335 76 259 76 L259 76 Z " />
<glyph glyph-name="otilde" unicode="&#xf5;" horiz-adv-x="525" d="M210 496 C218 534 228 549 246 549 C261 549 271 538 292 521 C309 507 329 495 355 495 C407 495 447 537 458 620 L390 628 C381 589 372 575 353 575 C340 575 329 586 307 602 C290 616 271 628 244 628 C194 628 154 587 142 503 L210 496 Z M256 -9 C385 -9 486 84 486 217 C486 339 392 429 271 429 C143 429 41 335 41 202 C41 82 135 -9 256 -9 L256 -9 Z M259 76 C189 76 143 127 143 200 C143 283 193 343 268 343 C339 343 384 292 384 218 C384 136 335 76 259 76 L259 76 Z " />
<glyph glyph-name="odieresis" unicode="&#xf6;" horiz-adv-x="525" d="M411 513 C441 513 469 539 469 572 C469 605 441 631 411 631 C381 631 352 605 352 572 C352 539 381 513 411 513 L411 513 Z M221 513 C252 513 280 539 280 572 C280 605 252 631 221 631 C191 631 163 605 163 572 C163 539 191 513 221 513 L221 513 Z M256 -9 C385 -9 486 84 486 217 C486 339 392 429 271 429 C143 429 41 335 41 202 C41 82 135 -9 256 -9 L256 -9 Z M259 76 C189 76 143 127 143 200 C143 283 193 343 268 343 C339 343 384 292 384 218 C384 136 335 76 259 76 L259 76 Z " />
<glyph glyph-name="divide" unicode="&#xf7;" horiz-adv-x="222" d="M119 181 C155 181 187 210 187 251 C187 291 155 319 119 319 C82 319 51 291 51 251 C51 210 82 181 119 181 L119 181 Z " />
<glyph glyph-name="oslash" unicode="&#xf8;" horiz-adv-x="525" d="M453 333 L512 384 L475 433 L412 379 C375 411 326 429 271 429 C143 429 41 335 41 202 C41 159 53 120 74 87 L13 35 L52 -13 L115 41 C152 10 201 -9 256 -9 C385 -9 486 84 486 217 C486 261 474 300 453 333 L453 333 Z M146 150 C141 165 138 182 138 200 C138 286 190 348 268 348 C299 348 325 338 345 321 L146 150 Z M380 270 C386 255 389 237 389 218 C389 133 338 71 259 71 C228 71 201 81 181 98 L380 270 Z " />
<glyph glyph-name="ugrave" unicode="&#xf9;" horiz-adv-x="497" d="M243 499 L319 499 L269 689 L154 689 L243 499 Z M228 -9 C344 -9 411 49 432 168 L476 420 L377 420 L335 180 C322 106 293 77 233 77 C175 77 140 107 155 189 L196 420 L97 420 L58 197 C35 67 107 -9 228 -9 L228 -9 Z " />
<glyph glyph-name="uacute" unicode="&#xfa;" horiz-adv-x="497" d="M248 499 L326 499 L457 689 L337 689 L248 499 Z M228 -9 C344 -9 411 49 432 168 L476 420 L377 420 L335 180 C322 106 293 77 233 77 C175 77 140 107 155 189 L196 420 L97 420 L58 197 C35 67 107 -9 228 -9 L228 -9 Z " />
<glyph glyph-name="ucircumflex" unicode="&#xfb;" horiz-adv-x="497" d="M139 498 L223 498 L303 586 L352 498 L430 498 L325 702 L315 702 L139 498 Z M228 -9 C344 -9 411 49 432 168 L476 420 L377 420 L335 180 C322 106 293 77 233 77 C175 77 140 107 155 189 L196 420 L97 420 L58 197 C35 67 107 -9 228 -9 L228 -9 Z " />
<glyph glyph-name="udieresis" unicode="&#xfc;" horiz-adv-x="497" d="M390 513 C420 513 448 539 448 572 C448 605 420 631 390 631 C360 631 331 605 331 572 C331 539 360 513 390 513 L390 513 Z M200 513 C231 513 259 539 259 572 C259 605 231 631 200 631 C170 631 142 605 142 572 C142 539 170 513 200 513 L200 513 Z M228 -9 C344 -9 411 49 432 168 L476 420 L377 420 L335 180 C322 106 293 77 233 77 C175 77 140 107 155 189 L196 420 L97 420 L58 197 C35 67 107 -9 228 -9 L228 -9 Z " />
<glyph glyph-name="yacute" unicode="&#xfd;" horiz-adv-x="465" d="M241 499 L319 499 L450 689 L330 689 L241 499 Z M15 -212 L120 -212 L485 420 L380 420 L260 209 C242 177 227 126 227 126 C227 126 223 179 214 211 L158 420 L53 420 L164 44 L15 -212 Z " />
<glyph glyph-name="thorn" unicode="&#xfe;" horiz-adv-x="535" d="M-11 -212 L88 -212 L141 92 C166 30 221 -9 293 -9 C403 -9 498 86 498 227 C498 349 424 429 323 429 C261 429 217 399 186 348 L252 722 L153 722 L-11 -212 Z M268 77 C201 77 160 128 160 199 C160 283 214 342 289 342 C354 342 395 296 395 224 C395 138 345 77 268 77 L268 77 Z " />
<glyph glyph-name="ydieresis" unicode="&#xff;" horiz-adv-x="465" d="M381 513 C411 513 439 539 439 572 C439 605 411 631 381 631 C351 631 322 605 322 572 C322 539 351 513 381 513 L381 513 Z M191 513 C222 513 250 539 250 572 C250 605 222 631 191 631 C161 631 133 605 133 572 C133 539 161 513 191 513 L191 513 Z M15 -212 L120 -212 L485 420 L380 420 L260 209 C242 177 227 126 227 126 C227 126 223 179 214 211 L158 420 L53 420 L164 44 L15 -212 Z " />
<glyph glyph-name="dotlessi" unicode="&#x131;" horiz-adv-x="245" d="M140 0 L189 0 L202 76 L167 76 C150 76 145 85 148 105 L204 420 L104 420 L50 107 C35 26 62 0 140 0 L140 0 Z " />
<glyph glyph-name="Lslash" unicode="&#x141;" horiz-adv-x="536" d="M192 227 L388 297 L404 390 L209 320 L273 680 L170 680 L99 281 L21 253 L5 161 L83 189 L50 0 L461 0 L477 91 L168 91 L192 227 Z " />
<glyph glyph-name="lslash" unicode="&#x142;" horiz-adv-x="281" d="M198 272 L287 320 L304 418 L215 370 L277 722 L178 722 L106 311 L25 268 L7 170 L89 214 L70 107 C55 26 82 0 160 0 L216 0 L229 76 L187 76 C170 76 165 85 168 105 L198 272 Z " />
<glyph glyph-name="OE" unicode="&#x152;" horiz-adv-x="980" d="M384 0 L889 0 L905 90 L571 90 L596 233 L880 233 L896 322 L612 322 L659 590 L980 590 L996 680 L459 680 C227 680 69 533 69 308 C69 124 183 0 384 0 L384 0 Z M396 90 C243 90 176 177 176 304 C176 468 268 590 459 590 L557 590 L469 90 L396 90 Z " />
<glyph glyph-name="oe" unicode="&#x153;" horiz-adv-x="856" d="M433 85 C466 27 526 -9 606 -9 C684 -9 738 15 783 54 L724 117 C698 94 663 73 607 73 C532 73 489 118 483 177 L813 177 C831 322 756 429 614 429 C538 429 475 393 438 333 C406 391 348 429 273 429 C143 429 41 335 41 202 C41 82 135 -9 256 -9 C335 -9 397 27 433 85 L433 85 Z M486 245 C500 309 545 349 611 349 C681 349 717 304 718 245 L486 245 Z M259 76 C189 76 143 127 143 200 C143 283 193 343 268 343 C339 343 384 292 384 219 C384 136 335 76 259 76 L259 76 Z " />
<glyph glyph-name="Scaron" unicode="&#x160;" horiz-adv-x="526" d="M318 736 L328 736 L503 941 L420 941 L340 851 L291 941 L212 941 L318 736 Z M247 -9 C380 -9 474 63 474 188 C474 280 423 329 334 385 L294 411 C238 446 216 471 216 515 C216 565 250 599 303 599 C354 599 382 578 409 540 L485 600 C446 655 391 688 308 688 C188 688 114 613 114 510 C114 427 156 374 238 321 L278 295 C341 254 369 230 369 183 C369 123 323 82 247 82 C168 82 120 133 89 182 L8 128 C41 63 124 -9 247 -9 L247 -9 Z " />
<glyph glyph-name="scaron" unicode="&#x161;" horiz-adv-x="407" d="M228 484 L238 484 L413 689 L330 689 L250 599 L201 689 L122 689 L228 484 Z M186 -9 C296 -9 351 44 351 118 C351 194 298 223 232 254 C184 276 163 288 163 313 C163 338 185 352 216 352 C255 352 275 334 292 312 L357 366 C328 403 281 429 217 429 C135 429 71 386 71 306 C71 242 113 209 171 180 C234 150 256 142 256 115 C256 88 237 70 188 70 C136 70 105 93 81 129 L10 81 C41 30 100 -9 186 -9 L186 -9 Z " />
<glyph glyph-name="Ydieresis" unicode="&#x178;" horiz-adv-x="652" d="M511 765 C541 765 569 791 569 824 C569 857 541 883 511 883 C481 883 452 857 452 824 C452 791 481 765 511 765 L511 765 Z M321 765 C352 765 380 791 380 824 C380 857 352 883 321 883 C291 883 263 857 263 824 C263 791 291 765 321 765 L321 765 Z M279 219 L241 0 L344 0 L382 216 L709 680 L597 680 L399 402 C371 362 344 299 344 299 C344 299 335 362 320 402 L219 680 L110 680 L279 219 Z " />
<glyph glyph-name="Zcaron" unicode="&#x17d;" horiz-adv-x="586" d="M374 736 L384 736 L559 941 L476 941 L396 851 L347 941 L268 941 L374 736 Z M5 0 L494 0 L510 89 L178 89 L608 669 L608 680 L164 680 L148 591 L434 591 L5 11 L5 0 Z " />
<glyph glyph-name="zcaron" unicode="&#x17e;" horiz-adv-x="428" d="M261 484 L271 484 L446 689 L363 689 L283 599 L234 689 L155 689 L261 484 Z M5 0 L356 0 L371 81 L171 81 L432 409 L432 420 L93 420 L78 338 L266 338 L5 11 L5 0 Z " />
<glyph glyph-name="florin" unicode="&#x192;" horiz-adv-x="373" d="M121 240 L41 -212 L138 -212 L218 240 L319 240 L333 316 L232 316 L272 544 C280 589 294 602 320 602 C343 602 355 591 366 575 L432 627 C409 663 374 688 315 688 C240 688 193 648 175 547 L134 316 L61 316 L47 240 L121 240 Z " />
<glyph glyph-name="circumflex" unicode="&#x2c6;" horiz-adv-x="493" d="M152 498 L236 498 L316 586 L365 498 L443 498 L338 702 L328 702 L152 498 Z " />
<glyph glyph-name="caron" unicode="&#x2c7;" horiz-adv-x="493" d="M292 484 L302 484 L477 689 L394 689 L314 599 L265 689 L186 689 L292 484 Z " />
<glyph glyph-name="breve" unicode="&#x2d8;" horiz-adv-x="494" d="M295 494 C379 494 429 552 442 622 L365 634 C357 599 338 570 295 570 C254 570 239 598 235 634 L157 622 C162 552 210 494 295 494 L295 494 Z " />
<glyph glyph-name="dotaccent" unicode="&#x2d9;" horiz-adv-x="493" d="M311 512 C342 512 370 538 370 572 C370 605 342 631 311 631 C281 631 253 605 253 572 C253 538 281 512 311 512 L311 512 Z " />
<glyph glyph-name="ring" unicode="&#x2da;" horiz-adv-x="493" d="M314 479 C379 479 428 529 428 588 C428 649 379 698 314 698 C250 698 200 649 200 588 C200 529 250 479 314 479 L314 479 Z M314 537 C287 537 266 557 266 588 C266 620 287 640 314 640 C342 640 362 620 362 588 C362 557 342 537 314 537 L314 537 Z " />
<glyph glyph-name="ogonek" unicode="&#x2db;" horiz-adv-x="493" d="M212 -236 C267 -236 297 -209 315 -176 L263 -146 C251 -163 239 -178 216 -178 C195 -178 180 -165 180 -142 C180 -113 193 -95 221 -61 L270 0 L207 0 L168 -36 C137 -65 111 -101 111 -146 C111 -206 160 -236 212 -236 L212 -236 Z " />
<glyph glyph-name="tilde" unicode="&#x2dc;" horiz-adv-x="489" d="M215 496 C223 534 233 549 251 549 C266 549 276 538 297 521 C314 507 334 495 360 495 C412 495 452 537 463 620 L395 628 C386 589 377 575 358 575 C345 575 334 586 312 602 C295 616 276 628 249 628 C199 628 159 587 147 503 L215 496 Z " />
<glyph glyph-name="hungarumlaut" unicode="&#x2dd;" horiz-adv-x="493" d="M315 499 L393 499 L515 689 L409 689 L315 499 Z M157 499 L235 499 L357 689 L250 689 L157 499 Z " />
<glyph glyph-name="&amp;#x394;" unicode="&#x394;" horiz-adv-x="222" d="M119 181 C155 181 187 210 187 251 C187 291 155 319 119 319 C82 319 51 291 51 251 C51 210 82 181 119 181 L119 181 Z " />
<glyph glyph-name="&amp;#x2206;" unicode="&#x2206;" horiz-adv-x="222" d="M119 181 C155 181 187 210 187 251 C187 291 155 319 119 319 C82 319 51 291 51 251 C51 210 82 181 119 181 L119 181 Z " />
<glyph glyph-name="&amp;#x3a9;" unicode="&#x3a9;" horiz-adv-x="222" d="M119 181 C155 181 187 210 187 251 C187 291 155 319 119 319 C82 319 51 291 51 251 C51 210 82 181 119 181 L119 181 Z " />
<glyph glyph-name="&amp;#x2126;" unicode="&#x2126;" horiz-adv-x="222" d="M119 181 C155 181 187 210 187 251 C187 291 155 319 119 319 C82 319 51 291 51 251 C51 210 82 181 119 181 L119 181 Z " />
<glyph glyph-name="pi" unicode="&#x3c0;" horiz-adv-x="222" d="M119 181 C155 181 187 210 187 251 C187 291 155 319 119 319 C82 319 51 291 51 251 C51 210 82 181 119 181 L119 181 Z " />
<glyph glyph-name="endash" unicode="&#x2013;" horiz-adv-x="390" d="M25 167 L351 167 L367 255 L41 255 L25 167 Z " />
<glyph glyph-name="emdash" unicode="&#x2014;" horiz-adv-x="624" d="M25 167 L586 167 L601 255 L41 255 L25 167 Z " />
<glyph glyph-name="quoteleft" unicode="&#x2018;" horiz-adv-x="216" d="M161 444 C195 444 225 471 225 508 C225 536 211 555 190 566 L245 680 L194 680 L123 573 C108 552 98 531 98 509 C98 471 126 444 161 444 L161 444 Z " />
<glyph glyph-name="quoteright" unicode="&#x2019;" horiz-adv-x="215" d="M98 452 L149 452 L220 559 C235 580 245 601 245 623 C245 661 217 688 182 688 C148 688 118 661 118 624 C118 596 132 577 154 566 L98 452 Z " />
<glyph glyph-name="quotesinglbase" unicode="&#x201a;" horiz-adv-x="216" d="M4 -98 L54 -98 L123 4 C137 25 148 46 148 68 C148 106 120 133 84 133 C50 133 21 106 21 69 C21 41 35 21 56 11 L4 -98 Z " />
<glyph glyph-name="quotedblleft" unicode="&#x201c;" horiz-adv-x="400" d="M345 444 C379 444 409 471 409 508 C409 536 395 555 374 566 L429 680 L378 680 L307 573 C292 552 282 531 282 509 C282 471 310 444 345 444 L345 444 Z M161 444 C195 444 225 471 225 508 C225 536 211 555 190 566 L245 680 L194 680 L123 573 C108 552 98 531 98 509 C98 471 126 444 161 444 L161 444 Z " />
<glyph glyph-name="quotedblright" unicode="&#x201d;" horiz-adv-x="399" d="M282 452 L333 452 L404 559 C419 580 429 601 429 623 C429 661 401 688 366 688 C332 688 302 661 302 624 C302 596 316 577 338 566 L282 452 Z M98 452 L149 452 L220 559 C235 580 245 601 245 623 C245 661 217 688 182 688 C148 688 118 661 118 624 C118 596 132 577 154 566 L98 452 Z " />
<glyph glyph-name="quotedblbase" unicode="&#x201e;" horiz-adv-x="400" d="M188 -98 L238 -98 L307 4 C321 25 332 46 332 68 C332 106 304 133 268 133 C234 133 205 106 205 69 C205 41 219 21 240 11 L188 -98 Z M4 -98 L54 -98 L123 4 C137 25 148 46 148 68 C148 106 120 133 84 133 C50 133 21 106 21 69 C21 41 35 21 56 11 L4 -98 Z " />
<glyph glyph-name="dagger" unicode="&#x2020;" horiz-adv-x="344" d="M179 498 L138 262 L228 262 L269 498 L360 498 L374 579 L283 579 L301 680 L211 680 L193 579 L103 579 L88 498 L179 498 Z " />
<glyph glyph-name="daggerdbl" unicode="&#x2021;" horiz-adv-x="343" d="M179 505 L167 436 L76 436 L64 362 L154 362 L136 261 L227 261 L245 362 L335 362 L348 436 L258 436 L270 505 L360 505 L373 579 L283 579 L301 680 L211 680 L193 579 L102 579 L88 505 L179 505 Z " />
<glyph glyph-name="bullet" unicode="&#x2022;" horiz-adv-x="272" d="M144 153 C197 153 244 197 244 254 C244 311 197 355 144 355 C92 355 46 311 46 254 C46 197 92 153 144 153 L144 153 Z " />
<glyph glyph-name="ellipsis" unicode="&#x2026;" horiz-adv-x="652" d="M519 -6 C555 -6 585 22 585 61 C585 100 555 129 519 129 C484 129 452 100 452 61 C452 22 484 -6 519 -6 L519 -6 Z M301 -6 C337 -6 368 22 368 61 C368 100 337 129 301 129 C266 129 235 100 235 61 C235 22 266 -6 301 -6 L301 -6 Z M84 -6 C120 -6 150 22 150 61 C150 100 120 129 84 129 C49 129 18 100 18 61 C18 22 49 -6 84 -6 L84 -6 Z " />
<glyph glyph-name="perthousand" unicode="&#x2030;" horiz-adv-x="1271" d="M245 338 C340 338 426 410 426 519 C426 617 351 688 258 688 C164 688 79 615 79 508 C79 409 152 338 245 338 L245 338 Z M144 0 L246 0 L774 680 L673 680 L144 0 Z M1059 -9 C1154 -9 1240 64 1240 172 C1240 270 1165 341 1072 341 C978 341 893 269 893 161 C893 62 966 -9 1059 -9 L1059 -9 Z M659 -9 C754 -9 840 64 840 172 C840 270 765 341 672 341 C579 341 493 269 493 161 C493 62 566 -9 659 -9 L659 -9 Z M247 416 C199 416 167 452 167 508 C167 572 208 610 256 610 C304 610 337 574 337 519 C337 453 295 416 247 416 L247 416 Z M1061 70 C1013 70 981 105 981 161 C981 226 1022 263 1070 263 C1118 263 1151 227 1151 172 C1151 106 1109 70 1061 70 L1061 70 Z M661 70 C613 70 581 105 581 161 C581 226 622 263 670 263 C718 263 751 227 751 172 C751 106 709 70 661 70 L661 70 Z " />
<glyph glyph-name="guilsinglleft" unicode="&#x2039;" horiz-adv-x="263" d="M102 35 L200 35 L130 193 L257 367 L154 367 L33 199 L33 191 L102 35 Z " />
<glyph glyph-name="guilsinglright" unicode="&#x203a;" horiz-adv-x="264" d="M6 35 L109 35 L230 202 L230 210 L161 367 L62 367 L132 208 L6 35 Z " />
<glyph glyph-name="&amp;#x2044;" unicode="&#x2044;" horiz-adv-x="494" d="M-44 0 L57 0 L586 680 L484 680 L-44 0 Z " />
<glyph glyph-name="&amp;#x2215;" unicode="&#x2215;" horiz-adv-x="494" d="M-44 0 L57 0 L586 680 L484 680 L-44 0 Z " />
<glyph glyph-name="Euro" unicode="&#x20ac;" horiz-adv-x="727" d="M135 366 C134 350 133 334 133 317 C133 309 133 301 134 293 L55 293 L42 217 L145 217 C179 79 287 -9 429 -9 C554 -9 628 42 685 115 L609 173 C573 123 516 81 432 81 C340 81 278 131 252 217 L497 217 L510 293 L240 293 C239 301 239 310 239 318 C239 335 240 351 241 366 L522 366 L535 442 L258 442 C291 539 365 598 462 598 C548 598 595 562 627 502 L710 549 C665 634 588 688 465 688 C315 688 193 593 150 442 L80 442 L67 366 L135 366 Z " />
<glyph glyph-name="trademark" unicode="&#x2122;" horiz-adv-x="704" d="M368 381 L438 381 L465 537 L527 444 L536 444 L628 536 L601 381 L671 381 L725 684 L716 684 L546 530 L430 684 L421 684 L368 381 Z M198 621 L156 381 L227 381 L269 621 L353 621 L363 680 L124 680 L114 621 L198 621 Z " />
<glyph glyph-name="partialdiff" unicode="&#x2202;" horiz-adv-x="222" d="M119 181 C155 181 187 210 187 251 C187 291 155 319 119 319 C82 319 51 291 51 251 C51 210 82 181 119 181 L119 181 Z " />
<glyph glyph-name="product" unicode="&#x220f;" horiz-adv-x="222" d="M119 181 C155 181 187 210 187 251 C187 291 155 319 119 319 C82 319 51 291 51 251 C51 210 82 181 119 181 L119 181 Z " />
<glyph glyph-name="summation" unicode="&#x2211;" horiz-adv-x="782" d="M452 3 C630 26 760 158 760 357 C760 552 617 688 433 688 C235 688 70 542 70 323 C70 231 102 155 154 99 C106 84 71 54 47 17 L118 -42 C144 -4 179 29 231 29 C280 29 318 -2 358 -34 C413 -81 474 -142 567 -142 C644 -142 693 -110 726 -67 L658 -7 C640 -28 611 -51 568 -51 C518 -51 484 -26 452 3 L452 3 Z M400 83 C267 83 176 180 176 321 C176 483 281 596 430 596 C562 596 654 501 654 359 C654 197 550 83 400 83 L400 83 Z " />
<glyph glyph-name="minus" unicode="&#x2212;" horiz-adv-x="222" d="M119 181 C155 181 187 210 187 251 C187 291 155 319 119 319 C82 319 51 291 51 251 C51 210 82 181 119 181 L119 181 Z " />
<glyph glyph-name="radical" unicode="&#x221a;" horiz-adv-x="222" d="M119 181 C155 181 187 210 187 251 C187 291 155 319 119 319 C82 319 51 291 51 251 C51 210 82 181 119 181 L119 181 Z " />
<glyph glyph-name="integral" unicode="&#x222b;" horiz-adv-x="222" d="M119 181 C155 181 187 210 187 251 C187 291 155 319 119 319 C82 319 51 291 51 251 C51 210 82 181 119 181 L119 181 Z " />
<glyph glyph-name="approxequal" unicode="&#x2248;" horiz-adv-x="222" d="M119 181 C155 181 187 210 187 251 C187 291 155 319 119 319 C82 319 51 291 51 251 C51 210 82 181 119 181 L119 181 Z " />
<glyph glyph-name="lessequal" unicode="&#x2264;" horiz-adv-x="222" d="M119 181 C155 181 187 210 187 251 C187 291 155 319 119 319 C82 319 51 291 51 251 C51 210 82 181 119 181 L119 181 Z " />
<glyph glyph-name="greaterequal" unicode="&#x2265;" horiz-adv-x="222" d="M119 181 C155 181 187 210 187 251 C187 291 155 319 119 319 C82 319 51 291 51 251 C51 210 82 181 119 181 L119 181 Z " />
<glyph glyph-name="lozenge" unicode="&#x25ca;" horiz-adv-x="222" d="M119 181 C155 181 187 210 187 251 C187 291 155 319 119 319 C82 319 51 291 51 251 C51 210 82 181 119 181 L119 181 Z " />
<glyph glyph-name="fi" unicode="&#xfb01;" horiz-adv-x="538" d="M476 520 C509 520 537 545 537 583 C537 619 508 644 475 644 C442 644 413 619 413 583 C413 545 442 520 476 520 L476 520 Z M222 337 L382 337 L342 107 C328 26 355 0 432 0 L482 0 L495 76 L459 76 C442 76 437 85 441 105 L496 420 L237 420 L267 590 C275 634 293 646 318 646 C338 646 347 640 358 627 L421 688 C395 718 363 735 314 735 C232 735 186 688 169 594 L139 420 L71 420 L56 337 L124 337 L49 -90 C42 -129 27 -135 7 -135 L-28 -135 L-43 -212 L12 -212 C89 -212 129 -197 146 -97 L222 337 Z " />
<glyph glyph-name="fl" unicode="&#xfb02;" horiz-adv-x="535" d="M432 0 L488 0 L501 76 L459 76 C442 76 437 85 440 105 L549 722 L450 722 L342 107 C327 26 354 0 432 0 L432 0 Z M124 337 L49 -90 C42 -129 27 -135 7 -135 L-28 -135 L-43 -212 L12 -212 C89 -212 129 -197 146 -97 L222 337 L317 337 L331 420 L237 420 L267 590 C275 634 293 646 317 646 C336 646 347 639 356 630 L404 698 C383 721 351 735 309 735 C232 735 186 689 169 593 L139 420 L71 420 L56 337 L124 337 Z " />
</font>
</svg>
